M48
; DRILL file {KiCad 7.0.1} date Sat Jul 22 01:47:02 2023
; FORMAT={-:-/ absolute / inch / decimal}
; #@! TF.CreationDate,2023-07-22T01:47:02+03:00
; #@! TF.GenerationSoftware,Kicad,Pcbnew,7.0.1
; #@! TF.FileFunction,NonPlated,1,2,NPTH
FMAT,2
INCH
; #@! TA.AperFunction,NonPlated,NPTH,ComponentDrill
T1C0.0197
%
G90
G05
T1
X3.3027Y-1.7159
X3.3027Y-1.7474
X3.3027Y-1.7789
X3.3027Y-1.8085
X3.3027Y-1.84
X3.3027Y-1.8715
X3.3027Y-2.2082
X3.3027Y-2.2397
X3.3027Y-2.2712
X3.3027Y-2.3008
X3.3027Y-2.3323
X3.3027Y-2.3638
X3.3027Y-2.7005
X3.3027Y-2.732
X3.3027Y-2.7635
X3.3027Y-2.7931
X3.3027Y-2.8246
X3.3027Y-2.8561
X3.3893Y-1.7159
X3.3893Y-1.7474
X3.3893Y-1.7789
X3.3893Y-1.8085
X3.3893Y-1.84
X3.3893Y-1.8715
X3.3893Y-2.2082
X3.3893Y-2.2397
X3.3893Y-2.2712
X3.3893Y-2.3008
X3.3893Y-2.3323
X3.3893Y-2.3638
X3.3893Y-2.7005
X3.3893Y-2.732
X3.3893Y-2.7635
X3.3893Y-2.7931
X3.3893Y-2.8246
X3.3893Y-2.8561
T0
M30
