%TF.GenerationSoftware,KiCad,Pcbnew,7.0.1*%
%TF.CreationDate,2023-07-22T01:46:55+03:00*%
%TF.ProjectId,kr556rt2,6b723535-3672-4743-922e-6b696361645f,rev?*%
%TF.SameCoordinates,Original*%
%TF.FileFunction,Profile,NP*%
%FSLAX46Y46*%
G04 Gerber Fmt 4.6, Leading zero omitted, Abs format (unit mm)*
G04 Created by KiCad (PCBNEW 7.0.1) date 2023-07-22 01:46:55*
%MOMM*%
%LPD*%
G01*
G04 APERTURE LIST*
%TA.AperFunction,Profile*%
%ADD10C,0.100000*%
%TD*%
G04 APERTURE END LIST*
D10*
X59547000Y-38100000D02*
X82560123Y-38100000D01*
X86416677Y-74321277D02*
G75*
G03*
X83560123Y-74321277I-1428277J0D01*
G01*
X83560123Y-41878723D02*
G75*
G03*
X86416677Y-41878723I1428277J0D01*
G01*
X83566000Y-54441961D02*
X83566000Y-49231077D01*
X87416677Y-78100000D02*
X110429800Y-78100000D01*
X87416677Y-38099977D02*
G75*
G03*
X86416677Y-39100000I23J-1000023D01*
G01*
X111429800Y-39100000D02*
G75*
G03*
X110429800Y-38100000I-1000000J0D01*
G01*
X83566000Y-66907484D02*
X83566000Y-61696600D01*
X86416700Y-77100000D02*
G75*
G03*
X87416677Y-78100000I1000000J0D01*
G01*
X87416677Y-38100000D02*
X110429800Y-38100000D01*
X83560100Y-39100000D02*
G75*
G03*
X82560123Y-38100000I-1000000J0D01*
G01*
X86422554Y-61696600D02*
G75*
G03*
X83566000Y-61696600I-1428277J0D01*
G01*
X83566000Y-66907484D02*
G75*
G03*
X86422554Y-66907484I1428277J0D01*
G01*
X86422554Y-66907484D02*
X86422554Y-61696600D01*
X59547000Y-78100000D02*
X82560123Y-78100000D01*
X58547000Y-77100000D02*
G75*
G03*
X59547000Y-78100000I1000000J0D01*
G01*
X58547000Y-39100000D02*
X58547000Y-77100000D01*
X86422554Y-49231077D02*
G75*
G03*
X83566000Y-49231077I-1428277J0D01*
G01*
X86416677Y-74321277D02*
X86416677Y-77100000D01*
X59547000Y-38100000D02*
G75*
G03*
X58547000Y-39100000I0J-1000000D01*
G01*
X83560123Y-41878723D02*
X83560123Y-39100000D01*
X86422554Y-54441961D02*
X86422554Y-49231077D01*
X111429800Y-39100000D02*
X111429800Y-77100000D01*
X110429800Y-78100000D02*
G75*
G03*
X111429800Y-77100000I0J1000000D01*
G01*
X83566000Y-54441961D02*
G75*
G03*
X86422554Y-54441961I1428277J0D01*
G01*
X86416677Y-41878723D02*
X86416677Y-39100000D01*
X82560123Y-78100023D02*
G75*
G03*
X83560123Y-77100000I-23J1000023D01*
G01*
X83560123Y-74321277D02*
X83560123Y-77100000D01*
M02*
