%TF.GenerationSoftware,KiCad,Pcbnew,7.0.1*%
%TF.CreationDate,2023-07-22T01:46:55+03:00*%
%TF.ProjectId,kr556rt2,6b723535-3672-4743-922e-6b696361645f,rev?*%
%TF.SameCoordinates,Original*%
%TF.FileFunction,Legend,Bot*%
%TF.FilePolarity,Positive*%
%FSLAX46Y46*%
G04 Gerber Fmt 4.6, Leading zero omitted, Abs format (unit mm)*
G04 Created by KiCad (PCBNEW 7.0.1) date 2023-07-22 01:46:55*
%MOMM*%
%LPD*%
G01*
G04 APERTURE LIST*
%ADD10C,0.522740*%
%ADD11C,0.093750*%
%ADD12C,0.300000*%
%ADD13C,0.150000*%
%ADD14C,0.120000*%
%ADD15C,0.100000*%
G04 APERTURE END LIST*
D10*
X63608970Y-41148000D02*
G75*
G03*
X63608970Y-41148000I-261370J0D01*
G01*
X91777570Y-41071800D02*
G75*
G03*
X91777570Y-41071800I-261370J0D01*
G01*
D11*
X105891828Y-39125814D02*
X105891828Y-38375814D01*
X105570400Y-39125814D02*
X105570400Y-38732957D01*
X105570400Y-38732957D02*
X105606114Y-38661528D01*
X105606114Y-38661528D02*
X105677542Y-38625814D01*
X105677542Y-38625814D02*
X105784685Y-38625814D01*
X105784685Y-38625814D02*
X105856114Y-38661528D01*
X105856114Y-38661528D02*
X105891828Y-38697242D01*
X105320400Y-38625814D02*
X105034686Y-38625814D01*
X105213257Y-38375814D02*
X105213257Y-39018671D01*
X105213257Y-39018671D02*
X105177543Y-39090100D01*
X105177543Y-39090100D02*
X105106114Y-39125814D01*
X105106114Y-39125814D02*
X105034686Y-39125814D01*
X104891829Y-38625814D02*
X104606115Y-38625814D01*
X104784686Y-38375814D02*
X104784686Y-39018671D01*
X104784686Y-39018671D02*
X104748972Y-39090100D01*
X104748972Y-39090100D02*
X104677543Y-39125814D01*
X104677543Y-39125814D02*
X104606115Y-39125814D01*
X104356115Y-38625814D02*
X104356115Y-39375814D01*
X104356115Y-38661528D02*
X104284687Y-38625814D01*
X104284687Y-38625814D02*
X104141829Y-38625814D01*
X104141829Y-38625814D02*
X104070401Y-38661528D01*
X104070401Y-38661528D02*
X104034687Y-38697242D01*
X104034687Y-38697242D02*
X103998972Y-38768671D01*
X103998972Y-38768671D02*
X103998972Y-38982957D01*
X103998972Y-38982957D02*
X104034687Y-39054385D01*
X104034687Y-39054385D02*
X104070401Y-39090100D01*
X104070401Y-39090100D02*
X104141829Y-39125814D01*
X104141829Y-39125814D02*
X104284687Y-39125814D01*
X104284687Y-39125814D02*
X104356115Y-39090100D01*
X103713258Y-39090100D02*
X103641830Y-39125814D01*
X103641830Y-39125814D02*
X103498973Y-39125814D01*
X103498973Y-39125814D02*
X103427544Y-39090100D01*
X103427544Y-39090100D02*
X103391830Y-39018671D01*
X103391830Y-39018671D02*
X103391830Y-38982957D01*
X103391830Y-38982957D02*
X103427544Y-38911528D01*
X103427544Y-38911528D02*
X103498973Y-38875814D01*
X103498973Y-38875814D02*
X103606116Y-38875814D01*
X103606116Y-38875814D02*
X103677544Y-38840100D01*
X103677544Y-38840100D02*
X103713258Y-38768671D01*
X103713258Y-38768671D02*
X103713258Y-38732957D01*
X103713258Y-38732957D02*
X103677544Y-38661528D01*
X103677544Y-38661528D02*
X103606116Y-38625814D01*
X103606116Y-38625814D02*
X103498973Y-38625814D01*
X103498973Y-38625814D02*
X103427544Y-38661528D01*
X103070401Y-39054385D02*
X103034687Y-39090100D01*
X103034687Y-39090100D02*
X103070401Y-39125814D01*
X103070401Y-39125814D02*
X103106115Y-39090100D01*
X103106115Y-39090100D02*
X103070401Y-39054385D01*
X103070401Y-39054385D02*
X103070401Y-39125814D01*
X103070401Y-38661528D02*
X103034687Y-38697242D01*
X103034687Y-38697242D02*
X103070401Y-38732957D01*
X103070401Y-38732957D02*
X103106115Y-38697242D01*
X103106115Y-38697242D02*
X103070401Y-38661528D01*
X103070401Y-38661528D02*
X103070401Y-38732957D01*
X102177544Y-38340100D02*
X102820401Y-39304385D01*
X101391830Y-38340100D02*
X102034687Y-39304385D01*
X101248973Y-38625814D02*
X100963259Y-38625814D01*
X101141830Y-38375814D02*
X101141830Y-39018671D01*
X101141830Y-39018671D02*
X101106116Y-39090100D01*
X101106116Y-39090100D02*
X101034687Y-39125814D01*
X101034687Y-39125814D02*
X100963259Y-39125814D01*
X100713259Y-39054385D02*
X100677545Y-39090100D01*
X100677545Y-39090100D02*
X100713259Y-39125814D01*
X100713259Y-39125814D02*
X100748973Y-39090100D01*
X100748973Y-39090100D02*
X100713259Y-39054385D01*
X100713259Y-39054385D02*
X100713259Y-39125814D01*
X100356116Y-39125814D02*
X100356116Y-38625814D01*
X100356116Y-38697242D02*
X100320402Y-38661528D01*
X100320402Y-38661528D02*
X100248973Y-38625814D01*
X100248973Y-38625814D02*
X100141830Y-38625814D01*
X100141830Y-38625814D02*
X100070402Y-38661528D01*
X100070402Y-38661528D02*
X100034688Y-38732957D01*
X100034688Y-38732957D02*
X100034688Y-39125814D01*
X100034688Y-38732957D02*
X99998973Y-38661528D01*
X99998973Y-38661528D02*
X99927545Y-38625814D01*
X99927545Y-38625814D02*
X99820402Y-38625814D01*
X99820402Y-38625814D02*
X99748973Y-38661528D01*
X99748973Y-38661528D02*
X99713259Y-38732957D01*
X99713259Y-38732957D02*
X99713259Y-39125814D01*
X99070402Y-39090100D02*
X99141830Y-39125814D01*
X99141830Y-39125814D02*
X99284688Y-39125814D01*
X99284688Y-39125814D02*
X99356116Y-39090100D01*
X99356116Y-39090100D02*
X99391830Y-39018671D01*
X99391830Y-39018671D02*
X99391830Y-38732957D01*
X99391830Y-38732957D02*
X99356116Y-38661528D01*
X99356116Y-38661528D02*
X99284688Y-38625814D01*
X99284688Y-38625814D02*
X99141830Y-38625814D01*
X99141830Y-38625814D02*
X99070402Y-38661528D01*
X99070402Y-38661528D02*
X99034688Y-38732957D01*
X99034688Y-38732957D02*
X99034688Y-38804385D01*
X99034688Y-38804385D02*
X99391830Y-38875814D01*
X98177545Y-38340100D02*
X98820402Y-39304385D01*
X97998974Y-38625814D02*
X97606117Y-38625814D01*
X97606117Y-38625814D02*
X97998974Y-39125814D01*
X97998974Y-39125814D02*
X97606117Y-39125814D01*
X97391831Y-39125814D02*
X96998974Y-38625814D01*
X97391831Y-38625814D02*
X96998974Y-39125814D01*
X96891831Y-39197242D02*
X96320402Y-39197242D01*
X95820402Y-39125814D02*
X95820402Y-38375814D01*
X95820402Y-39090100D02*
X95891830Y-39125814D01*
X95891830Y-39125814D02*
X96034687Y-39125814D01*
X96034687Y-39125814D02*
X96106116Y-39090100D01*
X96106116Y-39090100D02*
X96141830Y-39054385D01*
X96141830Y-39054385D02*
X96177544Y-38982957D01*
X96177544Y-38982957D02*
X96177544Y-38768671D01*
X96177544Y-38768671D02*
X96141830Y-38697242D01*
X96141830Y-38697242D02*
X96106116Y-38661528D01*
X96106116Y-38661528D02*
X96034687Y-38625814D01*
X96034687Y-38625814D02*
X95891830Y-38625814D01*
X95891830Y-38625814D02*
X95820402Y-38661528D01*
X95177545Y-39090100D02*
X95248973Y-39125814D01*
X95248973Y-39125814D02*
X95391831Y-39125814D01*
X95391831Y-39125814D02*
X95463259Y-39090100D01*
X95463259Y-39090100D02*
X95498973Y-39018671D01*
X95498973Y-39018671D02*
X95498973Y-38732957D01*
X95498973Y-38732957D02*
X95463259Y-38661528D01*
X95463259Y-38661528D02*
X95391831Y-38625814D01*
X95391831Y-38625814D02*
X95248973Y-38625814D01*
X95248973Y-38625814D02*
X95177545Y-38661528D01*
X95177545Y-38661528D02*
X95141831Y-38732957D01*
X95141831Y-38732957D02*
X95141831Y-38804385D01*
X95141831Y-38804385D02*
X95498973Y-38875814D01*
X94713259Y-39125814D02*
X94784688Y-39090100D01*
X94784688Y-39090100D02*
X94820402Y-39018671D01*
X94820402Y-39018671D02*
X94820402Y-38375814D01*
X94534688Y-38625814D02*
X94248974Y-38625814D01*
X94427545Y-38375814D02*
X94427545Y-39018671D01*
X94427545Y-39018671D02*
X94391831Y-39090100D01*
X94391831Y-39090100D02*
X94320402Y-39125814D01*
X94320402Y-39125814D02*
X94248974Y-39125814D01*
X93677546Y-39125814D02*
X93677546Y-38732957D01*
X93677546Y-38732957D02*
X93713260Y-38661528D01*
X93713260Y-38661528D02*
X93784688Y-38625814D01*
X93784688Y-38625814D02*
X93927546Y-38625814D01*
X93927546Y-38625814D02*
X93998974Y-38661528D01*
X93677546Y-39090100D02*
X93748974Y-39125814D01*
X93748974Y-39125814D02*
X93927546Y-39125814D01*
X93927546Y-39125814D02*
X93998974Y-39090100D01*
X93998974Y-39090100D02*
X94034688Y-39018671D01*
X94034688Y-39018671D02*
X94034688Y-38947242D01*
X94034688Y-38947242D02*
X93998974Y-38875814D01*
X93998974Y-38875814D02*
X93927546Y-38840100D01*
X93927546Y-38840100D02*
X93748974Y-38840100D01*
X93748974Y-38840100D02*
X93677546Y-38804385D01*
X93498975Y-39197242D02*
X92927546Y-39197242D01*
X92784688Y-39090100D02*
X92713260Y-39125814D01*
X92713260Y-39125814D02*
X92570403Y-39125814D01*
X92570403Y-39125814D02*
X92498974Y-39090100D01*
X92498974Y-39090100D02*
X92463260Y-39018671D01*
X92463260Y-39018671D02*
X92463260Y-38982957D01*
X92463260Y-38982957D02*
X92498974Y-38911528D01*
X92498974Y-38911528D02*
X92570403Y-38875814D01*
X92570403Y-38875814D02*
X92677546Y-38875814D01*
X92677546Y-38875814D02*
X92748974Y-38840100D01*
X92748974Y-38840100D02*
X92784688Y-38768671D01*
X92784688Y-38768671D02*
X92784688Y-38732957D01*
X92784688Y-38732957D02*
X92748974Y-38661528D01*
X92748974Y-38661528D02*
X92677546Y-38625814D01*
X92677546Y-38625814D02*
X92570403Y-38625814D01*
X92570403Y-38625814D02*
X92498974Y-38661528D01*
D12*
X98462728Y-50761286D02*
X97748442Y-50261286D01*
X98462728Y-49904143D02*
X96962728Y-49904143D01*
X96962728Y-49904143D02*
X96962728Y-50475572D01*
X96962728Y-50475572D02*
X97034157Y-50618429D01*
X97034157Y-50618429D02*
X97105585Y-50689858D01*
X97105585Y-50689858D02*
X97248442Y-50761286D01*
X97248442Y-50761286D02*
X97462728Y-50761286D01*
X97462728Y-50761286D02*
X97605585Y-50689858D01*
X97605585Y-50689858D02*
X97677014Y-50618429D01*
X97677014Y-50618429D02*
X97748442Y-50475572D01*
X97748442Y-50475572D02*
X97748442Y-49904143D01*
X98391300Y-51975572D02*
X98462728Y-51832715D01*
X98462728Y-51832715D02*
X98462728Y-51547001D01*
X98462728Y-51547001D02*
X98391300Y-51404143D01*
X98391300Y-51404143D02*
X98248442Y-51332715D01*
X98248442Y-51332715D02*
X97677014Y-51332715D01*
X97677014Y-51332715D02*
X97534157Y-51404143D01*
X97534157Y-51404143D02*
X97462728Y-51547001D01*
X97462728Y-51547001D02*
X97462728Y-51832715D01*
X97462728Y-51832715D02*
X97534157Y-51975572D01*
X97534157Y-51975572D02*
X97677014Y-52047001D01*
X97677014Y-52047001D02*
X97819871Y-52047001D01*
X97819871Y-52047001D02*
X97962728Y-51332715D01*
X98462728Y-53332715D02*
X97677014Y-53332715D01*
X97677014Y-53332715D02*
X97534157Y-53261286D01*
X97534157Y-53261286D02*
X97462728Y-53118429D01*
X97462728Y-53118429D02*
X97462728Y-52832715D01*
X97462728Y-52832715D02*
X97534157Y-52689857D01*
X98391300Y-53332715D02*
X98462728Y-53189857D01*
X98462728Y-53189857D02*
X98462728Y-52832715D01*
X98462728Y-52832715D02*
X98391300Y-52689857D01*
X98391300Y-52689857D02*
X98248442Y-52618429D01*
X98248442Y-52618429D02*
X98105585Y-52618429D01*
X98105585Y-52618429D02*
X97962728Y-52689857D01*
X97962728Y-52689857D02*
X97891300Y-52832715D01*
X97891300Y-52832715D02*
X97891300Y-53189857D01*
X97891300Y-53189857D02*
X97819871Y-53332715D01*
X98462728Y-54689858D02*
X96962728Y-54689858D01*
X98391300Y-54689858D02*
X98462728Y-54547000D01*
X98462728Y-54547000D02*
X98462728Y-54261286D01*
X98462728Y-54261286D02*
X98391300Y-54118429D01*
X98391300Y-54118429D02*
X98319871Y-54047000D01*
X98319871Y-54047000D02*
X98177014Y-53975572D01*
X98177014Y-53975572D02*
X97748442Y-53975572D01*
X97748442Y-53975572D02*
X97605585Y-54047000D01*
X97605585Y-54047000D02*
X97534157Y-54118429D01*
X97534157Y-54118429D02*
X97462728Y-54261286D01*
X97462728Y-54261286D02*
X97462728Y-54547000D01*
X97462728Y-54547000D02*
X97534157Y-54689858D01*
X98462728Y-56547000D02*
X96962728Y-56547000D01*
X98462728Y-57404143D02*
X97605585Y-56761286D01*
X96962728Y-57404143D02*
X97819871Y-56547000D01*
X98462728Y-58047000D02*
X96962728Y-58047000D01*
X96962728Y-58047000D02*
X96962728Y-58618429D01*
X96962728Y-58618429D02*
X97034157Y-58761286D01*
X97034157Y-58761286D02*
X97105585Y-58832715D01*
X97105585Y-58832715D02*
X97248442Y-58904143D01*
X97248442Y-58904143D02*
X97462728Y-58904143D01*
X97462728Y-58904143D02*
X97605585Y-58832715D01*
X97605585Y-58832715D02*
X97677014Y-58761286D01*
X97677014Y-58761286D02*
X97748442Y-58618429D01*
X97748442Y-58618429D02*
X97748442Y-58047000D01*
X96962728Y-60261286D02*
X96962728Y-59547000D01*
X96962728Y-59547000D02*
X97677014Y-59475572D01*
X97677014Y-59475572D02*
X97605585Y-59547000D01*
X97605585Y-59547000D02*
X97534157Y-59689858D01*
X97534157Y-59689858D02*
X97534157Y-60047000D01*
X97534157Y-60047000D02*
X97605585Y-60189858D01*
X97605585Y-60189858D02*
X97677014Y-60261286D01*
X97677014Y-60261286D02*
X97819871Y-60332715D01*
X97819871Y-60332715D02*
X98177014Y-60332715D01*
X98177014Y-60332715D02*
X98319871Y-60261286D01*
X98319871Y-60261286D02*
X98391300Y-60189858D01*
X98391300Y-60189858D02*
X98462728Y-60047000D01*
X98462728Y-60047000D02*
X98462728Y-59689858D01*
X98462728Y-59689858D02*
X98391300Y-59547000D01*
X98391300Y-59547000D02*
X98319871Y-59475572D01*
X96962728Y-61689857D02*
X96962728Y-60975571D01*
X96962728Y-60975571D02*
X97677014Y-60904143D01*
X97677014Y-60904143D02*
X97605585Y-60975571D01*
X97605585Y-60975571D02*
X97534157Y-61118429D01*
X97534157Y-61118429D02*
X97534157Y-61475571D01*
X97534157Y-61475571D02*
X97605585Y-61618429D01*
X97605585Y-61618429D02*
X97677014Y-61689857D01*
X97677014Y-61689857D02*
X97819871Y-61761286D01*
X97819871Y-61761286D02*
X98177014Y-61761286D01*
X98177014Y-61761286D02*
X98319871Y-61689857D01*
X98319871Y-61689857D02*
X98391300Y-61618429D01*
X98391300Y-61618429D02*
X98462728Y-61475571D01*
X98462728Y-61475571D02*
X98462728Y-61118429D01*
X98462728Y-61118429D02*
X98391300Y-60975571D01*
X98391300Y-60975571D02*
X98319871Y-60904143D01*
X96962728Y-63047000D02*
X96962728Y-62761285D01*
X96962728Y-62761285D02*
X97034157Y-62618428D01*
X97034157Y-62618428D02*
X97105585Y-62547000D01*
X97105585Y-62547000D02*
X97319871Y-62404142D01*
X97319871Y-62404142D02*
X97605585Y-62332714D01*
X97605585Y-62332714D02*
X98177014Y-62332714D01*
X98177014Y-62332714D02*
X98319871Y-62404142D01*
X98319871Y-62404142D02*
X98391300Y-62475571D01*
X98391300Y-62475571D02*
X98462728Y-62618428D01*
X98462728Y-62618428D02*
X98462728Y-62904142D01*
X98462728Y-62904142D02*
X98391300Y-63047000D01*
X98391300Y-63047000D02*
X98319871Y-63118428D01*
X98319871Y-63118428D02*
X98177014Y-63189857D01*
X98177014Y-63189857D02*
X97819871Y-63189857D01*
X97819871Y-63189857D02*
X97677014Y-63118428D01*
X97677014Y-63118428D02*
X97605585Y-63047000D01*
X97605585Y-63047000D02*
X97534157Y-62904142D01*
X97534157Y-62904142D02*
X97534157Y-62618428D01*
X97534157Y-62618428D02*
X97605585Y-62475571D01*
X97605585Y-62475571D02*
X97677014Y-62404142D01*
X97677014Y-62404142D02*
X97819871Y-62332714D01*
X98462728Y-63832713D02*
X96962728Y-63832713D01*
X96962728Y-63832713D02*
X96962728Y-64404142D01*
X96962728Y-64404142D02*
X97034157Y-64546999D01*
X97034157Y-64546999D02*
X97105585Y-64618428D01*
X97105585Y-64618428D02*
X97248442Y-64689856D01*
X97248442Y-64689856D02*
X97462728Y-64689856D01*
X97462728Y-64689856D02*
X97605585Y-64618428D01*
X97605585Y-64618428D02*
X97677014Y-64546999D01*
X97677014Y-64546999D02*
X97748442Y-64404142D01*
X97748442Y-64404142D02*
X97748442Y-63832713D01*
X96962728Y-65118428D02*
X96962728Y-65975571D01*
X98462728Y-65546999D02*
X96962728Y-65546999D01*
X97105585Y-66404142D02*
X97034157Y-66475570D01*
X97034157Y-66475570D02*
X96962728Y-66618428D01*
X96962728Y-66618428D02*
X96962728Y-66975570D01*
X96962728Y-66975570D02*
X97034157Y-67118428D01*
X97034157Y-67118428D02*
X97105585Y-67189856D01*
X97105585Y-67189856D02*
X97248442Y-67261285D01*
X97248442Y-67261285D02*
X97391300Y-67261285D01*
X97391300Y-67261285D02*
X97605585Y-67189856D01*
X97605585Y-67189856D02*
X98462728Y-66332713D01*
X98462728Y-66332713D02*
X98462728Y-67261285D01*
X100892728Y-53368430D02*
X100107014Y-53368430D01*
X100107014Y-53368430D02*
X99964157Y-53297001D01*
X99964157Y-53297001D02*
X99892728Y-53154144D01*
X99892728Y-53154144D02*
X99892728Y-52868430D01*
X99892728Y-52868430D02*
X99964157Y-52725572D01*
X100821300Y-53368430D02*
X100892728Y-53225572D01*
X100892728Y-53225572D02*
X100892728Y-52868430D01*
X100892728Y-52868430D02*
X100821300Y-52725572D01*
X100821300Y-52725572D02*
X100678442Y-52654144D01*
X100678442Y-52654144D02*
X100535585Y-52654144D01*
X100535585Y-52654144D02*
X100392728Y-52725572D01*
X100392728Y-52725572D02*
X100321300Y-52868430D01*
X100321300Y-52868430D02*
X100321300Y-53225572D01*
X100321300Y-53225572D02*
X100249871Y-53368430D01*
X100821300Y-54011287D02*
X100892728Y-54154144D01*
X100892728Y-54154144D02*
X100892728Y-54439858D01*
X100892728Y-54439858D02*
X100821300Y-54582715D01*
X100821300Y-54582715D02*
X100678442Y-54654144D01*
X100678442Y-54654144D02*
X100607014Y-54654144D01*
X100607014Y-54654144D02*
X100464157Y-54582715D01*
X100464157Y-54582715D02*
X100392728Y-54439858D01*
X100392728Y-54439858D02*
X100392728Y-54225573D01*
X100392728Y-54225573D02*
X100321300Y-54082715D01*
X100321300Y-54082715D02*
X100178442Y-54011287D01*
X100178442Y-54011287D02*
X100107014Y-54011287D01*
X100107014Y-54011287D02*
X99964157Y-54082715D01*
X99964157Y-54082715D02*
X99892728Y-54225573D01*
X99892728Y-54225573D02*
X99892728Y-54439858D01*
X99892728Y-54439858D02*
X99964157Y-54582715D01*
X99535585Y-56368430D02*
X99464157Y-56439858D01*
X99464157Y-56439858D02*
X99392728Y-56582716D01*
X99392728Y-56582716D02*
X99392728Y-56939858D01*
X99392728Y-56939858D02*
X99464157Y-57082716D01*
X99464157Y-57082716D02*
X99535585Y-57154144D01*
X99535585Y-57154144D02*
X99678442Y-57225573D01*
X99678442Y-57225573D02*
X99821300Y-57225573D01*
X99821300Y-57225573D02*
X100035585Y-57154144D01*
X100035585Y-57154144D02*
X100892728Y-56297001D01*
X100892728Y-56297001D02*
X100892728Y-57225573D01*
X99392728Y-57725572D02*
X99392728Y-58725572D01*
X99392728Y-58725572D02*
X100892728Y-58082715D01*
X100749871Y-60154143D02*
X100821300Y-60082715D01*
X100821300Y-60082715D02*
X100892728Y-59868429D01*
X100892728Y-59868429D02*
X100892728Y-59725572D01*
X100892728Y-59725572D02*
X100821300Y-59511286D01*
X100821300Y-59511286D02*
X100678442Y-59368429D01*
X100678442Y-59368429D02*
X100535585Y-59297000D01*
X100535585Y-59297000D02*
X100249871Y-59225572D01*
X100249871Y-59225572D02*
X100035585Y-59225572D01*
X100035585Y-59225572D02*
X99749871Y-59297000D01*
X99749871Y-59297000D02*
X99607014Y-59368429D01*
X99607014Y-59368429D02*
X99464157Y-59511286D01*
X99464157Y-59511286D02*
X99392728Y-59725572D01*
X99392728Y-59725572D02*
X99392728Y-59868429D01*
X99392728Y-59868429D02*
X99464157Y-60082715D01*
X99464157Y-60082715D02*
X99535585Y-60154143D01*
X99392728Y-61511286D02*
X99392728Y-60797000D01*
X99392728Y-60797000D02*
X100107014Y-60725572D01*
X100107014Y-60725572D02*
X100035585Y-60797000D01*
X100035585Y-60797000D02*
X99964157Y-60939858D01*
X99964157Y-60939858D02*
X99964157Y-61297000D01*
X99964157Y-61297000D02*
X100035585Y-61439858D01*
X100035585Y-61439858D02*
X100107014Y-61511286D01*
X100107014Y-61511286D02*
X100249871Y-61582715D01*
X100249871Y-61582715D02*
X100607014Y-61582715D01*
X100607014Y-61582715D02*
X100749871Y-61511286D01*
X100749871Y-61511286D02*
X100821300Y-61439858D01*
X100821300Y-61439858D02*
X100892728Y-61297000D01*
X100892728Y-61297000D02*
X100892728Y-60939858D01*
X100892728Y-60939858D02*
X100821300Y-60797000D01*
X100821300Y-60797000D02*
X100749871Y-60725572D01*
X100892728Y-63011286D02*
X100892728Y-62154143D01*
X100892728Y-62582714D02*
X99392728Y-62582714D01*
X99392728Y-62582714D02*
X99607014Y-62439857D01*
X99607014Y-62439857D02*
X99749871Y-62297000D01*
X99749871Y-62297000D02*
X99821300Y-62154143D01*
X99535585Y-63582714D02*
X99464157Y-63654142D01*
X99464157Y-63654142D02*
X99392728Y-63797000D01*
X99392728Y-63797000D02*
X99392728Y-64154142D01*
X99392728Y-64154142D02*
X99464157Y-64297000D01*
X99464157Y-64297000D02*
X99535585Y-64368428D01*
X99535585Y-64368428D02*
X99678442Y-64439857D01*
X99678442Y-64439857D02*
X99821300Y-64439857D01*
X99821300Y-64439857D02*
X100035585Y-64368428D01*
X100035585Y-64368428D02*
X100892728Y-63511285D01*
X100892728Y-63511285D02*
X100892728Y-64439857D01*
D11*
X77443828Y-39100414D02*
X77443828Y-38350414D01*
X77122400Y-39100414D02*
X77122400Y-38707557D01*
X77122400Y-38707557D02*
X77158114Y-38636128D01*
X77158114Y-38636128D02*
X77229542Y-38600414D01*
X77229542Y-38600414D02*
X77336685Y-38600414D01*
X77336685Y-38600414D02*
X77408114Y-38636128D01*
X77408114Y-38636128D02*
X77443828Y-38671842D01*
X76872400Y-38600414D02*
X76586686Y-38600414D01*
X76765257Y-38350414D02*
X76765257Y-38993271D01*
X76765257Y-38993271D02*
X76729543Y-39064700D01*
X76729543Y-39064700D02*
X76658114Y-39100414D01*
X76658114Y-39100414D02*
X76586686Y-39100414D01*
X76443829Y-38600414D02*
X76158115Y-38600414D01*
X76336686Y-38350414D02*
X76336686Y-38993271D01*
X76336686Y-38993271D02*
X76300972Y-39064700D01*
X76300972Y-39064700D02*
X76229543Y-39100414D01*
X76229543Y-39100414D02*
X76158115Y-39100414D01*
X75908115Y-38600414D02*
X75908115Y-39350414D01*
X75908115Y-38636128D02*
X75836687Y-38600414D01*
X75836687Y-38600414D02*
X75693829Y-38600414D01*
X75693829Y-38600414D02*
X75622401Y-38636128D01*
X75622401Y-38636128D02*
X75586687Y-38671842D01*
X75586687Y-38671842D02*
X75550972Y-38743271D01*
X75550972Y-38743271D02*
X75550972Y-38957557D01*
X75550972Y-38957557D02*
X75586687Y-39028985D01*
X75586687Y-39028985D02*
X75622401Y-39064700D01*
X75622401Y-39064700D02*
X75693829Y-39100414D01*
X75693829Y-39100414D02*
X75836687Y-39100414D01*
X75836687Y-39100414D02*
X75908115Y-39064700D01*
X75265258Y-39064700D02*
X75193830Y-39100414D01*
X75193830Y-39100414D02*
X75050973Y-39100414D01*
X75050973Y-39100414D02*
X74979544Y-39064700D01*
X74979544Y-39064700D02*
X74943830Y-38993271D01*
X74943830Y-38993271D02*
X74943830Y-38957557D01*
X74943830Y-38957557D02*
X74979544Y-38886128D01*
X74979544Y-38886128D02*
X75050973Y-38850414D01*
X75050973Y-38850414D02*
X75158116Y-38850414D01*
X75158116Y-38850414D02*
X75229544Y-38814700D01*
X75229544Y-38814700D02*
X75265258Y-38743271D01*
X75265258Y-38743271D02*
X75265258Y-38707557D01*
X75265258Y-38707557D02*
X75229544Y-38636128D01*
X75229544Y-38636128D02*
X75158116Y-38600414D01*
X75158116Y-38600414D02*
X75050973Y-38600414D01*
X75050973Y-38600414D02*
X74979544Y-38636128D01*
X74622401Y-39028985D02*
X74586687Y-39064700D01*
X74586687Y-39064700D02*
X74622401Y-39100414D01*
X74622401Y-39100414D02*
X74658115Y-39064700D01*
X74658115Y-39064700D02*
X74622401Y-39028985D01*
X74622401Y-39028985D02*
X74622401Y-39100414D01*
X74622401Y-38636128D02*
X74586687Y-38671842D01*
X74586687Y-38671842D02*
X74622401Y-38707557D01*
X74622401Y-38707557D02*
X74658115Y-38671842D01*
X74658115Y-38671842D02*
X74622401Y-38636128D01*
X74622401Y-38636128D02*
X74622401Y-38707557D01*
X73729544Y-38314700D02*
X74372401Y-39278985D01*
X72943830Y-38314700D02*
X73586687Y-39278985D01*
X72800973Y-38600414D02*
X72515259Y-38600414D01*
X72693830Y-38350414D02*
X72693830Y-38993271D01*
X72693830Y-38993271D02*
X72658116Y-39064700D01*
X72658116Y-39064700D02*
X72586687Y-39100414D01*
X72586687Y-39100414D02*
X72515259Y-39100414D01*
X72265259Y-39028985D02*
X72229545Y-39064700D01*
X72229545Y-39064700D02*
X72265259Y-39100414D01*
X72265259Y-39100414D02*
X72300973Y-39064700D01*
X72300973Y-39064700D02*
X72265259Y-39028985D01*
X72265259Y-39028985D02*
X72265259Y-39100414D01*
X71908116Y-39100414D02*
X71908116Y-38600414D01*
X71908116Y-38671842D02*
X71872402Y-38636128D01*
X71872402Y-38636128D02*
X71800973Y-38600414D01*
X71800973Y-38600414D02*
X71693830Y-38600414D01*
X71693830Y-38600414D02*
X71622402Y-38636128D01*
X71622402Y-38636128D02*
X71586688Y-38707557D01*
X71586688Y-38707557D02*
X71586688Y-39100414D01*
X71586688Y-38707557D02*
X71550973Y-38636128D01*
X71550973Y-38636128D02*
X71479545Y-38600414D01*
X71479545Y-38600414D02*
X71372402Y-38600414D01*
X71372402Y-38600414D02*
X71300973Y-38636128D01*
X71300973Y-38636128D02*
X71265259Y-38707557D01*
X71265259Y-38707557D02*
X71265259Y-39100414D01*
X70622402Y-39064700D02*
X70693830Y-39100414D01*
X70693830Y-39100414D02*
X70836688Y-39100414D01*
X70836688Y-39100414D02*
X70908116Y-39064700D01*
X70908116Y-39064700D02*
X70943830Y-38993271D01*
X70943830Y-38993271D02*
X70943830Y-38707557D01*
X70943830Y-38707557D02*
X70908116Y-38636128D01*
X70908116Y-38636128D02*
X70836688Y-38600414D01*
X70836688Y-38600414D02*
X70693830Y-38600414D01*
X70693830Y-38600414D02*
X70622402Y-38636128D01*
X70622402Y-38636128D02*
X70586688Y-38707557D01*
X70586688Y-38707557D02*
X70586688Y-38778985D01*
X70586688Y-38778985D02*
X70943830Y-38850414D01*
X69729545Y-38314700D02*
X70372402Y-39278985D01*
X69550974Y-38600414D02*
X69158117Y-38600414D01*
X69158117Y-38600414D02*
X69550974Y-39100414D01*
X69550974Y-39100414D02*
X69158117Y-39100414D01*
X68943831Y-39100414D02*
X68550974Y-38600414D01*
X68943831Y-38600414D02*
X68550974Y-39100414D01*
X68443831Y-39171842D02*
X67872402Y-39171842D01*
X67372402Y-39100414D02*
X67372402Y-38350414D01*
X67372402Y-39064700D02*
X67443830Y-39100414D01*
X67443830Y-39100414D02*
X67586687Y-39100414D01*
X67586687Y-39100414D02*
X67658116Y-39064700D01*
X67658116Y-39064700D02*
X67693830Y-39028985D01*
X67693830Y-39028985D02*
X67729544Y-38957557D01*
X67729544Y-38957557D02*
X67729544Y-38743271D01*
X67729544Y-38743271D02*
X67693830Y-38671842D01*
X67693830Y-38671842D02*
X67658116Y-38636128D01*
X67658116Y-38636128D02*
X67586687Y-38600414D01*
X67586687Y-38600414D02*
X67443830Y-38600414D01*
X67443830Y-38600414D02*
X67372402Y-38636128D01*
X66729545Y-39064700D02*
X66800973Y-39100414D01*
X66800973Y-39100414D02*
X66943831Y-39100414D01*
X66943831Y-39100414D02*
X67015259Y-39064700D01*
X67015259Y-39064700D02*
X67050973Y-38993271D01*
X67050973Y-38993271D02*
X67050973Y-38707557D01*
X67050973Y-38707557D02*
X67015259Y-38636128D01*
X67015259Y-38636128D02*
X66943831Y-38600414D01*
X66943831Y-38600414D02*
X66800973Y-38600414D01*
X66800973Y-38600414D02*
X66729545Y-38636128D01*
X66729545Y-38636128D02*
X66693831Y-38707557D01*
X66693831Y-38707557D02*
X66693831Y-38778985D01*
X66693831Y-38778985D02*
X67050973Y-38850414D01*
X66265259Y-39100414D02*
X66336688Y-39064700D01*
X66336688Y-39064700D02*
X66372402Y-38993271D01*
X66372402Y-38993271D02*
X66372402Y-38350414D01*
X66086688Y-38600414D02*
X65800974Y-38600414D01*
X65979545Y-38350414D02*
X65979545Y-38993271D01*
X65979545Y-38993271D02*
X65943831Y-39064700D01*
X65943831Y-39064700D02*
X65872402Y-39100414D01*
X65872402Y-39100414D02*
X65800974Y-39100414D01*
X65229546Y-39100414D02*
X65229546Y-38707557D01*
X65229546Y-38707557D02*
X65265260Y-38636128D01*
X65265260Y-38636128D02*
X65336688Y-38600414D01*
X65336688Y-38600414D02*
X65479546Y-38600414D01*
X65479546Y-38600414D02*
X65550974Y-38636128D01*
X65229546Y-39064700D02*
X65300974Y-39100414D01*
X65300974Y-39100414D02*
X65479546Y-39100414D01*
X65479546Y-39100414D02*
X65550974Y-39064700D01*
X65550974Y-39064700D02*
X65586688Y-38993271D01*
X65586688Y-38993271D02*
X65586688Y-38921842D01*
X65586688Y-38921842D02*
X65550974Y-38850414D01*
X65550974Y-38850414D02*
X65479546Y-38814700D01*
X65479546Y-38814700D02*
X65300974Y-38814700D01*
X65300974Y-38814700D02*
X65229546Y-38778985D01*
X65050975Y-39171842D02*
X64479546Y-39171842D01*
X64336688Y-39064700D02*
X64265260Y-39100414D01*
X64265260Y-39100414D02*
X64122403Y-39100414D01*
X64122403Y-39100414D02*
X64050974Y-39064700D01*
X64050974Y-39064700D02*
X64015260Y-38993271D01*
X64015260Y-38993271D02*
X64015260Y-38957557D01*
X64015260Y-38957557D02*
X64050974Y-38886128D01*
X64050974Y-38886128D02*
X64122403Y-38850414D01*
X64122403Y-38850414D02*
X64229546Y-38850414D01*
X64229546Y-38850414D02*
X64300974Y-38814700D01*
X64300974Y-38814700D02*
X64336688Y-38743271D01*
X64336688Y-38743271D02*
X64336688Y-38707557D01*
X64336688Y-38707557D02*
X64300974Y-38636128D01*
X64300974Y-38636128D02*
X64229546Y-38600414D01*
X64229546Y-38600414D02*
X64122403Y-38600414D01*
X64122403Y-38600414D02*
X64050974Y-38636128D01*
D12*
X68708228Y-51823172D02*
X69922514Y-51823172D01*
X69922514Y-51823172D02*
X70065371Y-51894601D01*
X70065371Y-51894601D02*
X70136800Y-51966030D01*
X70136800Y-51966030D02*
X70208228Y-52108887D01*
X70208228Y-52108887D02*
X70208228Y-52394601D01*
X70208228Y-52394601D02*
X70136800Y-52537458D01*
X70136800Y-52537458D02*
X70065371Y-52608887D01*
X70065371Y-52608887D02*
X69922514Y-52680315D01*
X69922514Y-52680315D02*
X68708228Y-52680315D01*
X70136800Y-53323173D02*
X70208228Y-53466030D01*
X70208228Y-53466030D02*
X70208228Y-53751744D01*
X70208228Y-53751744D02*
X70136800Y-53894601D01*
X70136800Y-53894601D02*
X69993942Y-53966030D01*
X69993942Y-53966030D02*
X69922514Y-53966030D01*
X69922514Y-53966030D02*
X69779657Y-53894601D01*
X69779657Y-53894601D02*
X69708228Y-53751744D01*
X69708228Y-53751744D02*
X69708228Y-53537459D01*
X69708228Y-53537459D02*
X69636800Y-53394601D01*
X69636800Y-53394601D02*
X69493942Y-53323173D01*
X69493942Y-53323173D02*
X69422514Y-53323173D01*
X69422514Y-53323173D02*
X69279657Y-53394601D01*
X69279657Y-53394601D02*
X69208228Y-53537459D01*
X69208228Y-53537459D02*
X69208228Y-53751744D01*
X69208228Y-53751744D02*
X69279657Y-53894601D01*
X70136800Y-55180316D02*
X70208228Y-55037459D01*
X70208228Y-55037459D02*
X70208228Y-54751745D01*
X70208228Y-54751745D02*
X70136800Y-54608887D01*
X70136800Y-54608887D02*
X69993942Y-54537459D01*
X69993942Y-54537459D02*
X69422514Y-54537459D01*
X69422514Y-54537459D02*
X69279657Y-54608887D01*
X69279657Y-54608887D02*
X69208228Y-54751745D01*
X69208228Y-54751745D02*
X69208228Y-55037459D01*
X69208228Y-55037459D02*
X69279657Y-55180316D01*
X69279657Y-55180316D02*
X69422514Y-55251745D01*
X69422514Y-55251745D02*
X69565371Y-55251745D01*
X69565371Y-55251745D02*
X69708228Y-54537459D01*
X68851085Y-56966030D02*
X68779657Y-57037458D01*
X68779657Y-57037458D02*
X68708228Y-57180316D01*
X68708228Y-57180316D02*
X68708228Y-57537458D01*
X68708228Y-57537458D02*
X68779657Y-57680316D01*
X68779657Y-57680316D02*
X68851085Y-57751744D01*
X68851085Y-57751744D02*
X68993942Y-57823173D01*
X68993942Y-57823173D02*
X69136800Y-57823173D01*
X69136800Y-57823173D02*
X69351085Y-57751744D01*
X69351085Y-57751744D02*
X70208228Y-56894601D01*
X70208228Y-56894601D02*
X70208228Y-57823173D01*
X68708228Y-58323172D02*
X68708228Y-59323172D01*
X68708228Y-59323172D02*
X70208228Y-58680315D01*
X70065371Y-60751743D02*
X70136800Y-60680315D01*
X70136800Y-60680315D02*
X70208228Y-60466029D01*
X70208228Y-60466029D02*
X70208228Y-60323172D01*
X70208228Y-60323172D02*
X70136800Y-60108886D01*
X70136800Y-60108886D02*
X69993942Y-59966029D01*
X69993942Y-59966029D02*
X69851085Y-59894600D01*
X69851085Y-59894600D02*
X69565371Y-59823172D01*
X69565371Y-59823172D02*
X69351085Y-59823172D01*
X69351085Y-59823172D02*
X69065371Y-59894600D01*
X69065371Y-59894600D02*
X68922514Y-59966029D01*
X68922514Y-59966029D02*
X68779657Y-60108886D01*
X68779657Y-60108886D02*
X68708228Y-60323172D01*
X68708228Y-60323172D02*
X68708228Y-60466029D01*
X68708228Y-60466029D02*
X68779657Y-60680315D01*
X68779657Y-60680315D02*
X68851085Y-60751743D01*
X68708228Y-62108886D02*
X68708228Y-61394600D01*
X68708228Y-61394600D02*
X69422514Y-61323172D01*
X69422514Y-61323172D02*
X69351085Y-61394600D01*
X69351085Y-61394600D02*
X69279657Y-61537458D01*
X69279657Y-61537458D02*
X69279657Y-61894600D01*
X69279657Y-61894600D02*
X69351085Y-62037458D01*
X69351085Y-62037458D02*
X69422514Y-62108886D01*
X69422514Y-62108886D02*
X69565371Y-62180315D01*
X69565371Y-62180315D02*
X69922514Y-62180315D01*
X69922514Y-62180315D02*
X70065371Y-62108886D01*
X70065371Y-62108886D02*
X70136800Y-62037458D01*
X70136800Y-62037458D02*
X70208228Y-61894600D01*
X70208228Y-61894600D02*
X70208228Y-61537458D01*
X70208228Y-61537458D02*
X70136800Y-61394600D01*
X70136800Y-61394600D02*
X70065371Y-61323172D01*
X70208228Y-63608886D02*
X70208228Y-62751743D01*
X70208228Y-63180314D02*
X68708228Y-63180314D01*
X68708228Y-63180314D02*
X68922514Y-63037457D01*
X68922514Y-63037457D02*
X69065371Y-62894600D01*
X69065371Y-62894600D02*
X69136800Y-62751743D01*
X68851085Y-64180314D02*
X68779657Y-64251742D01*
X68779657Y-64251742D02*
X68708228Y-64394600D01*
X68708228Y-64394600D02*
X68708228Y-64751742D01*
X68708228Y-64751742D02*
X68779657Y-64894600D01*
X68779657Y-64894600D02*
X68851085Y-64966028D01*
X68851085Y-64966028D02*
X68993942Y-65037457D01*
X68993942Y-65037457D02*
X69136800Y-65037457D01*
X69136800Y-65037457D02*
X69351085Y-64966028D01*
X69351085Y-64966028D02*
X70208228Y-64108885D01*
X70208228Y-64108885D02*
X70208228Y-65037457D01*
X72638228Y-51858887D02*
X71852514Y-51858887D01*
X71852514Y-51858887D02*
X71709657Y-51787458D01*
X71709657Y-51787458D02*
X71638228Y-51644601D01*
X71638228Y-51644601D02*
X71638228Y-51358887D01*
X71638228Y-51358887D02*
X71709657Y-51216029D01*
X72566800Y-51858887D02*
X72638228Y-51716029D01*
X72638228Y-51716029D02*
X72638228Y-51358887D01*
X72638228Y-51358887D02*
X72566800Y-51216029D01*
X72566800Y-51216029D02*
X72423942Y-51144601D01*
X72423942Y-51144601D02*
X72281085Y-51144601D01*
X72281085Y-51144601D02*
X72138228Y-51216029D01*
X72138228Y-51216029D02*
X72066800Y-51358887D01*
X72066800Y-51358887D02*
X72066800Y-51716029D01*
X72066800Y-51716029D02*
X71995371Y-51858887D01*
X72566800Y-52501744D02*
X72638228Y-52644601D01*
X72638228Y-52644601D02*
X72638228Y-52930315D01*
X72638228Y-52930315D02*
X72566800Y-53073172D01*
X72566800Y-53073172D02*
X72423942Y-53144601D01*
X72423942Y-53144601D02*
X72352514Y-53144601D01*
X72352514Y-53144601D02*
X72209657Y-53073172D01*
X72209657Y-53073172D02*
X72138228Y-52930315D01*
X72138228Y-52930315D02*
X72138228Y-52716030D01*
X72138228Y-52716030D02*
X72066800Y-52573172D01*
X72066800Y-52573172D02*
X71923942Y-52501744D01*
X71923942Y-52501744D02*
X71852514Y-52501744D01*
X71852514Y-52501744D02*
X71709657Y-52573172D01*
X71709657Y-52573172D02*
X71638228Y-52716030D01*
X71638228Y-52716030D02*
X71638228Y-52930315D01*
X71638228Y-52930315D02*
X71709657Y-53073172D01*
X72638228Y-54930315D02*
X71138228Y-54930315D01*
X72638228Y-55787458D02*
X71781085Y-55144601D01*
X71138228Y-55787458D02*
X71995371Y-54930315D01*
X72638228Y-56430315D02*
X71138228Y-56430315D01*
X71138228Y-56430315D02*
X71138228Y-57001744D01*
X71138228Y-57001744D02*
X71209657Y-57144601D01*
X71209657Y-57144601D02*
X71281085Y-57216030D01*
X71281085Y-57216030D02*
X71423942Y-57287458D01*
X71423942Y-57287458D02*
X71638228Y-57287458D01*
X71638228Y-57287458D02*
X71781085Y-57216030D01*
X71781085Y-57216030D02*
X71852514Y-57144601D01*
X71852514Y-57144601D02*
X71923942Y-57001744D01*
X71923942Y-57001744D02*
X71923942Y-56430315D01*
X71138228Y-58644601D02*
X71138228Y-57930315D01*
X71138228Y-57930315D02*
X71852514Y-57858887D01*
X71852514Y-57858887D02*
X71781085Y-57930315D01*
X71781085Y-57930315D02*
X71709657Y-58073173D01*
X71709657Y-58073173D02*
X71709657Y-58430315D01*
X71709657Y-58430315D02*
X71781085Y-58573173D01*
X71781085Y-58573173D02*
X71852514Y-58644601D01*
X71852514Y-58644601D02*
X71995371Y-58716030D01*
X71995371Y-58716030D02*
X72352514Y-58716030D01*
X72352514Y-58716030D02*
X72495371Y-58644601D01*
X72495371Y-58644601D02*
X72566800Y-58573173D01*
X72566800Y-58573173D02*
X72638228Y-58430315D01*
X72638228Y-58430315D02*
X72638228Y-58073173D01*
X72638228Y-58073173D02*
X72566800Y-57930315D01*
X72566800Y-57930315D02*
X72495371Y-57858887D01*
X71138228Y-60073172D02*
X71138228Y-59358886D01*
X71138228Y-59358886D02*
X71852514Y-59287458D01*
X71852514Y-59287458D02*
X71781085Y-59358886D01*
X71781085Y-59358886D02*
X71709657Y-59501744D01*
X71709657Y-59501744D02*
X71709657Y-59858886D01*
X71709657Y-59858886D02*
X71781085Y-60001744D01*
X71781085Y-60001744D02*
X71852514Y-60073172D01*
X71852514Y-60073172D02*
X71995371Y-60144601D01*
X71995371Y-60144601D02*
X72352514Y-60144601D01*
X72352514Y-60144601D02*
X72495371Y-60073172D01*
X72495371Y-60073172D02*
X72566800Y-60001744D01*
X72566800Y-60001744D02*
X72638228Y-59858886D01*
X72638228Y-59858886D02*
X72638228Y-59501744D01*
X72638228Y-59501744D02*
X72566800Y-59358886D01*
X72566800Y-59358886D02*
X72495371Y-59287458D01*
X71138228Y-61430315D02*
X71138228Y-61144600D01*
X71138228Y-61144600D02*
X71209657Y-61001743D01*
X71209657Y-61001743D02*
X71281085Y-60930315D01*
X71281085Y-60930315D02*
X71495371Y-60787457D01*
X71495371Y-60787457D02*
X71781085Y-60716029D01*
X71781085Y-60716029D02*
X72352514Y-60716029D01*
X72352514Y-60716029D02*
X72495371Y-60787457D01*
X72495371Y-60787457D02*
X72566800Y-60858886D01*
X72566800Y-60858886D02*
X72638228Y-61001743D01*
X72638228Y-61001743D02*
X72638228Y-61287457D01*
X72638228Y-61287457D02*
X72566800Y-61430315D01*
X72566800Y-61430315D02*
X72495371Y-61501743D01*
X72495371Y-61501743D02*
X72352514Y-61573172D01*
X72352514Y-61573172D02*
X71995371Y-61573172D01*
X71995371Y-61573172D02*
X71852514Y-61501743D01*
X71852514Y-61501743D02*
X71781085Y-61430315D01*
X71781085Y-61430315D02*
X71709657Y-61287457D01*
X71709657Y-61287457D02*
X71709657Y-61001743D01*
X71709657Y-61001743D02*
X71781085Y-60858886D01*
X71781085Y-60858886D02*
X71852514Y-60787457D01*
X71852514Y-60787457D02*
X71995371Y-60716029D01*
X72638228Y-62216028D02*
X71138228Y-62216028D01*
X71138228Y-62216028D02*
X71138228Y-62787457D01*
X71138228Y-62787457D02*
X71209657Y-62930314D01*
X71209657Y-62930314D02*
X71281085Y-63001743D01*
X71281085Y-63001743D02*
X71423942Y-63073171D01*
X71423942Y-63073171D02*
X71638228Y-63073171D01*
X71638228Y-63073171D02*
X71781085Y-63001743D01*
X71781085Y-63001743D02*
X71852514Y-62930314D01*
X71852514Y-62930314D02*
X71923942Y-62787457D01*
X71923942Y-62787457D02*
X71923942Y-62216028D01*
X71138228Y-63501743D02*
X71138228Y-64358886D01*
X72638228Y-63930314D02*
X71138228Y-63930314D01*
X71281085Y-64787457D02*
X71209657Y-64858885D01*
X71209657Y-64858885D02*
X71138228Y-65001743D01*
X71138228Y-65001743D02*
X71138228Y-65358885D01*
X71138228Y-65358885D02*
X71209657Y-65501743D01*
X71209657Y-65501743D02*
X71281085Y-65573171D01*
X71281085Y-65573171D02*
X71423942Y-65644600D01*
X71423942Y-65644600D02*
X71566800Y-65644600D01*
X71566800Y-65644600D02*
X71781085Y-65573171D01*
X71781085Y-65573171D02*
X72638228Y-64716028D01*
X72638228Y-64716028D02*
X72638228Y-65644600D01*
D13*
%TO.C,U2*%
X76611511Y-76970269D02*
X76611511Y-75970269D01*
X76040083Y-76970269D02*
X76468654Y-76398840D01*
X76040083Y-75970269D02*
X76611511Y-76541697D01*
X75611511Y-76970269D02*
X75611511Y-75970269D01*
X75611511Y-75970269D02*
X75230559Y-75970269D01*
X75230559Y-75970269D02*
X75135321Y-76017888D01*
X75135321Y-76017888D02*
X75087702Y-76065507D01*
X75087702Y-76065507D02*
X75040083Y-76160745D01*
X75040083Y-76160745D02*
X75040083Y-76303602D01*
X75040083Y-76303602D02*
X75087702Y-76398840D01*
X75087702Y-76398840D02*
X75135321Y-76446459D01*
X75135321Y-76446459D02*
X75230559Y-76494078D01*
X75230559Y-76494078D02*
X75611511Y-76494078D01*
X74135321Y-75970269D02*
X74611511Y-75970269D01*
X74611511Y-75970269D02*
X74659130Y-76446459D01*
X74659130Y-76446459D02*
X74611511Y-76398840D01*
X74611511Y-76398840D02*
X74516273Y-76351221D01*
X74516273Y-76351221D02*
X74278178Y-76351221D01*
X74278178Y-76351221D02*
X74182940Y-76398840D01*
X74182940Y-76398840D02*
X74135321Y-76446459D01*
X74135321Y-76446459D02*
X74087702Y-76541697D01*
X74087702Y-76541697D02*
X74087702Y-76779792D01*
X74087702Y-76779792D02*
X74135321Y-76875030D01*
X74135321Y-76875030D02*
X74182940Y-76922650D01*
X74182940Y-76922650D02*
X74278178Y-76970269D01*
X74278178Y-76970269D02*
X74516273Y-76970269D01*
X74516273Y-76970269D02*
X74611511Y-76922650D01*
X74611511Y-76922650D02*
X74659130Y-76875030D01*
X73182940Y-75970269D02*
X73659130Y-75970269D01*
X73659130Y-75970269D02*
X73706749Y-76446459D01*
X73706749Y-76446459D02*
X73659130Y-76398840D01*
X73659130Y-76398840D02*
X73563892Y-76351221D01*
X73563892Y-76351221D02*
X73325797Y-76351221D01*
X73325797Y-76351221D02*
X73230559Y-76398840D01*
X73230559Y-76398840D02*
X73182940Y-76446459D01*
X73182940Y-76446459D02*
X73135321Y-76541697D01*
X73135321Y-76541697D02*
X73135321Y-76779792D01*
X73135321Y-76779792D02*
X73182940Y-76875030D01*
X73182940Y-76875030D02*
X73230559Y-76922650D01*
X73230559Y-76922650D02*
X73325797Y-76970269D01*
X73325797Y-76970269D02*
X73563892Y-76970269D01*
X73563892Y-76970269D02*
X73659130Y-76922650D01*
X73659130Y-76922650D02*
X73706749Y-76875030D01*
X72278178Y-75970269D02*
X72468654Y-75970269D01*
X72468654Y-75970269D02*
X72563892Y-76017888D01*
X72563892Y-76017888D02*
X72611511Y-76065507D01*
X72611511Y-76065507D02*
X72706749Y-76208364D01*
X72706749Y-76208364D02*
X72754368Y-76398840D01*
X72754368Y-76398840D02*
X72754368Y-76779792D01*
X72754368Y-76779792D02*
X72706749Y-76875030D01*
X72706749Y-76875030D02*
X72659130Y-76922650D01*
X72659130Y-76922650D02*
X72563892Y-76970269D01*
X72563892Y-76970269D02*
X72373416Y-76970269D01*
X72373416Y-76970269D02*
X72278178Y-76922650D01*
X72278178Y-76922650D02*
X72230559Y-76875030D01*
X72230559Y-76875030D02*
X72182940Y-76779792D01*
X72182940Y-76779792D02*
X72182940Y-76541697D01*
X72182940Y-76541697D02*
X72230559Y-76446459D01*
X72230559Y-76446459D02*
X72278178Y-76398840D01*
X72278178Y-76398840D02*
X72373416Y-76351221D01*
X72373416Y-76351221D02*
X72563892Y-76351221D01*
X72563892Y-76351221D02*
X72659130Y-76398840D01*
X72659130Y-76398840D02*
X72706749Y-76446459D01*
X72706749Y-76446459D02*
X72754368Y-76541697D01*
X71754368Y-76970269D02*
X71754368Y-75970269D01*
X71754368Y-75970269D02*
X71373416Y-75970269D01*
X71373416Y-75970269D02*
X71278178Y-76017888D01*
X71278178Y-76017888D02*
X71230559Y-76065507D01*
X71230559Y-76065507D02*
X71182940Y-76160745D01*
X71182940Y-76160745D02*
X71182940Y-76303602D01*
X71182940Y-76303602D02*
X71230559Y-76398840D01*
X71230559Y-76398840D02*
X71278178Y-76446459D01*
X71278178Y-76446459D02*
X71373416Y-76494078D01*
X71373416Y-76494078D02*
X71754368Y-76494078D01*
X70897225Y-75970269D02*
X70325797Y-75970269D01*
X70611511Y-76970269D02*
X70611511Y-75970269D01*
X70040082Y-76065507D02*
X69992463Y-76017888D01*
X69992463Y-76017888D02*
X69897225Y-75970269D01*
X69897225Y-75970269D02*
X69659130Y-75970269D01*
X69659130Y-75970269D02*
X69563892Y-76017888D01*
X69563892Y-76017888D02*
X69516273Y-76065507D01*
X69516273Y-76065507D02*
X69468654Y-76160745D01*
X69468654Y-76160745D02*
X69468654Y-76255983D01*
X69468654Y-76255983D02*
X69516273Y-76398840D01*
X69516273Y-76398840D02*
X70087701Y-76970269D01*
X70087701Y-76970269D02*
X69468654Y-76970269D01*
%TO.C,U4*%
X103579275Y-76113457D02*
X103531656Y-76065838D01*
X103531656Y-76065838D02*
X103436418Y-76018219D01*
X103436418Y-76018219D02*
X103198323Y-76018219D01*
X103198323Y-76018219D02*
X103103085Y-76065838D01*
X103103085Y-76065838D02*
X103055466Y-76113457D01*
X103055466Y-76113457D02*
X103007847Y-76208695D01*
X103007847Y-76208695D02*
X103007847Y-76303933D01*
X103007847Y-76303933D02*
X103055466Y-76446790D01*
X103055466Y-76446790D02*
X103626894Y-77018219D01*
X103626894Y-77018219D02*
X103007847Y-77018219D01*
X102674513Y-76018219D02*
X102007847Y-76018219D01*
X102007847Y-76018219D02*
X102436418Y-77018219D01*
X101055466Y-76922980D02*
X101103085Y-76970600D01*
X101103085Y-76970600D02*
X101245942Y-77018219D01*
X101245942Y-77018219D02*
X101341180Y-77018219D01*
X101341180Y-77018219D02*
X101484037Y-76970600D01*
X101484037Y-76970600D02*
X101579275Y-76875361D01*
X101579275Y-76875361D02*
X101626894Y-76780123D01*
X101626894Y-76780123D02*
X101674513Y-76589647D01*
X101674513Y-76589647D02*
X101674513Y-76446790D01*
X101674513Y-76446790D02*
X101626894Y-76256314D01*
X101626894Y-76256314D02*
X101579275Y-76161076D01*
X101579275Y-76161076D02*
X101484037Y-76065838D01*
X101484037Y-76065838D02*
X101341180Y-76018219D01*
X101341180Y-76018219D02*
X101245942Y-76018219D01*
X101245942Y-76018219D02*
X101103085Y-76065838D01*
X101103085Y-76065838D02*
X101055466Y-76113457D01*
X100150704Y-76018219D02*
X100626894Y-76018219D01*
X100626894Y-76018219D02*
X100674513Y-76494409D01*
X100674513Y-76494409D02*
X100626894Y-76446790D01*
X100626894Y-76446790D02*
X100531656Y-76399171D01*
X100531656Y-76399171D02*
X100293561Y-76399171D01*
X100293561Y-76399171D02*
X100198323Y-76446790D01*
X100198323Y-76446790D02*
X100150704Y-76494409D01*
X100150704Y-76494409D02*
X100103085Y-76589647D01*
X100103085Y-76589647D02*
X100103085Y-76827742D01*
X100103085Y-76827742D02*
X100150704Y-76922980D01*
X100150704Y-76922980D02*
X100198323Y-76970600D01*
X100198323Y-76970600D02*
X100293561Y-77018219D01*
X100293561Y-77018219D02*
X100531656Y-77018219D01*
X100531656Y-77018219D02*
X100626894Y-76970600D01*
X100626894Y-76970600D02*
X100674513Y-76922980D01*
X99150704Y-77018219D02*
X99722132Y-77018219D01*
X99436418Y-77018219D02*
X99436418Y-76018219D01*
X99436418Y-76018219D02*
X99531656Y-76161076D01*
X99531656Y-76161076D02*
X99626894Y-76256314D01*
X99626894Y-76256314D02*
X99722132Y-76303933D01*
X98769751Y-76113457D02*
X98722132Y-76065838D01*
X98722132Y-76065838D02*
X98626894Y-76018219D01*
X98626894Y-76018219D02*
X98388799Y-76018219D01*
X98388799Y-76018219D02*
X98293561Y-76065838D01*
X98293561Y-76065838D02*
X98245942Y-76113457D01*
X98245942Y-76113457D02*
X98198323Y-76208695D01*
X98198323Y-76208695D02*
X98198323Y-76303933D01*
X98198323Y-76303933D02*
X98245942Y-76446790D01*
X98245942Y-76446790D02*
X98817370Y-77018219D01*
X98817370Y-77018219D02*
X98198323Y-77018219D01*
D14*
%TO.C,U2*%
X66476893Y-39805850D02*
X66476893Y-75485850D01*
X66476893Y-75485850D02*
X79396893Y-75485850D01*
X71936893Y-39805850D02*
X66476893Y-39805850D01*
X79396893Y-39805850D02*
X73936893Y-39805850D01*
X79396893Y-75485850D02*
X79396893Y-39805850D01*
D15*
X66476893Y-39805850D02*
X64199293Y-39805850D01*
X64199293Y-39805850D02*
X64199293Y-75476650D01*
X64199293Y-75476650D02*
X66476893Y-75476650D01*
X66476893Y-75476650D02*
X66476893Y-39805850D01*
X81674493Y-39815050D02*
X79396893Y-39815050D01*
X79396893Y-39815050D02*
X79396893Y-75485850D01*
X79396893Y-75485850D02*
X81674493Y-75485850D01*
X81674493Y-75485850D02*
X81674493Y-39815050D01*
D14*
X71936893Y-39805850D02*
G75*
G03*
X73936893Y-39805850I1000000J0D01*
G01*
%TO.C,U4*%
X94606600Y-39818000D02*
X94606600Y-75498000D01*
X94606600Y-75498000D02*
X107526600Y-75498000D01*
X100066600Y-39818000D02*
X94606600Y-39818000D01*
X107526600Y-39818000D02*
X102066600Y-39818000D01*
X107526600Y-75498000D02*
X107526600Y-39818000D01*
D15*
X92430600Y-39801800D02*
X94589600Y-39801800D01*
X94589600Y-39801800D02*
X94589600Y-75514200D01*
X94589600Y-75514200D02*
X92430600Y-75514200D01*
X92430600Y-75514200D02*
X92430600Y-39801800D01*
X107543600Y-39801800D02*
X109702600Y-39801800D01*
X109702600Y-39801800D02*
X109702600Y-75514200D01*
X109702600Y-75514200D02*
X107543600Y-75514200D01*
X107543600Y-75514200D02*
X107543600Y-39801800D01*
D14*
X100066600Y-39818000D02*
G75*
G03*
X102066600Y-39818000I1000000J0D01*
G01*
%TD*%
M02*
