%TF.GenerationSoftware,KiCad,Pcbnew,7.0.1*%
%TF.CreationDate,2023-07-22T01:46:55+03:00*%
%TF.ProjectId,kr556rt2,6b723535-3672-4743-922e-6b696361645f,rev?*%
%TF.SameCoordinates,Original*%
%TF.FileFunction,Legend,Top*%
%TF.FilePolarity,Positive*%
%FSLAX46Y46*%
G04 Gerber Fmt 4.6, Leading zero omitted, Abs format (unit mm)*
G04 Created by KiCad (PCBNEW 7.0.1) date 2023-07-22 01:46:55*
%MOMM*%
%LPD*%
G01*
G04 APERTURE LIST*
%ADD10C,0.522740*%
%ADD11C,0.300000*%
%ADD12C,0.093750*%
%ADD13C,0.150000*%
%ADD14C,0.120000*%
%ADD15C,0.100000*%
G04 APERTURE END LIST*
D10*
X59697370Y-41148000D02*
G75*
G03*
X59697370Y-41148000I-261370J0D01*
G01*
X87408770Y-41173400D02*
G75*
G03*
X87408770Y-41173400I-261370J0D01*
G01*
D11*
X86858457Y-75811828D02*
X87715600Y-75811828D01*
X87287028Y-77311828D02*
X87287028Y-75811828D01*
X88429885Y-77311828D02*
X88287028Y-77240400D01*
X88287028Y-77240400D02*
X88215599Y-77168971D01*
X88215599Y-77168971D02*
X88144171Y-77026114D01*
X88144171Y-77026114D02*
X88144171Y-76597542D01*
X88144171Y-76597542D02*
X88215599Y-76454685D01*
X88215599Y-76454685D02*
X88287028Y-76383257D01*
X88287028Y-76383257D02*
X88429885Y-76311828D01*
X88429885Y-76311828D02*
X88644171Y-76311828D01*
X88644171Y-76311828D02*
X88787028Y-76383257D01*
X88787028Y-76383257D02*
X88858457Y-76454685D01*
X88858457Y-76454685D02*
X88929885Y-76597542D01*
X88929885Y-76597542D02*
X88929885Y-77026114D01*
X88929885Y-77026114D02*
X88858457Y-77168971D01*
X88858457Y-77168971D02*
X88787028Y-77240400D01*
X88787028Y-77240400D02*
X88644171Y-77311828D01*
X88644171Y-77311828D02*
X88429885Y-77311828D01*
X89572742Y-76311828D02*
X89572742Y-77811828D01*
X89572742Y-76383257D02*
X89715600Y-76311828D01*
X89715600Y-76311828D02*
X90001314Y-76311828D01*
X90001314Y-76311828D02*
X90144171Y-76383257D01*
X90144171Y-76383257D02*
X90215600Y-76454685D01*
X90215600Y-76454685D02*
X90287028Y-76597542D01*
X90287028Y-76597542D02*
X90287028Y-77026114D01*
X90287028Y-77026114D02*
X90215600Y-77168971D01*
X90215600Y-77168971D02*
X90144171Y-77240400D01*
X90144171Y-77240400D02*
X90001314Y-77311828D01*
X90001314Y-77311828D02*
X89715600Y-77311828D01*
X89715600Y-77311828D02*
X89572742Y-77240400D01*
X59020057Y-75710228D02*
X59877200Y-75710228D01*
X59448628Y-77210228D02*
X59448628Y-75710228D01*
X60591485Y-77210228D02*
X60448628Y-77138800D01*
X60448628Y-77138800D02*
X60377199Y-77067371D01*
X60377199Y-77067371D02*
X60305771Y-76924514D01*
X60305771Y-76924514D02*
X60305771Y-76495942D01*
X60305771Y-76495942D02*
X60377199Y-76353085D01*
X60377199Y-76353085D02*
X60448628Y-76281657D01*
X60448628Y-76281657D02*
X60591485Y-76210228D01*
X60591485Y-76210228D02*
X60805771Y-76210228D01*
X60805771Y-76210228D02*
X60948628Y-76281657D01*
X60948628Y-76281657D02*
X61020057Y-76353085D01*
X61020057Y-76353085D02*
X61091485Y-76495942D01*
X61091485Y-76495942D02*
X61091485Y-76924514D01*
X61091485Y-76924514D02*
X61020057Y-77067371D01*
X61020057Y-77067371D02*
X60948628Y-77138800D01*
X60948628Y-77138800D02*
X60805771Y-77210228D01*
X60805771Y-77210228D02*
X60591485Y-77210228D01*
X61734342Y-76210228D02*
X61734342Y-77710228D01*
X61734342Y-76281657D02*
X61877200Y-76210228D01*
X61877200Y-76210228D02*
X62162914Y-76210228D01*
X62162914Y-76210228D02*
X62305771Y-76281657D01*
X62305771Y-76281657D02*
X62377200Y-76353085D01*
X62377200Y-76353085D02*
X62448628Y-76495942D01*
X62448628Y-76495942D02*
X62448628Y-76924514D01*
X62448628Y-76924514D02*
X62377200Y-77067371D01*
X62377200Y-77067371D02*
X62305771Y-77138800D01*
X62305771Y-77138800D02*
X62162914Y-77210228D01*
X62162914Y-77210228D02*
X61877200Y-77210228D01*
X61877200Y-77210228D02*
X61734342Y-77138800D01*
D12*
X59764514Y-74751428D02*
X59014514Y-74751428D01*
X59764514Y-74430000D02*
X59371657Y-74430000D01*
X59371657Y-74430000D02*
X59300228Y-74465714D01*
X59300228Y-74465714D02*
X59264514Y-74537142D01*
X59264514Y-74537142D02*
X59264514Y-74644285D01*
X59264514Y-74644285D02*
X59300228Y-74715714D01*
X59300228Y-74715714D02*
X59335942Y-74751428D01*
X59264514Y-74180000D02*
X59264514Y-73894286D01*
X59014514Y-74072857D02*
X59657371Y-74072857D01*
X59657371Y-74072857D02*
X59728800Y-74037143D01*
X59728800Y-74037143D02*
X59764514Y-73965714D01*
X59764514Y-73965714D02*
X59764514Y-73894286D01*
X59264514Y-73751429D02*
X59264514Y-73465715D01*
X59014514Y-73644286D02*
X59657371Y-73644286D01*
X59657371Y-73644286D02*
X59728800Y-73608572D01*
X59728800Y-73608572D02*
X59764514Y-73537143D01*
X59764514Y-73537143D02*
X59764514Y-73465715D01*
X59264514Y-73215715D02*
X60014514Y-73215715D01*
X59300228Y-73215715D02*
X59264514Y-73144287D01*
X59264514Y-73144287D02*
X59264514Y-73001429D01*
X59264514Y-73001429D02*
X59300228Y-72930001D01*
X59300228Y-72930001D02*
X59335942Y-72894287D01*
X59335942Y-72894287D02*
X59407371Y-72858572D01*
X59407371Y-72858572D02*
X59621657Y-72858572D01*
X59621657Y-72858572D02*
X59693085Y-72894287D01*
X59693085Y-72894287D02*
X59728800Y-72930001D01*
X59728800Y-72930001D02*
X59764514Y-73001429D01*
X59764514Y-73001429D02*
X59764514Y-73144287D01*
X59764514Y-73144287D02*
X59728800Y-73215715D01*
X59728800Y-72572858D02*
X59764514Y-72501430D01*
X59764514Y-72501430D02*
X59764514Y-72358573D01*
X59764514Y-72358573D02*
X59728800Y-72287144D01*
X59728800Y-72287144D02*
X59657371Y-72251430D01*
X59657371Y-72251430D02*
X59621657Y-72251430D01*
X59621657Y-72251430D02*
X59550228Y-72287144D01*
X59550228Y-72287144D02*
X59514514Y-72358573D01*
X59514514Y-72358573D02*
X59514514Y-72465716D01*
X59514514Y-72465716D02*
X59478800Y-72537144D01*
X59478800Y-72537144D02*
X59407371Y-72572858D01*
X59407371Y-72572858D02*
X59371657Y-72572858D01*
X59371657Y-72572858D02*
X59300228Y-72537144D01*
X59300228Y-72537144D02*
X59264514Y-72465716D01*
X59264514Y-72465716D02*
X59264514Y-72358573D01*
X59264514Y-72358573D02*
X59300228Y-72287144D01*
X59693085Y-71930001D02*
X59728800Y-71894287D01*
X59728800Y-71894287D02*
X59764514Y-71930001D01*
X59764514Y-71930001D02*
X59728800Y-71965715D01*
X59728800Y-71965715D02*
X59693085Y-71930001D01*
X59693085Y-71930001D02*
X59764514Y-71930001D01*
X59300228Y-71930001D02*
X59335942Y-71894287D01*
X59335942Y-71894287D02*
X59371657Y-71930001D01*
X59371657Y-71930001D02*
X59335942Y-71965715D01*
X59335942Y-71965715D02*
X59300228Y-71930001D01*
X59300228Y-71930001D02*
X59371657Y-71930001D01*
X58978800Y-71037144D02*
X59943085Y-71680001D01*
X58978800Y-70251430D02*
X59943085Y-70894287D01*
X59264514Y-69680002D02*
X59871657Y-69680002D01*
X59871657Y-69680002D02*
X59943085Y-69715716D01*
X59943085Y-69715716D02*
X59978800Y-69751430D01*
X59978800Y-69751430D02*
X60014514Y-69822859D01*
X60014514Y-69822859D02*
X60014514Y-69930002D01*
X60014514Y-69930002D02*
X59978800Y-70001430D01*
X59728800Y-69680002D02*
X59764514Y-69751430D01*
X59764514Y-69751430D02*
X59764514Y-69894287D01*
X59764514Y-69894287D02*
X59728800Y-69965716D01*
X59728800Y-69965716D02*
X59693085Y-70001430D01*
X59693085Y-70001430D02*
X59621657Y-70037144D01*
X59621657Y-70037144D02*
X59407371Y-70037144D01*
X59407371Y-70037144D02*
X59335942Y-70001430D01*
X59335942Y-70001430D02*
X59300228Y-69965716D01*
X59300228Y-69965716D02*
X59264514Y-69894287D01*
X59264514Y-69894287D02*
X59264514Y-69751430D01*
X59264514Y-69751430D02*
X59300228Y-69680002D01*
X59764514Y-69322859D02*
X59264514Y-69322859D01*
X59014514Y-69322859D02*
X59050228Y-69358573D01*
X59050228Y-69358573D02*
X59085942Y-69322859D01*
X59085942Y-69322859D02*
X59050228Y-69287145D01*
X59050228Y-69287145D02*
X59014514Y-69322859D01*
X59014514Y-69322859D02*
X59085942Y-69322859D01*
X59264514Y-69072859D02*
X59264514Y-68787145D01*
X59014514Y-68965716D02*
X59657371Y-68965716D01*
X59657371Y-68965716D02*
X59728800Y-68930002D01*
X59728800Y-68930002D02*
X59764514Y-68858573D01*
X59764514Y-68858573D02*
X59764514Y-68787145D01*
X59764514Y-68537145D02*
X59014514Y-68537145D01*
X59764514Y-68215717D02*
X59371657Y-68215717D01*
X59371657Y-68215717D02*
X59300228Y-68251431D01*
X59300228Y-68251431D02*
X59264514Y-68322859D01*
X59264514Y-68322859D02*
X59264514Y-68430002D01*
X59264514Y-68430002D02*
X59300228Y-68501431D01*
X59300228Y-68501431D02*
X59335942Y-68537145D01*
X59264514Y-67537146D02*
X59764514Y-67537146D01*
X59264514Y-67858574D02*
X59657371Y-67858574D01*
X59657371Y-67858574D02*
X59728800Y-67822860D01*
X59728800Y-67822860D02*
X59764514Y-67751431D01*
X59764514Y-67751431D02*
X59764514Y-67644288D01*
X59764514Y-67644288D02*
X59728800Y-67572860D01*
X59728800Y-67572860D02*
X59693085Y-67537146D01*
X59764514Y-67180003D02*
X59014514Y-67180003D01*
X59300228Y-67180003D02*
X59264514Y-67108575D01*
X59264514Y-67108575D02*
X59264514Y-66965717D01*
X59264514Y-66965717D02*
X59300228Y-66894289D01*
X59300228Y-66894289D02*
X59335942Y-66858575D01*
X59335942Y-66858575D02*
X59407371Y-66822860D01*
X59407371Y-66822860D02*
X59621657Y-66822860D01*
X59621657Y-66822860D02*
X59693085Y-66858575D01*
X59693085Y-66858575D02*
X59728800Y-66894289D01*
X59728800Y-66894289D02*
X59764514Y-66965717D01*
X59764514Y-66965717D02*
X59764514Y-67108575D01*
X59764514Y-67108575D02*
X59728800Y-67180003D01*
X59693085Y-66501432D02*
X59728800Y-66465718D01*
X59728800Y-66465718D02*
X59764514Y-66501432D01*
X59764514Y-66501432D02*
X59728800Y-66537146D01*
X59728800Y-66537146D02*
X59693085Y-66501432D01*
X59693085Y-66501432D02*
X59764514Y-66501432D01*
X59728800Y-65822861D02*
X59764514Y-65894289D01*
X59764514Y-65894289D02*
X59764514Y-66037146D01*
X59764514Y-66037146D02*
X59728800Y-66108575D01*
X59728800Y-66108575D02*
X59693085Y-66144289D01*
X59693085Y-66144289D02*
X59621657Y-66180003D01*
X59621657Y-66180003D02*
X59407371Y-66180003D01*
X59407371Y-66180003D02*
X59335942Y-66144289D01*
X59335942Y-66144289D02*
X59300228Y-66108575D01*
X59300228Y-66108575D02*
X59264514Y-66037146D01*
X59264514Y-66037146D02*
X59264514Y-65894289D01*
X59264514Y-65894289D02*
X59300228Y-65822861D01*
X59764514Y-65394289D02*
X59728800Y-65465718D01*
X59728800Y-65465718D02*
X59693085Y-65501432D01*
X59693085Y-65501432D02*
X59621657Y-65537146D01*
X59621657Y-65537146D02*
X59407371Y-65537146D01*
X59407371Y-65537146D02*
X59335942Y-65501432D01*
X59335942Y-65501432D02*
X59300228Y-65465718D01*
X59300228Y-65465718D02*
X59264514Y-65394289D01*
X59264514Y-65394289D02*
X59264514Y-65287146D01*
X59264514Y-65287146D02*
X59300228Y-65215718D01*
X59300228Y-65215718D02*
X59335942Y-65180004D01*
X59335942Y-65180004D02*
X59407371Y-65144289D01*
X59407371Y-65144289D02*
X59621657Y-65144289D01*
X59621657Y-65144289D02*
X59693085Y-65180004D01*
X59693085Y-65180004D02*
X59728800Y-65215718D01*
X59728800Y-65215718D02*
X59764514Y-65287146D01*
X59764514Y-65287146D02*
X59764514Y-65394289D01*
X59764514Y-64822861D02*
X59264514Y-64822861D01*
X59335942Y-64822861D02*
X59300228Y-64787147D01*
X59300228Y-64787147D02*
X59264514Y-64715718D01*
X59264514Y-64715718D02*
X59264514Y-64608575D01*
X59264514Y-64608575D02*
X59300228Y-64537147D01*
X59300228Y-64537147D02*
X59371657Y-64501433D01*
X59371657Y-64501433D02*
X59764514Y-64501433D01*
X59371657Y-64501433D02*
X59300228Y-64465718D01*
X59300228Y-64465718D02*
X59264514Y-64394290D01*
X59264514Y-64394290D02*
X59264514Y-64287147D01*
X59264514Y-64287147D02*
X59300228Y-64215718D01*
X59300228Y-64215718D02*
X59371657Y-64180004D01*
X59371657Y-64180004D02*
X59764514Y-64180004D01*
X58978800Y-63287147D02*
X59943085Y-63930004D01*
X59764514Y-63037147D02*
X59264514Y-63037147D01*
X59335942Y-63037147D02*
X59300228Y-63001433D01*
X59300228Y-63001433D02*
X59264514Y-62930004D01*
X59264514Y-62930004D02*
X59264514Y-62822861D01*
X59264514Y-62822861D02*
X59300228Y-62751433D01*
X59300228Y-62751433D02*
X59371657Y-62715719D01*
X59371657Y-62715719D02*
X59764514Y-62715719D01*
X59371657Y-62715719D02*
X59300228Y-62680004D01*
X59300228Y-62680004D02*
X59264514Y-62608576D01*
X59264514Y-62608576D02*
X59264514Y-62501433D01*
X59264514Y-62501433D02*
X59300228Y-62430004D01*
X59300228Y-62430004D02*
X59371657Y-62394290D01*
X59371657Y-62394290D02*
X59764514Y-62394290D01*
X59764514Y-61715719D02*
X59371657Y-61715719D01*
X59371657Y-61715719D02*
X59300228Y-61751433D01*
X59300228Y-61751433D02*
X59264514Y-61822861D01*
X59264514Y-61822861D02*
X59264514Y-61965719D01*
X59264514Y-61965719D02*
X59300228Y-62037147D01*
X59728800Y-61715719D02*
X59764514Y-61787147D01*
X59764514Y-61787147D02*
X59764514Y-61965719D01*
X59764514Y-61965719D02*
X59728800Y-62037147D01*
X59728800Y-62037147D02*
X59657371Y-62072861D01*
X59657371Y-62072861D02*
X59585942Y-62072861D01*
X59585942Y-62072861D02*
X59514514Y-62037147D01*
X59514514Y-62037147D02*
X59478800Y-61965719D01*
X59478800Y-61965719D02*
X59478800Y-61787147D01*
X59478800Y-61787147D02*
X59443085Y-61715719D01*
X59764514Y-61037148D02*
X59014514Y-61037148D01*
X59728800Y-61037148D02*
X59764514Y-61108576D01*
X59764514Y-61108576D02*
X59764514Y-61251433D01*
X59764514Y-61251433D02*
X59728800Y-61322862D01*
X59728800Y-61322862D02*
X59693085Y-61358576D01*
X59693085Y-61358576D02*
X59621657Y-61394290D01*
X59621657Y-61394290D02*
X59407371Y-61394290D01*
X59407371Y-61394290D02*
X59335942Y-61358576D01*
X59335942Y-61358576D02*
X59300228Y-61322862D01*
X59300228Y-61322862D02*
X59264514Y-61251433D01*
X59264514Y-61251433D02*
X59264514Y-61108576D01*
X59264514Y-61108576D02*
X59300228Y-61037148D01*
X59728800Y-60358577D02*
X59764514Y-60430005D01*
X59764514Y-60430005D02*
X59764514Y-60572862D01*
X59764514Y-60572862D02*
X59728800Y-60644291D01*
X59728800Y-60644291D02*
X59693085Y-60680005D01*
X59693085Y-60680005D02*
X59621657Y-60715719D01*
X59621657Y-60715719D02*
X59407371Y-60715719D01*
X59407371Y-60715719D02*
X59335942Y-60680005D01*
X59335942Y-60680005D02*
X59300228Y-60644291D01*
X59300228Y-60644291D02*
X59264514Y-60572862D01*
X59264514Y-60572862D02*
X59264514Y-60430005D01*
X59264514Y-60430005D02*
X59300228Y-60358577D01*
X59764514Y-59715720D02*
X59371657Y-59715720D01*
X59371657Y-59715720D02*
X59300228Y-59751434D01*
X59300228Y-59751434D02*
X59264514Y-59822862D01*
X59264514Y-59822862D02*
X59264514Y-59965720D01*
X59264514Y-59965720D02*
X59300228Y-60037148D01*
X59728800Y-59715720D02*
X59764514Y-59787148D01*
X59764514Y-59787148D02*
X59764514Y-59965720D01*
X59764514Y-59965720D02*
X59728800Y-60037148D01*
X59728800Y-60037148D02*
X59657371Y-60072862D01*
X59657371Y-60072862D02*
X59585942Y-60072862D01*
X59585942Y-60072862D02*
X59514514Y-60037148D01*
X59514514Y-60037148D02*
X59478800Y-59965720D01*
X59478800Y-59965720D02*
X59478800Y-59787148D01*
X59478800Y-59787148D02*
X59443085Y-59715720D01*
X59264514Y-59465720D02*
X59264514Y-59180006D01*
X59014514Y-59358577D02*
X59657371Y-59358577D01*
X59657371Y-59358577D02*
X59728800Y-59322863D01*
X59728800Y-59322863D02*
X59764514Y-59251434D01*
X59764514Y-59251434D02*
X59764514Y-59180006D01*
X59728800Y-58965720D02*
X59764514Y-58894292D01*
X59764514Y-58894292D02*
X59764514Y-58751435D01*
X59764514Y-58751435D02*
X59728800Y-58680006D01*
X59728800Y-58680006D02*
X59657371Y-58644292D01*
X59657371Y-58644292D02*
X59621657Y-58644292D01*
X59621657Y-58644292D02*
X59550228Y-58680006D01*
X59550228Y-58680006D02*
X59514514Y-58751435D01*
X59514514Y-58751435D02*
X59514514Y-58858578D01*
X59514514Y-58858578D02*
X59478800Y-58930006D01*
X59478800Y-58930006D02*
X59407371Y-58965720D01*
X59407371Y-58965720D02*
X59371657Y-58965720D01*
X59371657Y-58965720D02*
X59300228Y-58930006D01*
X59300228Y-58930006D02*
X59264514Y-58858578D01*
X59264514Y-58858578D02*
X59264514Y-58751435D01*
X59264514Y-58751435D02*
X59300228Y-58680006D01*
X59728800Y-58037149D02*
X59764514Y-58108577D01*
X59764514Y-58108577D02*
X59764514Y-58251435D01*
X59764514Y-58251435D02*
X59728800Y-58322863D01*
X59728800Y-58322863D02*
X59657371Y-58358577D01*
X59657371Y-58358577D02*
X59371657Y-58358577D01*
X59371657Y-58358577D02*
X59300228Y-58322863D01*
X59300228Y-58322863D02*
X59264514Y-58251435D01*
X59264514Y-58251435D02*
X59264514Y-58108577D01*
X59264514Y-58108577D02*
X59300228Y-58037149D01*
X59300228Y-58037149D02*
X59371657Y-58001435D01*
X59371657Y-58001435D02*
X59443085Y-58001435D01*
X59443085Y-58001435D02*
X59514514Y-58358577D01*
X58978800Y-57144292D02*
X59943085Y-57787149D01*
X59764514Y-56894292D02*
X59014514Y-56894292D01*
X59014514Y-56894292D02*
X59014514Y-56715721D01*
X59014514Y-56715721D02*
X59050228Y-56608578D01*
X59050228Y-56608578D02*
X59121657Y-56537149D01*
X59121657Y-56537149D02*
X59193085Y-56501435D01*
X59193085Y-56501435D02*
X59335942Y-56465721D01*
X59335942Y-56465721D02*
X59443085Y-56465721D01*
X59443085Y-56465721D02*
X59585942Y-56501435D01*
X59585942Y-56501435D02*
X59657371Y-56537149D01*
X59657371Y-56537149D02*
X59728800Y-56608578D01*
X59728800Y-56608578D02*
X59764514Y-56715721D01*
X59764514Y-56715721D02*
X59764514Y-56894292D01*
X59728800Y-55858578D02*
X59764514Y-55930006D01*
X59764514Y-55930006D02*
X59764514Y-56072864D01*
X59764514Y-56072864D02*
X59728800Y-56144292D01*
X59728800Y-56144292D02*
X59657371Y-56180006D01*
X59657371Y-56180006D02*
X59371657Y-56180006D01*
X59371657Y-56180006D02*
X59300228Y-56144292D01*
X59300228Y-56144292D02*
X59264514Y-56072864D01*
X59264514Y-56072864D02*
X59264514Y-55930006D01*
X59264514Y-55930006D02*
X59300228Y-55858578D01*
X59300228Y-55858578D02*
X59371657Y-55822864D01*
X59371657Y-55822864D02*
X59443085Y-55822864D01*
X59443085Y-55822864D02*
X59514514Y-56180006D01*
X59764514Y-55394292D02*
X59728800Y-55465721D01*
X59728800Y-55465721D02*
X59657371Y-55501435D01*
X59657371Y-55501435D02*
X59014514Y-55501435D01*
X59264514Y-55215721D02*
X59264514Y-54930007D01*
X59014514Y-55108578D02*
X59657371Y-55108578D01*
X59657371Y-55108578D02*
X59728800Y-55072864D01*
X59728800Y-55072864D02*
X59764514Y-55001435D01*
X59764514Y-55001435D02*
X59764514Y-54930007D01*
X59764514Y-54358579D02*
X59371657Y-54358579D01*
X59371657Y-54358579D02*
X59300228Y-54394293D01*
X59300228Y-54394293D02*
X59264514Y-54465721D01*
X59264514Y-54465721D02*
X59264514Y-54608579D01*
X59264514Y-54608579D02*
X59300228Y-54680007D01*
X59728800Y-54358579D02*
X59764514Y-54430007D01*
X59764514Y-54430007D02*
X59764514Y-54608579D01*
X59764514Y-54608579D02*
X59728800Y-54680007D01*
X59728800Y-54680007D02*
X59657371Y-54715721D01*
X59657371Y-54715721D02*
X59585942Y-54715721D01*
X59585942Y-54715721D02*
X59514514Y-54680007D01*
X59514514Y-54680007D02*
X59478800Y-54608579D01*
X59478800Y-54608579D02*
X59478800Y-54430007D01*
X59478800Y-54430007D02*
X59443085Y-54358579D01*
X59728800Y-54037150D02*
X59764514Y-53930008D01*
X59764514Y-53930008D02*
X59764514Y-53751436D01*
X59764514Y-53751436D02*
X59728800Y-53680008D01*
X59728800Y-53680008D02*
X59693085Y-53644293D01*
X59693085Y-53644293D02*
X59621657Y-53608579D01*
X59621657Y-53608579D02*
X59550228Y-53608579D01*
X59550228Y-53608579D02*
X59478800Y-53644293D01*
X59478800Y-53644293D02*
X59443085Y-53680008D01*
X59443085Y-53680008D02*
X59407371Y-53751436D01*
X59407371Y-53751436D02*
X59371657Y-53894293D01*
X59371657Y-53894293D02*
X59335942Y-53965722D01*
X59335942Y-53965722D02*
X59300228Y-54001436D01*
X59300228Y-54001436D02*
X59228800Y-54037150D01*
X59228800Y-54037150D02*
X59157371Y-54037150D01*
X59157371Y-54037150D02*
X59085942Y-54001436D01*
X59085942Y-54001436D02*
X59050228Y-53965722D01*
X59050228Y-53965722D02*
X59014514Y-53894293D01*
X59014514Y-53894293D02*
X59014514Y-53715722D01*
X59014514Y-53715722D02*
X59050228Y-53608579D01*
X59478800Y-53287150D02*
X59478800Y-52715722D01*
X59764514Y-52358579D02*
X59014514Y-52358579D01*
X59764514Y-51930008D02*
X59335942Y-52251436D01*
X59014514Y-51930008D02*
X59443085Y-52358579D01*
X59764514Y-51180008D02*
X59407371Y-51430008D01*
X59764514Y-51608579D02*
X59014514Y-51608579D01*
X59014514Y-51608579D02*
X59014514Y-51322865D01*
X59014514Y-51322865D02*
X59050228Y-51251436D01*
X59050228Y-51251436D02*
X59085942Y-51215722D01*
X59085942Y-51215722D02*
X59157371Y-51180008D01*
X59157371Y-51180008D02*
X59264514Y-51180008D01*
X59264514Y-51180008D02*
X59335942Y-51215722D01*
X59335942Y-51215722D02*
X59371657Y-51251436D01*
X59371657Y-51251436D02*
X59407371Y-51322865D01*
X59407371Y-51322865D02*
X59407371Y-51608579D01*
X59014514Y-50501436D02*
X59014514Y-50858579D01*
X59014514Y-50858579D02*
X59371657Y-50894293D01*
X59371657Y-50894293D02*
X59335942Y-50858579D01*
X59335942Y-50858579D02*
X59300228Y-50787151D01*
X59300228Y-50787151D02*
X59300228Y-50608579D01*
X59300228Y-50608579D02*
X59335942Y-50537151D01*
X59335942Y-50537151D02*
X59371657Y-50501436D01*
X59371657Y-50501436D02*
X59443085Y-50465722D01*
X59443085Y-50465722D02*
X59621657Y-50465722D01*
X59621657Y-50465722D02*
X59693085Y-50501436D01*
X59693085Y-50501436D02*
X59728800Y-50537151D01*
X59728800Y-50537151D02*
X59764514Y-50608579D01*
X59764514Y-50608579D02*
X59764514Y-50787151D01*
X59764514Y-50787151D02*
X59728800Y-50858579D01*
X59728800Y-50858579D02*
X59693085Y-50894293D01*
X59014514Y-49787150D02*
X59014514Y-50144293D01*
X59014514Y-50144293D02*
X59371657Y-50180007D01*
X59371657Y-50180007D02*
X59335942Y-50144293D01*
X59335942Y-50144293D02*
X59300228Y-50072865D01*
X59300228Y-50072865D02*
X59300228Y-49894293D01*
X59300228Y-49894293D02*
X59335942Y-49822865D01*
X59335942Y-49822865D02*
X59371657Y-49787150D01*
X59371657Y-49787150D02*
X59443085Y-49751436D01*
X59443085Y-49751436D02*
X59621657Y-49751436D01*
X59621657Y-49751436D02*
X59693085Y-49787150D01*
X59693085Y-49787150D02*
X59728800Y-49822865D01*
X59728800Y-49822865D02*
X59764514Y-49894293D01*
X59764514Y-49894293D02*
X59764514Y-50072865D01*
X59764514Y-50072865D02*
X59728800Y-50144293D01*
X59728800Y-50144293D02*
X59693085Y-50180007D01*
X59014514Y-49108579D02*
X59014514Y-49251436D01*
X59014514Y-49251436D02*
X59050228Y-49322864D01*
X59050228Y-49322864D02*
X59085942Y-49358579D01*
X59085942Y-49358579D02*
X59193085Y-49430007D01*
X59193085Y-49430007D02*
X59335942Y-49465721D01*
X59335942Y-49465721D02*
X59621657Y-49465721D01*
X59621657Y-49465721D02*
X59693085Y-49430007D01*
X59693085Y-49430007D02*
X59728800Y-49394293D01*
X59728800Y-49394293D02*
X59764514Y-49322864D01*
X59764514Y-49322864D02*
X59764514Y-49180007D01*
X59764514Y-49180007D02*
X59728800Y-49108579D01*
X59728800Y-49108579D02*
X59693085Y-49072864D01*
X59693085Y-49072864D02*
X59621657Y-49037150D01*
X59621657Y-49037150D02*
X59443085Y-49037150D01*
X59443085Y-49037150D02*
X59371657Y-49072864D01*
X59371657Y-49072864D02*
X59335942Y-49108579D01*
X59335942Y-49108579D02*
X59300228Y-49180007D01*
X59300228Y-49180007D02*
X59300228Y-49322864D01*
X59300228Y-49322864D02*
X59335942Y-49394293D01*
X59335942Y-49394293D02*
X59371657Y-49430007D01*
X59371657Y-49430007D02*
X59443085Y-49465721D01*
X59764514Y-48287150D02*
X59407371Y-48537150D01*
X59764514Y-48715721D02*
X59014514Y-48715721D01*
X59014514Y-48715721D02*
X59014514Y-48430007D01*
X59014514Y-48430007D02*
X59050228Y-48358578D01*
X59050228Y-48358578D02*
X59085942Y-48322864D01*
X59085942Y-48322864D02*
X59157371Y-48287150D01*
X59157371Y-48287150D02*
X59264514Y-48287150D01*
X59264514Y-48287150D02*
X59335942Y-48322864D01*
X59335942Y-48322864D02*
X59371657Y-48358578D01*
X59371657Y-48358578D02*
X59407371Y-48430007D01*
X59407371Y-48430007D02*
X59407371Y-48715721D01*
X59014514Y-48072864D02*
X59014514Y-47644293D01*
X59764514Y-47858578D02*
X59014514Y-47858578D01*
X59085942Y-47430006D02*
X59050228Y-47394292D01*
X59050228Y-47394292D02*
X59014514Y-47322864D01*
X59014514Y-47322864D02*
X59014514Y-47144292D01*
X59014514Y-47144292D02*
X59050228Y-47072864D01*
X59050228Y-47072864D02*
X59085942Y-47037149D01*
X59085942Y-47037149D02*
X59157371Y-47001435D01*
X59157371Y-47001435D02*
X59228800Y-47001435D01*
X59228800Y-47001435D02*
X59335942Y-47037149D01*
X59335942Y-47037149D02*
X59764514Y-47465721D01*
X59764514Y-47465721D02*
X59764514Y-47001435D01*
X59478800Y-46680006D02*
X59478800Y-46108578D01*
X59371657Y-45751435D02*
X59371657Y-45501435D01*
X59764514Y-45394292D02*
X59764514Y-45751435D01*
X59764514Y-45751435D02*
X59014514Y-45751435D01*
X59014514Y-45751435D02*
X59014514Y-45394292D01*
X59764514Y-45072864D02*
X59014514Y-45072864D01*
X59014514Y-45072864D02*
X59014514Y-44787150D01*
X59014514Y-44787150D02*
X59050228Y-44715721D01*
X59050228Y-44715721D02*
X59085942Y-44680007D01*
X59085942Y-44680007D02*
X59157371Y-44644293D01*
X59157371Y-44644293D02*
X59264514Y-44644293D01*
X59264514Y-44644293D02*
X59335942Y-44680007D01*
X59335942Y-44680007D02*
X59371657Y-44715721D01*
X59371657Y-44715721D02*
X59407371Y-44787150D01*
X59407371Y-44787150D02*
X59407371Y-45072864D01*
X59764514Y-43894293D02*
X59407371Y-44144293D01*
X59764514Y-44322864D02*
X59014514Y-44322864D01*
X59014514Y-44322864D02*
X59014514Y-44037150D01*
X59014514Y-44037150D02*
X59050228Y-43965721D01*
X59050228Y-43965721D02*
X59085942Y-43930007D01*
X59085942Y-43930007D02*
X59157371Y-43894293D01*
X59157371Y-43894293D02*
X59264514Y-43894293D01*
X59264514Y-43894293D02*
X59335942Y-43930007D01*
X59335942Y-43930007D02*
X59371657Y-43965721D01*
X59371657Y-43965721D02*
X59407371Y-44037150D01*
X59407371Y-44037150D02*
X59407371Y-44322864D01*
X59014514Y-43430007D02*
X59014514Y-43287150D01*
X59014514Y-43287150D02*
X59050228Y-43215721D01*
X59050228Y-43215721D02*
X59121657Y-43144293D01*
X59121657Y-43144293D02*
X59264514Y-43108578D01*
X59264514Y-43108578D02*
X59514514Y-43108578D01*
X59514514Y-43108578D02*
X59657371Y-43144293D01*
X59657371Y-43144293D02*
X59728800Y-43215721D01*
X59728800Y-43215721D02*
X59764514Y-43287150D01*
X59764514Y-43287150D02*
X59764514Y-43430007D01*
X59764514Y-43430007D02*
X59728800Y-43501436D01*
X59728800Y-43501436D02*
X59657371Y-43572864D01*
X59657371Y-43572864D02*
X59514514Y-43608578D01*
X59514514Y-43608578D02*
X59264514Y-43608578D01*
X59264514Y-43608578D02*
X59121657Y-43572864D01*
X59121657Y-43572864D02*
X59050228Y-43501436D01*
X59050228Y-43501436D02*
X59014514Y-43430007D01*
X59764514Y-42787150D02*
X59014514Y-42787150D01*
X59014514Y-42787150D02*
X59550228Y-42537150D01*
X59550228Y-42537150D02*
X59014514Y-42287150D01*
X59014514Y-42287150D02*
X59764514Y-42287150D01*
D11*
X98462728Y-66332713D02*
X97748442Y-66832713D01*
X98462728Y-67189856D02*
X96962728Y-67189856D01*
X96962728Y-67189856D02*
X96962728Y-66618427D01*
X96962728Y-66618427D02*
X97034157Y-66475570D01*
X97034157Y-66475570D02*
X97105585Y-66404141D01*
X97105585Y-66404141D02*
X97248442Y-66332713D01*
X97248442Y-66332713D02*
X97462728Y-66332713D01*
X97462728Y-66332713D02*
X97605585Y-66404141D01*
X97605585Y-66404141D02*
X97677014Y-66475570D01*
X97677014Y-66475570D02*
X97748442Y-66618427D01*
X97748442Y-66618427D02*
X97748442Y-67189856D01*
X98391300Y-65118427D02*
X98462728Y-65261284D01*
X98462728Y-65261284D02*
X98462728Y-65546999D01*
X98462728Y-65546999D02*
X98391300Y-65689856D01*
X98391300Y-65689856D02*
X98248442Y-65761284D01*
X98248442Y-65761284D02*
X97677014Y-65761284D01*
X97677014Y-65761284D02*
X97534157Y-65689856D01*
X97534157Y-65689856D02*
X97462728Y-65546999D01*
X97462728Y-65546999D02*
X97462728Y-65261284D01*
X97462728Y-65261284D02*
X97534157Y-65118427D01*
X97534157Y-65118427D02*
X97677014Y-65046999D01*
X97677014Y-65046999D02*
X97819871Y-65046999D01*
X97819871Y-65046999D02*
X97962728Y-65761284D01*
X98462728Y-63761285D02*
X97677014Y-63761285D01*
X97677014Y-63761285D02*
X97534157Y-63832713D01*
X97534157Y-63832713D02*
X97462728Y-63975570D01*
X97462728Y-63975570D02*
X97462728Y-64261285D01*
X97462728Y-64261285D02*
X97534157Y-64404142D01*
X98391300Y-63761285D02*
X98462728Y-63904142D01*
X98462728Y-63904142D02*
X98462728Y-64261285D01*
X98462728Y-64261285D02*
X98391300Y-64404142D01*
X98391300Y-64404142D02*
X98248442Y-64475570D01*
X98248442Y-64475570D02*
X98105585Y-64475570D01*
X98105585Y-64475570D02*
X97962728Y-64404142D01*
X97962728Y-64404142D02*
X97891300Y-64261285D01*
X97891300Y-64261285D02*
X97891300Y-63904142D01*
X97891300Y-63904142D02*
X97819871Y-63761285D01*
X98462728Y-62404142D02*
X96962728Y-62404142D01*
X98391300Y-62404142D02*
X98462728Y-62546999D01*
X98462728Y-62546999D02*
X98462728Y-62832713D01*
X98462728Y-62832713D02*
X98391300Y-62975570D01*
X98391300Y-62975570D02*
X98319871Y-63046999D01*
X98319871Y-63046999D02*
X98177014Y-63118427D01*
X98177014Y-63118427D02*
X97748442Y-63118427D01*
X97748442Y-63118427D02*
X97605585Y-63046999D01*
X97605585Y-63046999D02*
X97534157Y-62975570D01*
X97534157Y-62975570D02*
X97462728Y-62832713D01*
X97462728Y-62832713D02*
X97462728Y-62546999D01*
X97462728Y-62546999D02*
X97534157Y-62404142D01*
X98462728Y-60546999D02*
X96962728Y-60546999D01*
X98462728Y-59689856D02*
X97605585Y-60332713D01*
X96962728Y-59689856D02*
X97819871Y-60546999D01*
X98462728Y-59046999D02*
X96962728Y-59046999D01*
X96962728Y-59046999D02*
X96962728Y-58475570D01*
X96962728Y-58475570D02*
X97034157Y-58332713D01*
X97034157Y-58332713D02*
X97105585Y-58261284D01*
X97105585Y-58261284D02*
X97248442Y-58189856D01*
X97248442Y-58189856D02*
X97462728Y-58189856D01*
X97462728Y-58189856D02*
X97605585Y-58261284D01*
X97605585Y-58261284D02*
X97677014Y-58332713D01*
X97677014Y-58332713D02*
X97748442Y-58475570D01*
X97748442Y-58475570D02*
X97748442Y-59046999D01*
X96962728Y-56832713D02*
X96962728Y-57546999D01*
X96962728Y-57546999D02*
X97677014Y-57618427D01*
X97677014Y-57618427D02*
X97605585Y-57546999D01*
X97605585Y-57546999D02*
X97534157Y-57404142D01*
X97534157Y-57404142D02*
X97534157Y-57046999D01*
X97534157Y-57046999D02*
X97605585Y-56904142D01*
X97605585Y-56904142D02*
X97677014Y-56832713D01*
X97677014Y-56832713D02*
X97819871Y-56761284D01*
X97819871Y-56761284D02*
X98177014Y-56761284D01*
X98177014Y-56761284D02*
X98319871Y-56832713D01*
X98319871Y-56832713D02*
X98391300Y-56904142D01*
X98391300Y-56904142D02*
X98462728Y-57046999D01*
X98462728Y-57046999D02*
X98462728Y-57404142D01*
X98462728Y-57404142D02*
X98391300Y-57546999D01*
X98391300Y-57546999D02*
X98319871Y-57618427D01*
X96962728Y-55404142D02*
X96962728Y-56118428D01*
X96962728Y-56118428D02*
X97677014Y-56189856D01*
X97677014Y-56189856D02*
X97605585Y-56118428D01*
X97605585Y-56118428D02*
X97534157Y-55975571D01*
X97534157Y-55975571D02*
X97534157Y-55618428D01*
X97534157Y-55618428D02*
X97605585Y-55475571D01*
X97605585Y-55475571D02*
X97677014Y-55404142D01*
X97677014Y-55404142D02*
X97819871Y-55332713D01*
X97819871Y-55332713D02*
X98177014Y-55332713D01*
X98177014Y-55332713D02*
X98319871Y-55404142D01*
X98319871Y-55404142D02*
X98391300Y-55475571D01*
X98391300Y-55475571D02*
X98462728Y-55618428D01*
X98462728Y-55618428D02*
X98462728Y-55975571D01*
X98462728Y-55975571D02*
X98391300Y-56118428D01*
X98391300Y-56118428D02*
X98319871Y-56189856D01*
X96962728Y-54047000D02*
X96962728Y-54332714D01*
X96962728Y-54332714D02*
X97034157Y-54475571D01*
X97034157Y-54475571D02*
X97105585Y-54547000D01*
X97105585Y-54547000D02*
X97319871Y-54689857D01*
X97319871Y-54689857D02*
X97605585Y-54761285D01*
X97605585Y-54761285D02*
X98177014Y-54761285D01*
X98177014Y-54761285D02*
X98319871Y-54689857D01*
X98319871Y-54689857D02*
X98391300Y-54618428D01*
X98391300Y-54618428D02*
X98462728Y-54475571D01*
X98462728Y-54475571D02*
X98462728Y-54189857D01*
X98462728Y-54189857D02*
X98391300Y-54047000D01*
X98391300Y-54047000D02*
X98319871Y-53975571D01*
X98319871Y-53975571D02*
X98177014Y-53904142D01*
X98177014Y-53904142D02*
X97819871Y-53904142D01*
X97819871Y-53904142D02*
X97677014Y-53975571D01*
X97677014Y-53975571D02*
X97605585Y-54047000D01*
X97605585Y-54047000D02*
X97534157Y-54189857D01*
X97534157Y-54189857D02*
X97534157Y-54475571D01*
X97534157Y-54475571D02*
X97605585Y-54618428D01*
X97605585Y-54618428D02*
X97677014Y-54689857D01*
X97677014Y-54689857D02*
X97819871Y-54761285D01*
X98462728Y-53261286D02*
X96962728Y-53261286D01*
X96962728Y-53261286D02*
X96962728Y-52689857D01*
X96962728Y-52689857D02*
X97034157Y-52547000D01*
X97034157Y-52547000D02*
X97105585Y-52475571D01*
X97105585Y-52475571D02*
X97248442Y-52404143D01*
X97248442Y-52404143D02*
X97462728Y-52404143D01*
X97462728Y-52404143D02*
X97605585Y-52475571D01*
X97605585Y-52475571D02*
X97677014Y-52547000D01*
X97677014Y-52547000D02*
X97748442Y-52689857D01*
X97748442Y-52689857D02*
X97748442Y-53261286D01*
X96962728Y-51975571D02*
X96962728Y-51118429D01*
X98462728Y-51547000D02*
X96962728Y-51547000D01*
X97105585Y-50689857D02*
X97034157Y-50618429D01*
X97034157Y-50618429D02*
X96962728Y-50475572D01*
X96962728Y-50475572D02*
X96962728Y-50118429D01*
X96962728Y-50118429D02*
X97034157Y-49975572D01*
X97034157Y-49975572D02*
X97105585Y-49904143D01*
X97105585Y-49904143D02*
X97248442Y-49832714D01*
X97248442Y-49832714D02*
X97391300Y-49832714D01*
X97391300Y-49832714D02*
X97605585Y-49904143D01*
X97605585Y-49904143D02*
X98462728Y-50761286D01*
X98462728Y-50761286D02*
X98462728Y-49832714D01*
X100892728Y-63725570D02*
X100107014Y-63725570D01*
X100107014Y-63725570D02*
X99964157Y-63796998D01*
X99964157Y-63796998D02*
X99892728Y-63939855D01*
X99892728Y-63939855D02*
X99892728Y-64225570D01*
X99892728Y-64225570D02*
X99964157Y-64368427D01*
X100821300Y-63725570D02*
X100892728Y-63868427D01*
X100892728Y-63868427D02*
X100892728Y-64225570D01*
X100892728Y-64225570D02*
X100821300Y-64368427D01*
X100821300Y-64368427D02*
X100678442Y-64439855D01*
X100678442Y-64439855D02*
X100535585Y-64439855D01*
X100535585Y-64439855D02*
X100392728Y-64368427D01*
X100392728Y-64368427D02*
X100321300Y-64225570D01*
X100321300Y-64225570D02*
X100321300Y-63868427D01*
X100321300Y-63868427D02*
X100249871Y-63725570D01*
X100821300Y-63082712D02*
X100892728Y-62939855D01*
X100892728Y-62939855D02*
X100892728Y-62654141D01*
X100892728Y-62654141D02*
X100821300Y-62511284D01*
X100821300Y-62511284D02*
X100678442Y-62439855D01*
X100678442Y-62439855D02*
X100607014Y-62439855D01*
X100607014Y-62439855D02*
X100464157Y-62511284D01*
X100464157Y-62511284D02*
X100392728Y-62654141D01*
X100392728Y-62654141D02*
X100392728Y-62868427D01*
X100392728Y-62868427D02*
X100321300Y-63011284D01*
X100321300Y-63011284D02*
X100178442Y-63082712D01*
X100178442Y-63082712D02*
X100107014Y-63082712D01*
X100107014Y-63082712D02*
X99964157Y-63011284D01*
X99964157Y-63011284D02*
X99892728Y-62868427D01*
X99892728Y-62868427D02*
X99892728Y-62654141D01*
X99892728Y-62654141D02*
X99964157Y-62511284D01*
X99535585Y-60725569D02*
X99464157Y-60654141D01*
X99464157Y-60654141D02*
X99392728Y-60511284D01*
X99392728Y-60511284D02*
X99392728Y-60154141D01*
X99392728Y-60154141D02*
X99464157Y-60011284D01*
X99464157Y-60011284D02*
X99535585Y-59939855D01*
X99535585Y-59939855D02*
X99678442Y-59868426D01*
X99678442Y-59868426D02*
X99821300Y-59868426D01*
X99821300Y-59868426D02*
X100035585Y-59939855D01*
X100035585Y-59939855D02*
X100892728Y-60796998D01*
X100892728Y-60796998D02*
X100892728Y-59868426D01*
X99392728Y-59368427D02*
X99392728Y-58368427D01*
X99392728Y-58368427D02*
X100892728Y-59011284D01*
X100749871Y-56939856D02*
X100821300Y-57011284D01*
X100821300Y-57011284D02*
X100892728Y-57225570D01*
X100892728Y-57225570D02*
X100892728Y-57368427D01*
X100892728Y-57368427D02*
X100821300Y-57582713D01*
X100821300Y-57582713D02*
X100678442Y-57725570D01*
X100678442Y-57725570D02*
X100535585Y-57796999D01*
X100535585Y-57796999D02*
X100249871Y-57868427D01*
X100249871Y-57868427D02*
X100035585Y-57868427D01*
X100035585Y-57868427D02*
X99749871Y-57796999D01*
X99749871Y-57796999D02*
X99607014Y-57725570D01*
X99607014Y-57725570D02*
X99464157Y-57582713D01*
X99464157Y-57582713D02*
X99392728Y-57368427D01*
X99392728Y-57368427D02*
X99392728Y-57225570D01*
X99392728Y-57225570D02*
X99464157Y-57011284D01*
X99464157Y-57011284D02*
X99535585Y-56939856D01*
X99392728Y-55582713D02*
X99392728Y-56296999D01*
X99392728Y-56296999D02*
X100107014Y-56368427D01*
X100107014Y-56368427D02*
X100035585Y-56296999D01*
X100035585Y-56296999D02*
X99964157Y-56154142D01*
X99964157Y-56154142D02*
X99964157Y-55796999D01*
X99964157Y-55796999D02*
X100035585Y-55654142D01*
X100035585Y-55654142D02*
X100107014Y-55582713D01*
X100107014Y-55582713D02*
X100249871Y-55511284D01*
X100249871Y-55511284D02*
X100607014Y-55511284D01*
X100607014Y-55511284D02*
X100749871Y-55582713D01*
X100749871Y-55582713D02*
X100821300Y-55654142D01*
X100821300Y-55654142D02*
X100892728Y-55796999D01*
X100892728Y-55796999D02*
X100892728Y-56154142D01*
X100892728Y-56154142D02*
X100821300Y-56296999D01*
X100821300Y-56296999D02*
X100749871Y-56368427D01*
X100892728Y-54082713D02*
X100892728Y-54939856D01*
X100892728Y-54511285D02*
X99392728Y-54511285D01*
X99392728Y-54511285D02*
X99607014Y-54654142D01*
X99607014Y-54654142D02*
X99749871Y-54796999D01*
X99749871Y-54796999D02*
X99821300Y-54939856D01*
X99535585Y-53511285D02*
X99464157Y-53439857D01*
X99464157Y-53439857D02*
X99392728Y-53297000D01*
X99392728Y-53297000D02*
X99392728Y-52939857D01*
X99392728Y-52939857D02*
X99464157Y-52797000D01*
X99464157Y-52797000D02*
X99535585Y-52725571D01*
X99535585Y-52725571D02*
X99678442Y-52654142D01*
X99678442Y-52654142D02*
X99821300Y-52654142D01*
X99821300Y-52654142D02*
X100035585Y-52725571D01*
X100035585Y-52725571D02*
X100892728Y-53582714D01*
X100892728Y-53582714D02*
X100892728Y-52654142D01*
D12*
X66015371Y-39215914D02*
X66015371Y-38465914D01*
X66015371Y-38465914D02*
X66265371Y-39001628D01*
X66265371Y-39001628D02*
X66515371Y-38465914D01*
X66515371Y-38465914D02*
X66515371Y-39215914D01*
X67193943Y-39215914D02*
X67193943Y-38823057D01*
X67193943Y-38823057D02*
X67158228Y-38751628D01*
X67158228Y-38751628D02*
X67086800Y-38715914D01*
X67086800Y-38715914D02*
X66943943Y-38715914D01*
X66943943Y-38715914D02*
X66872514Y-38751628D01*
X67193943Y-39180200D02*
X67122514Y-39215914D01*
X67122514Y-39215914D02*
X66943943Y-39215914D01*
X66943943Y-39215914D02*
X66872514Y-39180200D01*
X66872514Y-39180200D02*
X66836800Y-39108771D01*
X66836800Y-39108771D02*
X66836800Y-39037342D01*
X66836800Y-39037342D02*
X66872514Y-38965914D01*
X66872514Y-38965914D02*
X66943943Y-38930200D01*
X66943943Y-38930200D02*
X67122514Y-38930200D01*
X67122514Y-38930200D02*
X67193943Y-38894485D01*
X67872514Y-39215914D02*
X67872514Y-38465914D01*
X67872514Y-39180200D02*
X67801085Y-39215914D01*
X67801085Y-39215914D02*
X67658228Y-39215914D01*
X67658228Y-39215914D02*
X67586799Y-39180200D01*
X67586799Y-39180200D02*
X67551085Y-39144485D01*
X67551085Y-39144485D02*
X67515371Y-39073057D01*
X67515371Y-39073057D02*
X67515371Y-38858771D01*
X67515371Y-38858771D02*
X67551085Y-38787342D01*
X67551085Y-38787342D02*
X67586799Y-38751628D01*
X67586799Y-38751628D02*
X67658228Y-38715914D01*
X67658228Y-38715914D02*
X67801085Y-38715914D01*
X67801085Y-38715914D02*
X67872514Y-38751628D01*
X68658227Y-39144485D02*
X68622513Y-39180200D01*
X68622513Y-39180200D02*
X68515370Y-39215914D01*
X68515370Y-39215914D02*
X68443942Y-39215914D01*
X68443942Y-39215914D02*
X68336799Y-39180200D01*
X68336799Y-39180200D02*
X68265370Y-39108771D01*
X68265370Y-39108771D02*
X68229656Y-39037342D01*
X68229656Y-39037342D02*
X68193942Y-38894485D01*
X68193942Y-38894485D02*
X68193942Y-38787342D01*
X68193942Y-38787342D02*
X68229656Y-38644485D01*
X68229656Y-38644485D02*
X68265370Y-38573057D01*
X68265370Y-38573057D02*
X68336799Y-38501628D01*
X68336799Y-38501628D02*
X68443942Y-38465914D01*
X68443942Y-38465914D02*
X68515370Y-38465914D01*
X68515370Y-38465914D02*
X68622513Y-38501628D01*
X68622513Y-38501628D02*
X68658227Y-38537342D01*
X69301085Y-39215914D02*
X69301085Y-38823057D01*
X69301085Y-38823057D02*
X69265370Y-38751628D01*
X69265370Y-38751628D02*
X69193942Y-38715914D01*
X69193942Y-38715914D02*
X69051085Y-38715914D01*
X69051085Y-38715914D02*
X68979656Y-38751628D01*
X69301085Y-39180200D02*
X69229656Y-39215914D01*
X69229656Y-39215914D02*
X69051085Y-39215914D01*
X69051085Y-39215914D02*
X68979656Y-39180200D01*
X68979656Y-39180200D02*
X68943942Y-39108771D01*
X68943942Y-39108771D02*
X68943942Y-39037342D01*
X68943942Y-39037342D02*
X68979656Y-38965914D01*
X68979656Y-38965914D02*
X69051085Y-38930200D01*
X69051085Y-38930200D02*
X69229656Y-38930200D01*
X69229656Y-38930200D02*
X69301085Y-38894485D01*
X69551084Y-38715914D02*
X69836798Y-38715914D01*
X69658227Y-38465914D02*
X69658227Y-39108771D01*
X69658227Y-39108771D02*
X69693941Y-39180200D01*
X69693941Y-39180200D02*
X69765370Y-39215914D01*
X69765370Y-39215914D02*
X69836798Y-39215914D01*
X70622513Y-38537342D02*
X70658227Y-38501628D01*
X70658227Y-38501628D02*
X70729656Y-38465914D01*
X70729656Y-38465914D02*
X70908227Y-38465914D01*
X70908227Y-38465914D02*
X70979656Y-38501628D01*
X70979656Y-38501628D02*
X71015370Y-38537342D01*
X71015370Y-38537342D02*
X71051084Y-38608771D01*
X71051084Y-38608771D02*
X71051084Y-38680200D01*
X71051084Y-38680200D02*
X71015370Y-38787342D01*
X71015370Y-38787342D02*
X70586798Y-39215914D01*
X70586798Y-39215914D02*
X71051084Y-39215914D01*
X71515370Y-38465914D02*
X71586799Y-38465914D01*
X71586799Y-38465914D02*
X71658227Y-38501628D01*
X71658227Y-38501628D02*
X71693942Y-38537342D01*
X71693942Y-38537342D02*
X71729656Y-38608771D01*
X71729656Y-38608771D02*
X71765370Y-38751628D01*
X71765370Y-38751628D02*
X71765370Y-38930200D01*
X71765370Y-38930200D02*
X71729656Y-39073057D01*
X71729656Y-39073057D02*
X71693942Y-39144485D01*
X71693942Y-39144485D02*
X71658227Y-39180200D01*
X71658227Y-39180200D02*
X71586799Y-39215914D01*
X71586799Y-39215914D02*
X71515370Y-39215914D01*
X71515370Y-39215914D02*
X71443942Y-39180200D01*
X71443942Y-39180200D02*
X71408227Y-39144485D01*
X71408227Y-39144485D02*
X71372513Y-39073057D01*
X71372513Y-39073057D02*
X71336799Y-38930200D01*
X71336799Y-38930200D02*
X71336799Y-38751628D01*
X71336799Y-38751628D02*
X71372513Y-38608771D01*
X71372513Y-38608771D02*
X71408227Y-38537342D01*
X71408227Y-38537342D02*
X71443942Y-38501628D01*
X71443942Y-38501628D02*
X71515370Y-38465914D01*
X72051085Y-38537342D02*
X72086799Y-38501628D01*
X72086799Y-38501628D02*
X72158228Y-38465914D01*
X72158228Y-38465914D02*
X72336799Y-38465914D01*
X72336799Y-38465914D02*
X72408228Y-38501628D01*
X72408228Y-38501628D02*
X72443942Y-38537342D01*
X72443942Y-38537342D02*
X72479656Y-38608771D01*
X72479656Y-38608771D02*
X72479656Y-38680200D01*
X72479656Y-38680200D02*
X72443942Y-38787342D01*
X72443942Y-38787342D02*
X72015370Y-39215914D01*
X72015370Y-39215914D02*
X72479656Y-39215914D01*
X72729656Y-38465914D02*
X73193942Y-38465914D01*
X73193942Y-38465914D02*
X72943942Y-38751628D01*
X72943942Y-38751628D02*
X73051085Y-38751628D01*
X73051085Y-38751628D02*
X73122514Y-38787342D01*
X73122514Y-38787342D02*
X73158228Y-38823057D01*
X73158228Y-38823057D02*
X73193942Y-38894485D01*
X73193942Y-38894485D02*
X73193942Y-39073057D01*
X73193942Y-39073057D02*
X73158228Y-39144485D01*
X73158228Y-39144485D02*
X73122514Y-39180200D01*
X73122514Y-39180200D02*
X73051085Y-39215914D01*
X73051085Y-39215914D02*
X72836799Y-39215914D01*
X72836799Y-39215914D02*
X72765371Y-39180200D01*
X72765371Y-39180200D02*
X72729656Y-39144485D01*
X73979657Y-38465914D02*
X74229657Y-39215914D01*
X74229657Y-39215914D02*
X74479657Y-38465914D01*
X75015371Y-39180200D02*
X74943943Y-39215914D01*
X74943943Y-39215914D02*
X74801086Y-39215914D01*
X74801086Y-39215914D02*
X74729657Y-39180200D01*
X74729657Y-39180200D02*
X74693943Y-39108771D01*
X74693943Y-39108771D02*
X74693943Y-38823057D01*
X74693943Y-38823057D02*
X74729657Y-38751628D01*
X74729657Y-38751628D02*
X74801086Y-38715914D01*
X74801086Y-38715914D02*
X74943943Y-38715914D01*
X74943943Y-38715914D02*
X75015371Y-38751628D01*
X75015371Y-38751628D02*
X75051086Y-38823057D01*
X75051086Y-38823057D02*
X75051086Y-38894485D01*
X75051086Y-38894485D02*
X74693943Y-38965914D01*
X75372514Y-39215914D02*
X75372514Y-38715914D01*
X75372514Y-38858771D02*
X75408228Y-38787342D01*
X75408228Y-38787342D02*
X75443943Y-38751628D01*
X75443943Y-38751628D02*
X75515371Y-38715914D01*
X75515371Y-38715914D02*
X75586800Y-38715914D01*
X75836800Y-39144485D02*
X75872514Y-39180200D01*
X75872514Y-39180200D02*
X75836800Y-39215914D01*
X75836800Y-39215914D02*
X75801086Y-39180200D01*
X75801086Y-39180200D02*
X75836800Y-39144485D01*
X75836800Y-39144485D02*
X75836800Y-39215914D01*
X76586800Y-39215914D02*
X76158229Y-39215914D01*
X76372514Y-39215914D02*
X76372514Y-38465914D01*
X76372514Y-38465914D02*
X76301086Y-38573057D01*
X76301086Y-38573057D02*
X76229657Y-38644485D01*
X76229657Y-38644485D02*
X76158229Y-38680200D01*
D11*
X68708228Y-64915227D02*
X69922514Y-64915227D01*
X69922514Y-64915227D02*
X70065371Y-64843798D01*
X70065371Y-64843798D02*
X70136800Y-64772370D01*
X70136800Y-64772370D02*
X70208228Y-64629512D01*
X70208228Y-64629512D02*
X70208228Y-64343798D01*
X70208228Y-64343798D02*
X70136800Y-64200941D01*
X70136800Y-64200941D02*
X70065371Y-64129512D01*
X70065371Y-64129512D02*
X69922514Y-64058084D01*
X69922514Y-64058084D02*
X68708228Y-64058084D01*
X70136800Y-63415226D02*
X70208228Y-63272369D01*
X70208228Y-63272369D02*
X70208228Y-62986655D01*
X70208228Y-62986655D02*
X70136800Y-62843798D01*
X70136800Y-62843798D02*
X69993942Y-62772369D01*
X69993942Y-62772369D02*
X69922514Y-62772369D01*
X69922514Y-62772369D02*
X69779657Y-62843798D01*
X69779657Y-62843798D02*
X69708228Y-62986655D01*
X69708228Y-62986655D02*
X69708228Y-63200941D01*
X69708228Y-63200941D02*
X69636800Y-63343798D01*
X69636800Y-63343798D02*
X69493942Y-63415226D01*
X69493942Y-63415226D02*
X69422514Y-63415226D01*
X69422514Y-63415226D02*
X69279657Y-63343798D01*
X69279657Y-63343798D02*
X69208228Y-63200941D01*
X69208228Y-63200941D02*
X69208228Y-62986655D01*
X69208228Y-62986655D02*
X69279657Y-62843798D01*
X70136800Y-61558083D02*
X70208228Y-61700940D01*
X70208228Y-61700940D02*
X70208228Y-61986655D01*
X70208228Y-61986655D02*
X70136800Y-62129512D01*
X70136800Y-62129512D02*
X69993942Y-62200940D01*
X69993942Y-62200940D02*
X69422514Y-62200940D01*
X69422514Y-62200940D02*
X69279657Y-62129512D01*
X69279657Y-62129512D02*
X69208228Y-61986655D01*
X69208228Y-61986655D02*
X69208228Y-61700940D01*
X69208228Y-61700940D02*
X69279657Y-61558083D01*
X69279657Y-61558083D02*
X69422514Y-61486655D01*
X69422514Y-61486655D02*
X69565371Y-61486655D01*
X69565371Y-61486655D02*
X69708228Y-62200940D01*
X68851085Y-59772369D02*
X68779657Y-59700941D01*
X68779657Y-59700941D02*
X68708228Y-59558084D01*
X68708228Y-59558084D02*
X68708228Y-59200941D01*
X68708228Y-59200941D02*
X68779657Y-59058084D01*
X68779657Y-59058084D02*
X68851085Y-58986655D01*
X68851085Y-58986655D02*
X68993942Y-58915226D01*
X68993942Y-58915226D02*
X69136800Y-58915226D01*
X69136800Y-58915226D02*
X69351085Y-58986655D01*
X69351085Y-58986655D02*
X70208228Y-59843798D01*
X70208228Y-59843798D02*
X70208228Y-58915226D01*
X68708228Y-58415227D02*
X68708228Y-57415227D01*
X68708228Y-57415227D02*
X70208228Y-58058084D01*
X70065371Y-55986656D02*
X70136800Y-56058084D01*
X70136800Y-56058084D02*
X70208228Y-56272370D01*
X70208228Y-56272370D02*
X70208228Y-56415227D01*
X70208228Y-56415227D02*
X70136800Y-56629513D01*
X70136800Y-56629513D02*
X69993942Y-56772370D01*
X69993942Y-56772370D02*
X69851085Y-56843799D01*
X69851085Y-56843799D02*
X69565371Y-56915227D01*
X69565371Y-56915227D02*
X69351085Y-56915227D01*
X69351085Y-56915227D02*
X69065371Y-56843799D01*
X69065371Y-56843799D02*
X68922514Y-56772370D01*
X68922514Y-56772370D02*
X68779657Y-56629513D01*
X68779657Y-56629513D02*
X68708228Y-56415227D01*
X68708228Y-56415227D02*
X68708228Y-56272370D01*
X68708228Y-56272370D02*
X68779657Y-56058084D01*
X68779657Y-56058084D02*
X68851085Y-55986656D01*
X68708228Y-54629513D02*
X68708228Y-55343799D01*
X68708228Y-55343799D02*
X69422514Y-55415227D01*
X69422514Y-55415227D02*
X69351085Y-55343799D01*
X69351085Y-55343799D02*
X69279657Y-55200942D01*
X69279657Y-55200942D02*
X69279657Y-54843799D01*
X69279657Y-54843799D02*
X69351085Y-54700942D01*
X69351085Y-54700942D02*
X69422514Y-54629513D01*
X69422514Y-54629513D02*
X69565371Y-54558084D01*
X69565371Y-54558084D02*
X69922514Y-54558084D01*
X69922514Y-54558084D02*
X70065371Y-54629513D01*
X70065371Y-54629513D02*
X70136800Y-54700942D01*
X70136800Y-54700942D02*
X70208228Y-54843799D01*
X70208228Y-54843799D02*
X70208228Y-55200942D01*
X70208228Y-55200942D02*
X70136800Y-55343799D01*
X70136800Y-55343799D02*
X70065371Y-55415227D01*
X70208228Y-53129513D02*
X70208228Y-53986656D01*
X70208228Y-53558085D02*
X68708228Y-53558085D01*
X68708228Y-53558085D02*
X68922514Y-53700942D01*
X68922514Y-53700942D02*
X69065371Y-53843799D01*
X69065371Y-53843799D02*
X69136800Y-53986656D01*
X68851085Y-52558085D02*
X68779657Y-52486657D01*
X68779657Y-52486657D02*
X68708228Y-52343800D01*
X68708228Y-52343800D02*
X68708228Y-51986657D01*
X68708228Y-51986657D02*
X68779657Y-51843800D01*
X68779657Y-51843800D02*
X68851085Y-51772371D01*
X68851085Y-51772371D02*
X68993942Y-51700942D01*
X68993942Y-51700942D02*
X69136800Y-51700942D01*
X69136800Y-51700942D02*
X69351085Y-51772371D01*
X69351085Y-51772371D02*
X70208228Y-52629514D01*
X70208228Y-52629514D02*
X70208228Y-51700942D01*
X72638228Y-64879513D02*
X71852514Y-64879513D01*
X71852514Y-64879513D02*
X71709657Y-64950941D01*
X71709657Y-64950941D02*
X71638228Y-65093798D01*
X71638228Y-65093798D02*
X71638228Y-65379513D01*
X71638228Y-65379513D02*
X71709657Y-65522370D01*
X72566800Y-64879513D02*
X72638228Y-65022370D01*
X72638228Y-65022370D02*
X72638228Y-65379513D01*
X72638228Y-65379513D02*
X72566800Y-65522370D01*
X72566800Y-65522370D02*
X72423942Y-65593798D01*
X72423942Y-65593798D02*
X72281085Y-65593798D01*
X72281085Y-65593798D02*
X72138228Y-65522370D01*
X72138228Y-65522370D02*
X72066800Y-65379513D01*
X72066800Y-65379513D02*
X72066800Y-65022370D01*
X72066800Y-65022370D02*
X71995371Y-64879513D01*
X72566800Y-64236655D02*
X72638228Y-64093798D01*
X72638228Y-64093798D02*
X72638228Y-63808084D01*
X72638228Y-63808084D02*
X72566800Y-63665227D01*
X72566800Y-63665227D02*
X72423942Y-63593798D01*
X72423942Y-63593798D02*
X72352514Y-63593798D01*
X72352514Y-63593798D02*
X72209657Y-63665227D01*
X72209657Y-63665227D02*
X72138228Y-63808084D01*
X72138228Y-63808084D02*
X72138228Y-64022370D01*
X72138228Y-64022370D02*
X72066800Y-64165227D01*
X72066800Y-64165227D02*
X71923942Y-64236655D01*
X71923942Y-64236655D02*
X71852514Y-64236655D01*
X71852514Y-64236655D02*
X71709657Y-64165227D01*
X71709657Y-64165227D02*
X71638228Y-64022370D01*
X71638228Y-64022370D02*
X71638228Y-63808084D01*
X71638228Y-63808084D02*
X71709657Y-63665227D01*
X72638228Y-61808084D02*
X71138228Y-61808084D01*
X72638228Y-60950941D02*
X71781085Y-61593798D01*
X71138228Y-60950941D02*
X71995371Y-61808084D01*
X72638228Y-60308084D02*
X71138228Y-60308084D01*
X71138228Y-60308084D02*
X71138228Y-59736655D01*
X71138228Y-59736655D02*
X71209657Y-59593798D01*
X71209657Y-59593798D02*
X71281085Y-59522369D01*
X71281085Y-59522369D02*
X71423942Y-59450941D01*
X71423942Y-59450941D02*
X71638228Y-59450941D01*
X71638228Y-59450941D02*
X71781085Y-59522369D01*
X71781085Y-59522369D02*
X71852514Y-59593798D01*
X71852514Y-59593798D02*
X71923942Y-59736655D01*
X71923942Y-59736655D02*
X71923942Y-60308084D01*
X71138228Y-58093798D02*
X71138228Y-58808084D01*
X71138228Y-58808084D02*
X71852514Y-58879512D01*
X71852514Y-58879512D02*
X71781085Y-58808084D01*
X71781085Y-58808084D02*
X71709657Y-58665227D01*
X71709657Y-58665227D02*
X71709657Y-58308084D01*
X71709657Y-58308084D02*
X71781085Y-58165227D01*
X71781085Y-58165227D02*
X71852514Y-58093798D01*
X71852514Y-58093798D02*
X71995371Y-58022369D01*
X71995371Y-58022369D02*
X72352514Y-58022369D01*
X72352514Y-58022369D02*
X72495371Y-58093798D01*
X72495371Y-58093798D02*
X72566800Y-58165227D01*
X72566800Y-58165227D02*
X72638228Y-58308084D01*
X72638228Y-58308084D02*
X72638228Y-58665227D01*
X72638228Y-58665227D02*
X72566800Y-58808084D01*
X72566800Y-58808084D02*
X72495371Y-58879512D01*
X71138228Y-56665227D02*
X71138228Y-57379513D01*
X71138228Y-57379513D02*
X71852514Y-57450941D01*
X71852514Y-57450941D02*
X71781085Y-57379513D01*
X71781085Y-57379513D02*
X71709657Y-57236656D01*
X71709657Y-57236656D02*
X71709657Y-56879513D01*
X71709657Y-56879513D02*
X71781085Y-56736656D01*
X71781085Y-56736656D02*
X71852514Y-56665227D01*
X71852514Y-56665227D02*
X71995371Y-56593798D01*
X71995371Y-56593798D02*
X72352514Y-56593798D01*
X72352514Y-56593798D02*
X72495371Y-56665227D01*
X72495371Y-56665227D02*
X72566800Y-56736656D01*
X72566800Y-56736656D02*
X72638228Y-56879513D01*
X72638228Y-56879513D02*
X72638228Y-57236656D01*
X72638228Y-57236656D02*
X72566800Y-57379513D01*
X72566800Y-57379513D02*
X72495371Y-57450941D01*
X71138228Y-55308085D02*
X71138228Y-55593799D01*
X71138228Y-55593799D02*
X71209657Y-55736656D01*
X71209657Y-55736656D02*
X71281085Y-55808085D01*
X71281085Y-55808085D02*
X71495371Y-55950942D01*
X71495371Y-55950942D02*
X71781085Y-56022370D01*
X71781085Y-56022370D02*
X72352514Y-56022370D01*
X72352514Y-56022370D02*
X72495371Y-55950942D01*
X72495371Y-55950942D02*
X72566800Y-55879513D01*
X72566800Y-55879513D02*
X72638228Y-55736656D01*
X72638228Y-55736656D02*
X72638228Y-55450942D01*
X72638228Y-55450942D02*
X72566800Y-55308085D01*
X72566800Y-55308085D02*
X72495371Y-55236656D01*
X72495371Y-55236656D02*
X72352514Y-55165227D01*
X72352514Y-55165227D02*
X71995371Y-55165227D01*
X71995371Y-55165227D02*
X71852514Y-55236656D01*
X71852514Y-55236656D02*
X71781085Y-55308085D01*
X71781085Y-55308085D02*
X71709657Y-55450942D01*
X71709657Y-55450942D02*
X71709657Y-55736656D01*
X71709657Y-55736656D02*
X71781085Y-55879513D01*
X71781085Y-55879513D02*
X71852514Y-55950942D01*
X71852514Y-55950942D02*
X71995371Y-56022370D01*
X72638228Y-54522371D02*
X71138228Y-54522371D01*
X71138228Y-54522371D02*
X71138228Y-53950942D01*
X71138228Y-53950942D02*
X71209657Y-53808085D01*
X71209657Y-53808085D02*
X71281085Y-53736656D01*
X71281085Y-53736656D02*
X71423942Y-53665228D01*
X71423942Y-53665228D02*
X71638228Y-53665228D01*
X71638228Y-53665228D02*
X71781085Y-53736656D01*
X71781085Y-53736656D02*
X71852514Y-53808085D01*
X71852514Y-53808085D02*
X71923942Y-53950942D01*
X71923942Y-53950942D02*
X71923942Y-54522371D01*
X71138228Y-53236656D02*
X71138228Y-52379514D01*
X72638228Y-52808085D02*
X71138228Y-52808085D01*
X71281085Y-51950942D02*
X71209657Y-51879514D01*
X71209657Y-51879514D02*
X71138228Y-51736657D01*
X71138228Y-51736657D02*
X71138228Y-51379514D01*
X71138228Y-51379514D02*
X71209657Y-51236657D01*
X71209657Y-51236657D02*
X71281085Y-51165228D01*
X71281085Y-51165228D02*
X71423942Y-51093799D01*
X71423942Y-51093799D02*
X71566800Y-51093799D01*
X71566800Y-51093799D02*
X71781085Y-51165228D01*
X71781085Y-51165228D02*
X72638228Y-52022371D01*
X72638228Y-52022371D02*
X72638228Y-51093799D01*
D12*
X110920114Y-73557628D02*
X110170114Y-73557628D01*
X110920114Y-73236200D02*
X110527257Y-73236200D01*
X110527257Y-73236200D02*
X110455828Y-73271914D01*
X110455828Y-73271914D02*
X110420114Y-73343342D01*
X110420114Y-73343342D02*
X110420114Y-73450485D01*
X110420114Y-73450485D02*
X110455828Y-73521914D01*
X110455828Y-73521914D02*
X110491542Y-73557628D01*
X110420114Y-72986200D02*
X110420114Y-72700486D01*
X110170114Y-72879057D02*
X110812971Y-72879057D01*
X110812971Y-72879057D02*
X110884400Y-72843343D01*
X110884400Y-72843343D02*
X110920114Y-72771914D01*
X110920114Y-72771914D02*
X110920114Y-72700486D01*
X110420114Y-72557629D02*
X110420114Y-72271915D01*
X110170114Y-72450486D02*
X110812971Y-72450486D01*
X110812971Y-72450486D02*
X110884400Y-72414772D01*
X110884400Y-72414772D02*
X110920114Y-72343343D01*
X110920114Y-72343343D02*
X110920114Y-72271915D01*
X110420114Y-72021915D02*
X111170114Y-72021915D01*
X110455828Y-72021915D02*
X110420114Y-71950487D01*
X110420114Y-71950487D02*
X110420114Y-71807629D01*
X110420114Y-71807629D02*
X110455828Y-71736201D01*
X110455828Y-71736201D02*
X110491542Y-71700487D01*
X110491542Y-71700487D02*
X110562971Y-71664772D01*
X110562971Y-71664772D02*
X110777257Y-71664772D01*
X110777257Y-71664772D02*
X110848685Y-71700487D01*
X110848685Y-71700487D02*
X110884400Y-71736201D01*
X110884400Y-71736201D02*
X110920114Y-71807629D01*
X110920114Y-71807629D02*
X110920114Y-71950487D01*
X110920114Y-71950487D02*
X110884400Y-72021915D01*
X110884400Y-71379058D02*
X110920114Y-71307630D01*
X110920114Y-71307630D02*
X110920114Y-71164773D01*
X110920114Y-71164773D02*
X110884400Y-71093344D01*
X110884400Y-71093344D02*
X110812971Y-71057630D01*
X110812971Y-71057630D02*
X110777257Y-71057630D01*
X110777257Y-71057630D02*
X110705828Y-71093344D01*
X110705828Y-71093344D02*
X110670114Y-71164773D01*
X110670114Y-71164773D02*
X110670114Y-71271916D01*
X110670114Y-71271916D02*
X110634400Y-71343344D01*
X110634400Y-71343344D02*
X110562971Y-71379058D01*
X110562971Y-71379058D02*
X110527257Y-71379058D01*
X110527257Y-71379058D02*
X110455828Y-71343344D01*
X110455828Y-71343344D02*
X110420114Y-71271916D01*
X110420114Y-71271916D02*
X110420114Y-71164773D01*
X110420114Y-71164773D02*
X110455828Y-71093344D01*
X110848685Y-70736201D02*
X110884400Y-70700487D01*
X110884400Y-70700487D02*
X110920114Y-70736201D01*
X110920114Y-70736201D02*
X110884400Y-70771915D01*
X110884400Y-70771915D02*
X110848685Y-70736201D01*
X110848685Y-70736201D02*
X110920114Y-70736201D01*
X110455828Y-70736201D02*
X110491542Y-70700487D01*
X110491542Y-70700487D02*
X110527257Y-70736201D01*
X110527257Y-70736201D02*
X110491542Y-70771915D01*
X110491542Y-70771915D02*
X110455828Y-70736201D01*
X110455828Y-70736201D02*
X110527257Y-70736201D01*
X110134400Y-69843344D02*
X111098685Y-70486201D01*
X110134400Y-69057630D02*
X111098685Y-69700487D01*
X110420114Y-68486202D02*
X111027257Y-68486202D01*
X111027257Y-68486202D02*
X111098685Y-68521916D01*
X111098685Y-68521916D02*
X111134400Y-68557630D01*
X111134400Y-68557630D02*
X111170114Y-68629059D01*
X111170114Y-68629059D02*
X111170114Y-68736202D01*
X111170114Y-68736202D02*
X111134400Y-68807630D01*
X110884400Y-68486202D02*
X110920114Y-68557630D01*
X110920114Y-68557630D02*
X110920114Y-68700487D01*
X110920114Y-68700487D02*
X110884400Y-68771916D01*
X110884400Y-68771916D02*
X110848685Y-68807630D01*
X110848685Y-68807630D02*
X110777257Y-68843344D01*
X110777257Y-68843344D02*
X110562971Y-68843344D01*
X110562971Y-68843344D02*
X110491542Y-68807630D01*
X110491542Y-68807630D02*
X110455828Y-68771916D01*
X110455828Y-68771916D02*
X110420114Y-68700487D01*
X110420114Y-68700487D02*
X110420114Y-68557630D01*
X110420114Y-68557630D02*
X110455828Y-68486202D01*
X110920114Y-68129059D02*
X110420114Y-68129059D01*
X110170114Y-68129059D02*
X110205828Y-68164773D01*
X110205828Y-68164773D02*
X110241542Y-68129059D01*
X110241542Y-68129059D02*
X110205828Y-68093345D01*
X110205828Y-68093345D02*
X110170114Y-68129059D01*
X110170114Y-68129059D02*
X110241542Y-68129059D01*
X110420114Y-67879059D02*
X110420114Y-67593345D01*
X110170114Y-67771916D02*
X110812971Y-67771916D01*
X110812971Y-67771916D02*
X110884400Y-67736202D01*
X110884400Y-67736202D02*
X110920114Y-67664773D01*
X110920114Y-67664773D02*
X110920114Y-67593345D01*
X110920114Y-67343345D02*
X110170114Y-67343345D01*
X110920114Y-67021917D02*
X110527257Y-67021917D01*
X110527257Y-67021917D02*
X110455828Y-67057631D01*
X110455828Y-67057631D02*
X110420114Y-67129059D01*
X110420114Y-67129059D02*
X110420114Y-67236202D01*
X110420114Y-67236202D02*
X110455828Y-67307631D01*
X110455828Y-67307631D02*
X110491542Y-67343345D01*
X110420114Y-66343346D02*
X110920114Y-66343346D01*
X110420114Y-66664774D02*
X110812971Y-66664774D01*
X110812971Y-66664774D02*
X110884400Y-66629060D01*
X110884400Y-66629060D02*
X110920114Y-66557631D01*
X110920114Y-66557631D02*
X110920114Y-66450488D01*
X110920114Y-66450488D02*
X110884400Y-66379060D01*
X110884400Y-66379060D02*
X110848685Y-66343346D01*
X110920114Y-65986203D02*
X110170114Y-65986203D01*
X110455828Y-65986203D02*
X110420114Y-65914775D01*
X110420114Y-65914775D02*
X110420114Y-65771917D01*
X110420114Y-65771917D02*
X110455828Y-65700489D01*
X110455828Y-65700489D02*
X110491542Y-65664775D01*
X110491542Y-65664775D02*
X110562971Y-65629060D01*
X110562971Y-65629060D02*
X110777257Y-65629060D01*
X110777257Y-65629060D02*
X110848685Y-65664775D01*
X110848685Y-65664775D02*
X110884400Y-65700489D01*
X110884400Y-65700489D02*
X110920114Y-65771917D01*
X110920114Y-65771917D02*
X110920114Y-65914775D01*
X110920114Y-65914775D02*
X110884400Y-65986203D01*
X110848685Y-65307632D02*
X110884400Y-65271918D01*
X110884400Y-65271918D02*
X110920114Y-65307632D01*
X110920114Y-65307632D02*
X110884400Y-65343346D01*
X110884400Y-65343346D02*
X110848685Y-65307632D01*
X110848685Y-65307632D02*
X110920114Y-65307632D01*
X110884400Y-64629061D02*
X110920114Y-64700489D01*
X110920114Y-64700489D02*
X110920114Y-64843346D01*
X110920114Y-64843346D02*
X110884400Y-64914775D01*
X110884400Y-64914775D02*
X110848685Y-64950489D01*
X110848685Y-64950489D02*
X110777257Y-64986203D01*
X110777257Y-64986203D02*
X110562971Y-64986203D01*
X110562971Y-64986203D02*
X110491542Y-64950489D01*
X110491542Y-64950489D02*
X110455828Y-64914775D01*
X110455828Y-64914775D02*
X110420114Y-64843346D01*
X110420114Y-64843346D02*
X110420114Y-64700489D01*
X110420114Y-64700489D02*
X110455828Y-64629061D01*
X110920114Y-64200489D02*
X110884400Y-64271918D01*
X110884400Y-64271918D02*
X110848685Y-64307632D01*
X110848685Y-64307632D02*
X110777257Y-64343346D01*
X110777257Y-64343346D02*
X110562971Y-64343346D01*
X110562971Y-64343346D02*
X110491542Y-64307632D01*
X110491542Y-64307632D02*
X110455828Y-64271918D01*
X110455828Y-64271918D02*
X110420114Y-64200489D01*
X110420114Y-64200489D02*
X110420114Y-64093346D01*
X110420114Y-64093346D02*
X110455828Y-64021918D01*
X110455828Y-64021918D02*
X110491542Y-63986204D01*
X110491542Y-63986204D02*
X110562971Y-63950489D01*
X110562971Y-63950489D02*
X110777257Y-63950489D01*
X110777257Y-63950489D02*
X110848685Y-63986204D01*
X110848685Y-63986204D02*
X110884400Y-64021918D01*
X110884400Y-64021918D02*
X110920114Y-64093346D01*
X110920114Y-64093346D02*
X110920114Y-64200489D01*
X110920114Y-63629061D02*
X110420114Y-63629061D01*
X110491542Y-63629061D02*
X110455828Y-63593347D01*
X110455828Y-63593347D02*
X110420114Y-63521918D01*
X110420114Y-63521918D02*
X110420114Y-63414775D01*
X110420114Y-63414775D02*
X110455828Y-63343347D01*
X110455828Y-63343347D02*
X110527257Y-63307633D01*
X110527257Y-63307633D02*
X110920114Y-63307633D01*
X110527257Y-63307633D02*
X110455828Y-63271918D01*
X110455828Y-63271918D02*
X110420114Y-63200490D01*
X110420114Y-63200490D02*
X110420114Y-63093347D01*
X110420114Y-63093347D02*
X110455828Y-63021918D01*
X110455828Y-63021918D02*
X110527257Y-62986204D01*
X110527257Y-62986204D02*
X110920114Y-62986204D01*
X110134400Y-62093347D02*
X111098685Y-62736204D01*
X110920114Y-61843347D02*
X110420114Y-61843347D01*
X110491542Y-61843347D02*
X110455828Y-61807633D01*
X110455828Y-61807633D02*
X110420114Y-61736204D01*
X110420114Y-61736204D02*
X110420114Y-61629061D01*
X110420114Y-61629061D02*
X110455828Y-61557633D01*
X110455828Y-61557633D02*
X110527257Y-61521919D01*
X110527257Y-61521919D02*
X110920114Y-61521919D01*
X110527257Y-61521919D02*
X110455828Y-61486204D01*
X110455828Y-61486204D02*
X110420114Y-61414776D01*
X110420114Y-61414776D02*
X110420114Y-61307633D01*
X110420114Y-61307633D02*
X110455828Y-61236204D01*
X110455828Y-61236204D02*
X110527257Y-61200490D01*
X110527257Y-61200490D02*
X110920114Y-61200490D01*
X110920114Y-60521919D02*
X110527257Y-60521919D01*
X110527257Y-60521919D02*
X110455828Y-60557633D01*
X110455828Y-60557633D02*
X110420114Y-60629061D01*
X110420114Y-60629061D02*
X110420114Y-60771919D01*
X110420114Y-60771919D02*
X110455828Y-60843347D01*
X110884400Y-60521919D02*
X110920114Y-60593347D01*
X110920114Y-60593347D02*
X110920114Y-60771919D01*
X110920114Y-60771919D02*
X110884400Y-60843347D01*
X110884400Y-60843347D02*
X110812971Y-60879061D01*
X110812971Y-60879061D02*
X110741542Y-60879061D01*
X110741542Y-60879061D02*
X110670114Y-60843347D01*
X110670114Y-60843347D02*
X110634400Y-60771919D01*
X110634400Y-60771919D02*
X110634400Y-60593347D01*
X110634400Y-60593347D02*
X110598685Y-60521919D01*
X110920114Y-59843348D02*
X110170114Y-59843348D01*
X110884400Y-59843348D02*
X110920114Y-59914776D01*
X110920114Y-59914776D02*
X110920114Y-60057633D01*
X110920114Y-60057633D02*
X110884400Y-60129062D01*
X110884400Y-60129062D02*
X110848685Y-60164776D01*
X110848685Y-60164776D02*
X110777257Y-60200490D01*
X110777257Y-60200490D02*
X110562971Y-60200490D01*
X110562971Y-60200490D02*
X110491542Y-60164776D01*
X110491542Y-60164776D02*
X110455828Y-60129062D01*
X110455828Y-60129062D02*
X110420114Y-60057633D01*
X110420114Y-60057633D02*
X110420114Y-59914776D01*
X110420114Y-59914776D02*
X110455828Y-59843348D01*
X110884400Y-59164777D02*
X110920114Y-59236205D01*
X110920114Y-59236205D02*
X110920114Y-59379062D01*
X110920114Y-59379062D02*
X110884400Y-59450491D01*
X110884400Y-59450491D02*
X110848685Y-59486205D01*
X110848685Y-59486205D02*
X110777257Y-59521919D01*
X110777257Y-59521919D02*
X110562971Y-59521919D01*
X110562971Y-59521919D02*
X110491542Y-59486205D01*
X110491542Y-59486205D02*
X110455828Y-59450491D01*
X110455828Y-59450491D02*
X110420114Y-59379062D01*
X110420114Y-59379062D02*
X110420114Y-59236205D01*
X110420114Y-59236205D02*
X110455828Y-59164777D01*
X110920114Y-58521920D02*
X110527257Y-58521920D01*
X110527257Y-58521920D02*
X110455828Y-58557634D01*
X110455828Y-58557634D02*
X110420114Y-58629062D01*
X110420114Y-58629062D02*
X110420114Y-58771920D01*
X110420114Y-58771920D02*
X110455828Y-58843348D01*
X110884400Y-58521920D02*
X110920114Y-58593348D01*
X110920114Y-58593348D02*
X110920114Y-58771920D01*
X110920114Y-58771920D02*
X110884400Y-58843348D01*
X110884400Y-58843348D02*
X110812971Y-58879062D01*
X110812971Y-58879062D02*
X110741542Y-58879062D01*
X110741542Y-58879062D02*
X110670114Y-58843348D01*
X110670114Y-58843348D02*
X110634400Y-58771920D01*
X110634400Y-58771920D02*
X110634400Y-58593348D01*
X110634400Y-58593348D02*
X110598685Y-58521920D01*
X110420114Y-58271920D02*
X110420114Y-57986206D01*
X110170114Y-58164777D02*
X110812971Y-58164777D01*
X110812971Y-58164777D02*
X110884400Y-58129063D01*
X110884400Y-58129063D02*
X110920114Y-58057634D01*
X110920114Y-58057634D02*
X110920114Y-57986206D01*
X110884400Y-57771920D02*
X110920114Y-57700492D01*
X110920114Y-57700492D02*
X110920114Y-57557635D01*
X110920114Y-57557635D02*
X110884400Y-57486206D01*
X110884400Y-57486206D02*
X110812971Y-57450492D01*
X110812971Y-57450492D02*
X110777257Y-57450492D01*
X110777257Y-57450492D02*
X110705828Y-57486206D01*
X110705828Y-57486206D02*
X110670114Y-57557635D01*
X110670114Y-57557635D02*
X110670114Y-57664778D01*
X110670114Y-57664778D02*
X110634400Y-57736206D01*
X110634400Y-57736206D02*
X110562971Y-57771920D01*
X110562971Y-57771920D02*
X110527257Y-57771920D01*
X110527257Y-57771920D02*
X110455828Y-57736206D01*
X110455828Y-57736206D02*
X110420114Y-57664778D01*
X110420114Y-57664778D02*
X110420114Y-57557635D01*
X110420114Y-57557635D02*
X110455828Y-57486206D01*
X110884400Y-56843349D02*
X110920114Y-56914777D01*
X110920114Y-56914777D02*
X110920114Y-57057635D01*
X110920114Y-57057635D02*
X110884400Y-57129063D01*
X110884400Y-57129063D02*
X110812971Y-57164777D01*
X110812971Y-57164777D02*
X110527257Y-57164777D01*
X110527257Y-57164777D02*
X110455828Y-57129063D01*
X110455828Y-57129063D02*
X110420114Y-57057635D01*
X110420114Y-57057635D02*
X110420114Y-56914777D01*
X110420114Y-56914777D02*
X110455828Y-56843349D01*
X110455828Y-56843349D02*
X110527257Y-56807635D01*
X110527257Y-56807635D02*
X110598685Y-56807635D01*
X110598685Y-56807635D02*
X110670114Y-57164777D01*
X110134400Y-55950492D02*
X111098685Y-56593349D01*
X110920114Y-55700492D02*
X110170114Y-55700492D01*
X110170114Y-55700492D02*
X110170114Y-55521921D01*
X110170114Y-55521921D02*
X110205828Y-55414778D01*
X110205828Y-55414778D02*
X110277257Y-55343349D01*
X110277257Y-55343349D02*
X110348685Y-55307635D01*
X110348685Y-55307635D02*
X110491542Y-55271921D01*
X110491542Y-55271921D02*
X110598685Y-55271921D01*
X110598685Y-55271921D02*
X110741542Y-55307635D01*
X110741542Y-55307635D02*
X110812971Y-55343349D01*
X110812971Y-55343349D02*
X110884400Y-55414778D01*
X110884400Y-55414778D02*
X110920114Y-55521921D01*
X110920114Y-55521921D02*
X110920114Y-55700492D01*
X110884400Y-54664778D02*
X110920114Y-54736206D01*
X110920114Y-54736206D02*
X110920114Y-54879064D01*
X110920114Y-54879064D02*
X110884400Y-54950492D01*
X110884400Y-54950492D02*
X110812971Y-54986206D01*
X110812971Y-54986206D02*
X110527257Y-54986206D01*
X110527257Y-54986206D02*
X110455828Y-54950492D01*
X110455828Y-54950492D02*
X110420114Y-54879064D01*
X110420114Y-54879064D02*
X110420114Y-54736206D01*
X110420114Y-54736206D02*
X110455828Y-54664778D01*
X110455828Y-54664778D02*
X110527257Y-54629064D01*
X110527257Y-54629064D02*
X110598685Y-54629064D01*
X110598685Y-54629064D02*
X110670114Y-54986206D01*
X110920114Y-54200492D02*
X110884400Y-54271921D01*
X110884400Y-54271921D02*
X110812971Y-54307635D01*
X110812971Y-54307635D02*
X110170114Y-54307635D01*
X110420114Y-54021921D02*
X110420114Y-53736207D01*
X110170114Y-53914778D02*
X110812971Y-53914778D01*
X110812971Y-53914778D02*
X110884400Y-53879064D01*
X110884400Y-53879064D02*
X110920114Y-53807635D01*
X110920114Y-53807635D02*
X110920114Y-53736207D01*
X110920114Y-53164779D02*
X110527257Y-53164779D01*
X110527257Y-53164779D02*
X110455828Y-53200493D01*
X110455828Y-53200493D02*
X110420114Y-53271921D01*
X110420114Y-53271921D02*
X110420114Y-53414779D01*
X110420114Y-53414779D02*
X110455828Y-53486207D01*
X110884400Y-53164779D02*
X110920114Y-53236207D01*
X110920114Y-53236207D02*
X110920114Y-53414779D01*
X110920114Y-53414779D02*
X110884400Y-53486207D01*
X110884400Y-53486207D02*
X110812971Y-53521921D01*
X110812971Y-53521921D02*
X110741542Y-53521921D01*
X110741542Y-53521921D02*
X110670114Y-53486207D01*
X110670114Y-53486207D02*
X110634400Y-53414779D01*
X110634400Y-53414779D02*
X110634400Y-53236207D01*
X110634400Y-53236207D02*
X110598685Y-53164779D01*
X110884400Y-52843350D02*
X110920114Y-52736208D01*
X110920114Y-52736208D02*
X110920114Y-52557636D01*
X110920114Y-52557636D02*
X110884400Y-52486208D01*
X110884400Y-52486208D02*
X110848685Y-52450493D01*
X110848685Y-52450493D02*
X110777257Y-52414779D01*
X110777257Y-52414779D02*
X110705828Y-52414779D01*
X110705828Y-52414779D02*
X110634400Y-52450493D01*
X110634400Y-52450493D02*
X110598685Y-52486208D01*
X110598685Y-52486208D02*
X110562971Y-52557636D01*
X110562971Y-52557636D02*
X110527257Y-52700493D01*
X110527257Y-52700493D02*
X110491542Y-52771922D01*
X110491542Y-52771922D02*
X110455828Y-52807636D01*
X110455828Y-52807636D02*
X110384400Y-52843350D01*
X110384400Y-52843350D02*
X110312971Y-52843350D01*
X110312971Y-52843350D02*
X110241542Y-52807636D01*
X110241542Y-52807636D02*
X110205828Y-52771922D01*
X110205828Y-52771922D02*
X110170114Y-52700493D01*
X110170114Y-52700493D02*
X110170114Y-52521922D01*
X110170114Y-52521922D02*
X110205828Y-52414779D01*
X110634400Y-52093350D02*
X110634400Y-51521922D01*
X110920114Y-51164779D02*
X110170114Y-51164779D01*
X110920114Y-50736208D02*
X110491542Y-51057636D01*
X110170114Y-50736208D02*
X110598685Y-51164779D01*
X110920114Y-49986208D02*
X110562971Y-50236208D01*
X110920114Y-50414779D02*
X110170114Y-50414779D01*
X110170114Y-50414779D02*
X110170114Y-50129065D01*
X110170114Y-50129065D02*
X110205828Y-50057636D01*
X110205828Y-50057636D02*
X110241542Y-50021922D01*
X110241542Y-50021922D02*
X110312971Y-49986208D01*
X110312971Y-49986208D02*
X110420114Y-49986208D01*
X110420114Y-49986208D02*
X110491542Y-50021922D01*
X110491542Y-50021922D02*
X110527257Y-50057636D01*
X110527257Y-50057636D02*
X110562971Y-50129065D01*
X110562971Y-50129065D02*
X110562971Y-50414779D01*
X110170114Y-49307636D02*
X110170114Y-49664779D01*
X110170114Y-49664779D02*
X110527257Y-49700493D01*
X110527257Y-49700493D02*
X110491542Y-49664779D01*
X110491542Y-49664779D02*
X110455828Y-49593351D01*
X110455828Y-49593351D02*
X110455828Y-49414779D01*
X110455828Y-49414779D02*
X110491542Y-49343351D01*
X110491542Y-49343351D02*
X110527257Y-49307636D01*
X110527257Y-49307636D02*
X110598685Y-49271922D01*
X110598685Y-49271922D02*
X110777257Y-49271922D01*
X110777257Y-49271922D02*
X110848685Y-49307636D01*
X110848685Y-49307636D02*
X110884400Y-49343351D01*
X110884400Y-49343351D02*
X110920114Y-49414779D01*
X110920114Y-49414779D02*
X110920114Y-49593351D01*
X110920114Y-49593351D02*
X110884400Y-49664779D01*
X110884400Y-49664779D02*
X110848685Y-49700493D01*
X110170114Y-48593350D02*
X110170114Y-48950493D01*
X110170114Y-48950493D02*
X110527257Y-48986207D01*
X110527257Y-48986207D02*
X110491542Y-48950493D01*
X110491542Y-48950493D02*
X110455828Y-48879065D01*
X110455828Y-48879065D02*
X110455828Y-48700493D01*
X110455828Y-48700493D02*
X110491542Y-48629065D01*
X110491542Y-48629065D02*
X110527257Y-48593350D01*
X110527257Y-48593350D02*
X110598685Y-48557636D01*
X110598685Y-48557636D02*
X110777257Y-48557636D01*
X110777257Y-48557636D02*
X110848685Y-48593350D01*
X110848685Y-48593350D02*
X110884400Y-48629065D01*
X110884400Y-48629065D02*
X110920114Y-48700493D01*
X110920114Y-48700493D02*
X110920114Y-48879065D01*
X110920114Y-48879065D02*
X110884400Y-48950493D01*
X110884400Y-48950493D02*
X110848685Y-48986207D01*
X110170114Y-47914779D02*
X110170114Y-48057636D01*
X110170114Y-48057636D02*
X110205828Y-48129064D01*
X110205828Y-48129064D02*
X110241542Y-48164779D01*
X110241542Y-48164779D02*
X110348685Y-48236207D01*
X110348685Y-48236207D02*
X110491542Y-48271921D01*
X110491542Y-48271921D02*
X110777257Y-48271921D01*
X110777257Y-48271921D02*
X110848685Y-48236207D01*
X110848685Y-48236207D02*
X110884400Y-48200493D01*
X110884400Y-48200493D02*
X110920114Y-48129064D01*
X110920114Y-48129064D02*
X110920114Y-47986207D01*
X110920114Y-47986207D02*
X110884400Y-47914779D01*
X110884400Y-47914779D02*
X110848685Y-47879064D01*
X110848685Y-47879064D02*
X110777257Y-47843350D01*
X110777257Y-47843350D02*
X110598685Y-47843350D01*
X110598685Y-47843350D02*
X110527257Y-47879064D01*
X110527257Y-47879064D02*
X110491542Y-47914779D01*
X110491542Y-47914779D02*
X110455828Y-47986207D01*
X110455828Y-47986207D02*
X110455828Y-48129064D01*
X110455828Y-48129064D02*
X110491542Y-48200493D01*
X110491542Y-48200493D02*
X110527257Y-48236207D01*
X110527257Y-48236207D02*
X110598685Y-48271921D01*
X110920114Y-47093350D02*
X110562971Y-47343350D01*
X110920114Y-47521921D02*
X110170114Y-47521921D01*
X110170114Y-47521921D02*
X110170114Y-47236207D01*
X110170114Y-47236207D02*
X110205828Y-47164778D01*
X110205828Y-47164778D02*
X110241542Y-47129064D01*
X110241542Y-47129064D02*
X110312971Y-47093350D01*
X110312971Y-47093350D02*
X110420114Y-47093350D01*
X110420114Y-47093350D02*
X110491542Y-47129064D01*
X110491542Y-47129064D02*
X110527257Y-47164778D01*
X110527257Y-47164778D02*
X110562971Y-47236207D01*
X110562971Y-47236207D02*
X110562971Y-47521921D01*
X110170114Y-46879064D02*
X110170114Y-46450493D01*
X110920114Y-46664778D02*
X110170114Y-46664778D01*
X110241542Y-46236206D02*
X110205828Y-46200492D01*
X110205828Y-46200492D02*
X110170114Y-46129064D01*
X110170114Y-46129064D02*
X110170114Y-45950492D01*
X110170114Y-45950492D02*
X110205828Y-45879064D01*
X110205828Y-45879064D02*
X110241542Y-45843349D01*
X110241542Y-45843349D02*
X110312971Y-45807635D01*
X110312971Y-45807635D02*
X110384400Y-45807635D01*
X110384400Y-45807635D02*
X110491542Y-45843349D01*
X110491542Y-45843349D02*
X110920114Y-46271921D01*
X110920114Y-46271921D02*
X110920114Y-45807635D01*
X110634400Y-45486206D02*
X110634400Y-44914778D01*
X110527257Y-44557635D02*
X110527257Y-44307635D01*
X110920114Y-44200492D02*
X110920114Y-44557635D01*
X110920114Y-44557635D02*
X110170114Y-44557635D01*
X110170114Y-44557635D02*
X110170114Y-44200492D01*
X110920114Y-43879064D02*
X110170114Y-43879064D01*
X110170114Y-43879064D02*
X110170114Y-43593350D01*
X110170114Y-43593350D02*
X110205828Y-43521921D01*
X110205828Y-43521921D02*
X110241542Y-43486207D01*
X110241542Y-43486207D02*
X110312971Y-43450493D01*
X110312971Y-43450493D02*
X110420114Y-43450493D01*
X110420114Y-43450493D02*
X110491542Y-43486207D01*
X110491542Y-43486207D02*
X110527257Y-43521921D01*
X110527257Y-43521921D02*
X110562971Y-43593350D01*
X110562971Y-43593350D02*
X110562971Y-43879064D01*
X110920114Y-42700493D02*
X110562971Y-42950493D01*
X110920114Y-43129064D02*
X110170114Y-43129064D01*
X110170114Y-43129064D02*
X110170114Y-42843350D01*
X110170114Y-42843350D02*
X110205828Y-42771921D01*
X110205828Y-42771921D02*
X110241542Y-42736207D01*
X110241542Y-42736207D02*
X110312971Y-42700493D01*
X110312971Y-42700493D02*
X110420114Y-42700493D01*
X110420114Y-42700493D02*
X110491542Y-42736207D01*
X110491542Y-42736207D02*
X110527257Y-42771921D01*
X110527257Y-42771921D02*
X110562971Y-42843350D01*
X110562971Y-42843350D02*
X110562971Y-43129064D01*
X110170114Y-42236207D02*
X110170114Y-42093350D01*
X110170114Y-42093350D02*
X110205828Y-42021921D01*
X110205828Y-42021921D02*
X110277257Y-41950493D01*
X110277257Y-41950493D02*
X110420114Y-41914778D01*
X110420114Y-41914778D02*
X110670114Y-41914778D01*
X110670114Y-41914778D02*
X110812971Y-41950493D01*
X110812971Y-41950493D02*
X110884400Y-42021921D01*
X110884400Y-42021921D02*
X110920114Y-42093350D01*
X110920114Y-42093350D02*
X110920114Y-42236207D01*
X110920114Y-42236207D02*
X110884400Y-42307636D01*
X110884400Y-42307636D02*
X110812971Y-42379064D01*
X110812971Y-42379064D02*
X110670114Y-42414778D01*
X110670114Y-42414778D02*
X110420114Y-42414778D01*
X110420114Y-42414778D02*
X110277257Y-42379064D01*
X110277257Y-42379064D02*
X110205828Y-42307636D01*
X110205828Y-42307636D02*
X110170114Y-42236207D01*
X110920114Y-41593350D02*
X110170114Y-41593350D01*
X110170114Y-41593350D02*
X110705828Y-41343350D01*
X110705828Y-41343350D02*
X110170114Y-41093350D01*
X110170114Y-41093350D02*
X110920114Y-41093350D01*
X94006171Y-39241314D02*
X94006171Y-38491314D01*
X94006171Y-38491314D02*
X94256171Y-39027028D01*
X94256171Y-39027028D02*
X94506171Y-38491314D01*
X94506171Y-38491314D02*
X94506171Y-39241314D01*
X95184743Y-39241314D02*
X95184743Y-38848457D01*
X95184743Y-38848457D02*
X95149028Y-38777028D01*
X95149028Y-38777028D02*
X95077600Y-38741314D01*
X95077600Y-38741314D02*
X94934743Y-38741314D01*
X94934743Y-38741314D02*
X94863314Y-38777028D01*
X95184743Y-39205600D02*
X95113314Y-39241314D01*
X95113314Y-39241314D02*
X94934743Y-39241314D01*
X94934743Y-39241314D02*
X94863314Y-39205600D01*
X94863314Y-39205600D02*
X94827600Y-39134171D01*
X94827600Y-39134171D02*
X94827600Y-39062742D01*
X94827600Y-39062742D02*
X94863314Y-38991314D01*
X94863314Y-38991314D02*
X94934743Y-38955600D01*
X94934743Y-38955600D02*
X95113314Y-38955600D01*
X95113314Y-38955600D02*
X95184743Y-38919885D01*
X95863314Y-39241314D02*
X95863314Y-38491314D01*
X95863314Y-39205600D02*
X95791885Y-39241314D01*
X95791885Y-39241314D02*
X95649028Y-39241314D01*
X95649028Y-39241314D02*
X95577599Y-39205600D01*
X95577599Y-39205600D02*
X95541885Y-39169885D01*
X95541885Y-39169885D02*
X95506171Y-39098457D01*
X95506171Y-39098457D02*
X95506171Y-38884171D01*
X95506171Y-38884171D02*
X95541885Y-38812742D01*
X95541885Y-38812742D02*
X95577599Y-38777028D01*
X95577599Y-38777028D02*
X95649028Y-38741314D01*
X95649028Y-38741314D02*
X95791885Y-38741314D01*
X95791885Y-38741314D02*
X95863314Y-38777028D01*
X96649027Y-39169885D02*
X96613313Y-39205600D01*
X96613313Y-39205600D02*
X96506170Y-39241314D01*
X96506170Y-39241314D02*
X96434742Y-39241314D01*
X96434742Y-39241314D02*
X96327599Y-39205600D01*
X96327599Y-39205600D02*
X96256170Y-39134171D01*
X96256170Y-39134171D02*
X96220456Y-39062742D01*
X96220456Y-39062742D02*
X96184742Y-38919885D01*
X96184742Y-38919885D02*
X96184742Y-38812742D01*
X96184742Y-38812742D02*
X96220456Y-38669885D01*
X96220456Y-38669885D02*
X96256170Y-38598457D01*
X96256170Y-38598457D02*
X96327599Y-38527028D01*
X96327599Y-38527028D02*
X96434742Y-38491314D01*
X96434742Y-38491314D02*
X96506170Y-38491314D01*
X96506170Y-38491314D02*
X96613313Y-38527028D01*
X96613313Y-38527028D02*
X96649027Y-38562742D01*
X97291885Y-39241314D02*
X97291885Y-38848457D01*
X97291885Y-38848457D02*
X97256170Y-38777028D01*
X97256170Y-38777028D02*
X97184742Y-38741314D01*
X97184742Y-38741314D02*
X97041885Y-38741314D01*
X97041885Y-38741314D02*
X96970456Y-38777028D01*
X97291885Y-39205600D02*
X97220456Y-39241314D01*
X97220456Y-39241314D02*
X97041885Y-39241314D01*
X97041885Y-39241314D02*
X96970456Y-39205600D01*
X96970456Y-39205600D02*
X96934742Y-39134171D01*
X96934742Y-39134171D02*
X96934742Y-39062742D01*
X96934742Y-39062742D02*
X96970456Y-38991314D01*
X96970456Y-38991314D02*
X97041885Y-38955600D01*
X97041885Y-38955600D02*
X97220456Y-38955600D01*
X97220456Y-38955600D02*
X97291885Y-38919885D01*
X97541884Y-38741314D02*
X97827598Y-38741314D01*
X97649027Y-38491314D02*
X97649027Y-39134171D01*
X97649027Y-39134171D02*
X97684741Y-39205600D01*
X97684741Y-39205600D02*
X97756170Y-39241314D01*
X97756170Y-39241314D02*
X97827598Y-39241314D01*
X98613313Y-38562742D02*
X98649027Y-38527028D01*
X98649027Y-38527028D02*
X98720456Y-38491314D01*
X98720456Y-38491314D02*
X98899027Y-38491314D01*
X98899027Y-38491314D02*
X98970456Y-38527028D01*
X98970456Y-38527028D02*
X99006170Y-38562742D01*
X99006170Y-38562742D02*
X99041884Y-38634171D01*
X99041884Y-38634171D02*
X99041884Y-38705600D01*
X99041884Y-38705600D02*
X99006170Y-38812742D01*
X99006170Y-38812742D02*
X98577598Y-39241314D01*
X98577598Y-39241314D02*
X99041884Y-39241314D01*
X99506170Y-38491314D02*
X99577599Y-38491314D01*
X99577599Y-38491314D02*
X99649027Y-38527028D01*
X99649027Y-38527028D02*
X99684742Y-38562742D01*
X99684742Y-38562742D02*
X99720456Y-38634171D01*
X99720456Y-38634171D02*
X99756170Y-38777028D01*
X99756170Y-38777028D02*
X99756170Y-38955600D01*
X99756170Y-38955600D02*
X99720456Y-39098457D01*
X99720456Y-39098457D02*
X99684742Y-39169885D01*
X99684742Y-39169885D02*
X99649027Y-39205600D01*
X99649027Y-39205600D02*
X99577599Y-39241314D01*
X99577599Y-39241314D02*
X99506170Y-39241314D01*
X99506170Y-39241314D02*
X99434742Y-39205600D01*
X99434742Y-39205600D02*
X99399027Y-39169885D01*
X99399027Y-39169885D02*
X99363313Y-39098457D01*
X99363313Y-39098457D02*
X99327599Y-38955600D01*
X99327599Y-38955600D02*
X99327599Y-38777028D01*
X99327599Y-38777028D02*
X99363313Y-38634171D01*
X99363313Y-38634171D02*
X99399027Y-38562742D01*
X99399027Y-38562742D02*
X99434742Y-38527028D01*
X99434742Y-38527028D02*
X99506170Y-38491314D01*
X100041885Y-38562742D02*
X100077599Y-38527028D01*
X100077599Y-38527028D02*
X100149028Y-38491314D01*
X100149028Y-38491314D02*
X100327599Y-38491314D01*
X100327599Y-38491314D02*
X100399028Y-38527028D01*
X100399028Y-38527028D02*
X100434742Y-38562742D01*
X100434742Y-38562742D02*
X100470456Y-38634171D01*
X100470456Y-38634171D02*
X100470456Y-38705600D01*
X100470456Y-38705600D02*
X100434742Y-38812742D01*
X100434742Y-38812742D02*
X100006170Y-39241314D01*
X100006170Y-39241314D02*
X100470456Y-39241314D01*
X100720456Y-38491314D02*
X101184742Y-38491314D01*
X101184742Y-38491314D02*
X100934742Y-38777028D01*
X100934742Y-38777028D02*
X101041885Y-38777028D01*
X101041885Y-38777028D02*
X101113314Y-38812742D01*
X101113314Y-38812742D02*
X101149028Y-38848457D01*
X101149028Y-38848457D02*
X101184742Y-38919885D01*
X101184742Y-38919885D02*
X101184742Y-39098457D01*
X101184742Y-39098457D02*
X101149028Y-39169885D01*
X101149028Y-39169885D02*
X101113314Y-39205600D01*
X101113314Y-39205600D02*
X101041885Y-39241314D01*
X101041885Y-39241314D02*
X100827599Y-39241314D01*
X100827599Y-39241314D02*
X100756171Y-39205600D01*
X100756171Y-39205600D02*
X100720456Y-39169885D01*
X101970457Y-38491314D02*
X102220457Y-39241314D01*
X102220457Y-39241314D02*
X102470457Y-38491314D01*
X103006171Y-39205600D02*
X102934743Y-39241314D01*
X102934743Y-39241314D02*
X102791886Y-39241314D01*
X102791886Y-39241314D02*
X102720457Y-39205600D01*
X102720457Y-39205600D02*
X102684743Y-39134171D01*
X102684743Y-39134171D02*
X102684743Y-38848457D01*
X102684743Y-38848457D02*
X102720457Y-38777028D01*
X102720457Y-38777028D02*
X102791886Y-38741314D01*
X102791886Y-38741314D02*
X102934743Y-38741314D01*
X102934743Y-38741314D02*
X103006171Y-38777028D01*
X103006171Y-38777028D02*
X103041886Y-38848457D01*
X103041886Y-38848457D02*
X103041886Y-38919885D01*
X103041886Y-38919885D02*
X102684743Y-38991314D01*
X103363314Y-39241314D02*
X103363314Y-38741314D01*
X103363314Y-38884171D02*
X103399028Y-38812742D01*
X103399028Y-38812742D02*
X103434743Y-38777028D01*
X103434743Y-38777028D02*
X103506171Y-38741314D01*
X103506171Y-38741314D02*
X103577600Y-38741314D01*
X103827600Y-39169885D02*
X103863314Y-39205600D01*
X103863314Y-39205600D02*
X103827600Y-39241314D01*
X103827600Y-39241314D02*
X103791886Y-39205600D01*
X103791886Y-39205600D02*
X103827600Y-39169885D01*
X103827600Y-39169885D02*
X103827600Y-39241314D01*
X104577600Y-39241314D02*
X104149029Y-39241314D01*
X104363314Y-39241314D02*
X104363314Y-38491314D01*
X104363314Y-38491314D02*
X104291886Y-38598457D01*
X104291886Y-38598457D02*
X104220457Y-38669885D01*
X104220457Y-38669885D02*
X104149029Y-38705600D01*
D13*
%TO.C,U1*%
X65801417Y-76065507D02*
X65849036Y-76017888D01*
X65849036Y-76017888D02*
X65944274Y-75970269D01*
X65944274Y-75970269D02*
X66182369Y-75970269D01*
X66182369Y-75970269D02*
X66277607Y-76017888D01*
X66277607Y-76017888D02*
X66325226Y-76065507D01*
X66325226Y-76065507D02*
X66372845Y-76160745D01*
X66372845Y-76160745D02*
X66372845Y-76255983D01*
X66372845Y-76255983D02*
X66325226Y-76398840D01*
X66325226Y-76398840D02*
X65753798Y-76970269D01*
X65753798Y-76970269D02*
X66372845Y-76970269D01*
X66706179Y-75970269D02*
X67372845Y-75970269D01*
X67372845Y-75970269D02*
X66944274Y-76970269D01*
X68325226Y-76875030D02*
X68277607Y-76922650D01*
X68277607Y-76922650D02*
X68134750Y-76970269D01*
X68134750Y-76970269D02*
X68039512Y-76970269D01*
X68039512Y-76970269D02*
X67896655Y-76922650D01*
X67896655Y-76922650D02*
X67801417Y-76827411D01*
X67801417Y-76827411D02*
X67753798Y-76732173D01*
X67753798Y-76732173D02*
X67706179Y-76541697D01*
X67706179Y-76541697D02*
X67706179Y-76398840D01*
X67706179Y-76398840D02*
X67753798Y-76208364D01*
X67753798Y-76208364D02*
X67801417Y-76113126D01*
X67801417Y-76113126D02*
X67896655Y-76017888D01*
X67896655Y-76017888D02*
X68039512Y-75970269D01*
X68039512Y-75970269D02*
X68134750Y-75970269D01*
X68134750Y-75970269D02*
X68277607Y-76017888D01*
X68277607Y-76017888D02*
X68325226Y-76065507D01*
X69229988Y-75970269D02*
X68753798Y-75970269D01*
X68753798Y-75970269D02*
X68706179Y-76446459D01*
X68706179Y-76446459D02*
X68753798Y-76398840D01*
X68753798Y-76398840D02*
X68849036Y-76351221D01*
X68849036Y-76351221D02*
X69087131Y-76351221D01*
X69087131Y-76351221D02*
X69182369Y-76398840D01*
X69182369Y-76398840D02*
X69229988Y-76446459D01*
X69229988Y-76446459D02*
X69277607Y-76541697D01*
X69277607Y-76541697D02*
X69277607Y-76779792D01*
X69277607Y-76779792D02*
X69229988Y-76875030D01*
X69229988Y-76875030D02*
X69182369Y-76922650D01*
X69182369Y-76922650D02*
X69087131Y-76970269D01*
X69087131Y-76970269D02*
X68849036Y-76970269D01*
X68849036Y-76970269D02*
X68753798Y-76922650D01*
X68753798Y-76922650D02*
X68706179Y-76875030D01*
X70229988Y-76970269D02*
X69658560Y-76970269D01*
X69944274Y-76970269D02*
X69944274Y-75970269D01*
X69944274Y-75970269D02*
X69849036Y-76113126D01*
X69849036Y-76113126D02*
X69753798Y-76208364D01*
X69753798Y-76208364D02*
X69658560Y-76255983D01*
X70610941Y-76065507D02*
X70658560Y-76017888D01*
X70658560Y-76017888D02*
X70753798Y-75970269D01*
X70753798Y-75970269D02*
X70991893Y-75970269D01*
X70991893Y-75970269D02*
X71087131Y-76017888D01*
X71087131Y-76017888D02*
X71134750Y-76065507D01*
X71134750Y-76065507D02*
X71182369Y-76160745D01*
X71182369Y-76160745D02*
X71182369Y-76255983D01*
X71182369Y-76255983D02*
X71134750Y-76398840D01*
X71134750Y-76398840D02*
X70563322Y-76970269D01*
X70563322Y-76970269D02*
X71182369Y-76970269D01*
%TO.C,U3*%
X92870781Y-76992819D02*
X92870781Y-75992819D01*
X93442209Y-76992819D02*
X93013638Y-76421390D01*
X93442209Y-75992819D02*
X92870781Y-76564247D01*
X93870781Y-76992819D02*
X93870781Y-75992819D01*
X93870781Y-75992819D02*
X94251733Y-75992819D01*
X94251733Y-75992819D02*
X94346971Y-76040438D01*
X94346971Y-76040438D02*
X94394590Y-76088057D01*
X94394590Y-76088057D02*
X94442209Y-76183295D01*
X94442209Y-76183295D02*
X94442209Y-76326152D01*
X94442209Y-76326152D02*
X94394590Y-76421390D01*
X94394590Y-76421390D02*
X94346971Y-76469009D01*
X94346971Y-76469009D02*
X94251733Y-76516628D01*
X94251733Y-76516628D02*
X93870781Y-76516628D01*
X95346971Y-75992819D02*
X94870781Y-75992819D01*
X94870781Y-75992819D02*
X94823162Y-76469009D01*
X94823162Y-76469009D02*
X94870781Y-76421390D01*
X94870781Y-76421390D02*
X94966019Y-76373771D01*
X94966019Y-76373771D02*
X95204114Y-76373771D01*
X95204114Y-76373771D02*
X95299352Y-76421390D01*
X95299352Y-76421390D02*
X95346971Y-76469009D01*
X95346971Y-76469009D02*
X95394590Y-76564247D01*
X95394590Y-76564247D02*
X95394590Y-76802342D01*
X95394590Y-76802342D02*
X95346971Y-76897580D01*
X95346971Y-76897580D02*
X95299352Y-76945200D01*
X95299352Y-76945200D02*
X95204114Y-76992819D01*
X95204114Y-76992819D02*
X94966019Y-76992819D01*
X94966019Y-76992819D02*
X94870781Y-76945200D01*
X94870781Y-76945200D02*
X94823162Y-76897580D01*
X96299352Y-75992819D02*
X95823162Y-75992819D01*
X95823162Y-75992819D02*
X95775543Y-76469009D01*
X95775543Y-76469009D02*
X95823162Y-76421390D01*
X95823162Y-76421390D02*
X95918400Y-76373771D01*
X95918400Y-76373771D02*
X96156495Y-76373771D01*
X96156495Y-76373771D02*
X96251733Y-76421390D01*
X96251733Y-76421390D02*
X96299352Y-76469009D01*
X96299352Y-76469009D02*
X96346971Y-76564247D01*
X96346971Y-76564247D02*
X96346971Y-76802342D01*
X96346971Y-76802342D02*
X96299352Y-76897580D01*
X96299352Y-76897580D02*
X96251733Y-76945200D01*
X96251733Y-76945200D02*
X96156495Y-76992819D01*
X96156495Y-76992819D02*
X95918400Y-76992819D01*
X95918400Y-76992819D02*
X95823162Y-76945200D01*
X95823162Y-76945200D02*
X95775543Y-76897580D01*
X97204114Y-75992819D02*
X97013638Y-75992819D01*
X97013638Y-75992819D02*
X96918400Y-76040438D01*
X96918400Y-76040438D02*
X96870781Y-76088057D01*
X96870781Y-76088057D02*
X96775543Y-76230914D01*
X96775543Y-76230914D02*
X96727924Y-76421390D01*
X96727924Y-76421390D02*
X96727924Y-76802342D01*
X96727924Y-76802342D02*
X96775543Y-76897580D01*
X96775543Y-76897580D02*
X96823162Y-76945200D01*
X96823162Y-76945200D02*
X96918400Y-76992819D01*
X96918400Y-76992819D02*
X97108876Y-76992819D01*
X97108876Y-76992819D02*
X97204114Y-76945200D01*
X97204114Y-76945200D02*
X97251733Y-76897580D01*
X97251733Y-76897580D02*
X97299352Y-76802342D01*
X97299352Y-76802342D02*
X97299352Y-76564247D01*
X97299352Y-76564247D02*
X97251733Y-76469009D01*
X97251733Y-76469009D02*
X97204114Y-76421390D01*
X97204114Y-76421390D02*
X97108876Y-76373771D01*
X97108876Y-76373771D02*
X96918400Y-76373771D01*
X96918400Y-76373771D02*
X96823162Y-76421390D01*
X96823162Y-76421390D02*
X96775543Y-76469009D01*
X96775543Y-76469009D02*
X96727924Y-76564247D01*
X97727924Y-76992819D02*
X97727924Y-75992819D01*
X97727924Y-75992819D02*
X98108876Y-75992819D01*
X98108876Y-75992819D02*
X98204114Y-76040438D01*
X98204114Y-76040438D02*
X98251733Y-76088057D01*
X98251733Y-76088057D02*
X98299352Y-76183295D01*
X98299352Y-76183295D02*
X98299352Y-76326152D01*
X98299352Y-76326152D02*
X98251733Y-76421390D01*
X98251733Y-76421390D02*
X98204114Y-76469009D01*
X98204114Y-76469009D02*
X98108876Y-76516628D01*
X98108876Y-76516628D02*
X97727924Y-76516628D01*
X98585067Y-75992819D02*
X99156495Y-75992819D01*
X98870781Y-76992819D02*
X98870781Y-75992819D01*
X99442210Y-76088057D02*
X99489829Y-76040438D01*
X99489829Y-76040438D02*
X99585067Y-75992819D01*
X99585067Y-75992819D02*
X99823162Y-75992819D01*
X99823162Y-75992819D02*
X99918400Y-76040438D01*
X99918400Y-76040438D02*
X99966019Y-76088057D01*
X99966019Y-76088057D02*
X100013638Y-76183295D01*
X100013638Y-76183295D02*
X100013638Y-76278533D01*
X100013638Y-76278533D02*
X99966019Y-76421390D01*
X99966019Y-76421390D02*
X99394591Y-76992819D01*
X99394591Y-76992819D02*
X100013638Y-76992819D01*
D14*
%TO.C,U1*%
X62590693Y-39770050D02*
X62590693Y-75450050D01*
X62590693Y-75450050D02*
X75510693Y-75450050D01*
X68050693Y-39770050D02*
X62590693Y-39770050D01*
X75510693Y-39770050D02*
X70050693Y-39770050D01*
X75510693Y-75450050D02*
X75510693Y-39770050D01*
D15*
X60414693Y-39770050D02*
X62590693Y-39770050D01*
X62590693Y-39770050D02*
X62590693Y-75390050D01*
X62590693Y-75390050D02*
X60414693Y-75390050D01*
X60414693Y-75390050D02*
X60414693Y-39770050D01*
X75510693Y-39830050D02*
X77686693Y-39830050D01*
X77686693Y-39830050D02*
X77686693Y-75450050D01*
X77686693Y-75450050D02*
X75510693Y-75450050D01*
X75510693Y-75450050D02*
X75510693Y-39830050D01*
D14*
X68050693Y-39770050D02*
G75*
G03*
X70050693Y-39770050I1000000J0D01*
G01*
%TO.C,U3*%
X88078000Y-39756750D02*
X88078000Y-75556750D01*
X88078000Y-75556750D02*
X105978000Y-75556750D01*
X90568000Y-39816750D02*
X90568000Y-75496750D01*
X90568000Y-75496750D02*
X103488000Y-75496750D01*
X96012000Y-39756750D02*
X88078000Y-39756750D01*
X96028000Y-39816750D02*
X90568000Y-39816750D01*
X103488000Y-39816750D02*
X98028000Y-39816750D01*
X103488000Y-75496750D02*
X103488000Y-39816750D01*
X105978000Y-39756750D02*
X98044000Y-39756750D01*
X105978000Y-75556750D02*
X105978000Y-39756750D01*
X96028000Y-39816750D02*
G75*
G03*
X98028000Y-39816750I1000000J0D01*
G01*
%TD*%
M02*
