%TF.GenerationSoftware,KiCad,Pcbnew,7.0.1*%
%TF.CreationDate,2023-07-22T01:47:03+03:00*%
%TF.ProjectId,kr556rt2,6b723535-3672-4743-922e-6b696361645f,rev?*%
%TF.SameCoordinates,Original*%
%TF.FileFunction,Drillmap*%
%TF.FilePolarity,Positive*%
%FSLAX45Y45*%
G04 Gerber Fmt 4.5, Leading zero omitted, Abs format (unit mm)*
G04 Created by KiCad (PCBNEW 7.0.1) date 2023-07-22 01:47:03*
%MOMM*%
%LPD*%
G01*
G04 APERTURE LIST*
%ADD10C,0.100000*%
%ADD11C,0.200000*%
%ADD12C,0.080000*%
G04 APERTURE END LIST*
D10*
X5954700Y-3810000D02*
X8256012Y-3810000D01*
X8641668Y-7432128D02*
G75*
G03*
X8356012Y-7432128I-142828J0D01*
G01*
X8356012Y-4187872D02*
G75*
G03*
X8641668Y-4187872I142828J0D01*
G01*
X8356600Y-5444196D02*
X8356600Y-4923108D01*
X8741668Y-7810000D02*
X11042980Y-7810000D01*
X8741668Y-3809998D02*
G75*
G03*
X8641668Y-3910000I2J-100002D01*
G01*
X11142980Y-3910000D02*
G75*
G03*
X11042980Y-3810000I-100000J0D01*
G01*
X8356600Y-6690748D02*
X8356600Y-6169660D01*
X8641670Y-7710000D02*
G75*
G03*
X8741668Y-7810000I100000J0D01*
G01*
X8741668Y-3810000D02*
X11042980Y-3810000D01*
X8356010Y-3910000D02*
G75*
G03*
X8256012Y-3810000I-100000J0D01*
G01*
X8642255Y-6169660D02*
G75*
G03*
X8356600Y-6169660I-142828J0D01*
G01*
X8356600Y-6690748D02*
G75*
G03*
X8642255Y-6690748I142828J0D01*
G01*
X8642255Y-6690748D02*
X8642255Y-6169660D01*
X5954700Y-7810000D02*
X8256012Y-7810000D01*
X5854700Y-7710000D02*
G75*
G03*
X5954700Y-7810000I100000J0D01*
G01*
X5854700Y-3910000D02*
X5854700Y-7710000D01*
X8642255Y-4923108D02*
G75*
G03*
X8356600Y-4923108I-142828J0D01*
G01*
X8641668Y-7432128D02*
X8641668Y-7710000D01*
X5954700Y-3810000D02*
G75*
G03*
X5854700Y-3910000I0J-100000D01*
G01*
X8356012Y-4187872D02*
X8356012Y-3910000D01*
X8642255Y-5444196D02*
X8642255Y-4923108D01*
X11142980Y-3910000D02*
X11142980Y-7710000D01*
X11042980Y-7810000D02*
G75*
G03*
X11142980Y-7710000I0J100000D01*
G01*
X8356600Y-5444196D02*
G75*
G03*
X8642255Y-5444196I142828J0D01*
G01*
X8641668Y-4187872D02*
X8641668Y-3910000D01*
X8256012Y-7810002D02*
G75*
G03*
X8356012Y-7710000I-2J100002D01*
G01*
X8356012Y-7432128D02*
X8356012Y-7710000D01*
D11*
D12*
X6103069Y-4070005D02*
X6183069Y-4150005D01*
X6183069Y-4070005D02*
X6103069Y-4150005D01*
X6103069Y-4324005D02*
X6183069Y-4404005D01*
X6183069Y-4324005D02*
X6103069Y-4404005D01*
X6103069Y-4578005D02*
X6183069Y-4658005D01*
X6183069Y-4578005D02*
X6103069Y-4658005D01*
X6103069Y-4832005D02*
X6183069Y-4912005D01*
X6183069Y-4832005D02*
X6103069Y-4912005D01*
X6103069Y-5086005D02*
X6183069Y-5166005D01*
X6183069Y-5086005D02*
X6103069Y-5166005D01*
X6103069Y-5340005D02*
X6183069Y-5420005D01*
X6183069Y-5340005D02*
X6103069Y-5420005D01*
X6103069Y-5594005D02*
X6183069Y-5674005D01*
X6183069Y-5594005D02*
X6103069Y-5674005D01*
X6103069Y-5848005D02*
X6183069Y-5928005D01*
X6183069Y-5848005D02*
X6103069Y-5928005D01*
X6103069Y-6102005D02*
X6183069Y-6182005D01*
X6183069Y-6102005D02*
X6103069Y-6182005D01*
X6103069Y-6356005D02*
X6183069Y-6436005D01*
X6183069Y-6356005D02*
X6103069Y-6436005D01*
X6103069Y-6610005D02*
X6183069Y-6690005D01*
X6183069Y-6610005D02*
X6103069Y-6690005D01*
X6103069Y-6864005D02*
X6183069Y-6944005D01*
X6183069Y-6864005D02*
X6103069Y-6944005D01*
X6103069Y-7118005D02*
X6183069Y-7198005D01*
X6183069Y-7118005D02*
X6103069Y-7198005D01*
X6103069Y-7372005D02*
X6183069Y-7452005D01*
X6183069Y-7372005D02*
X6103069Y-7452005D01*
X6491689Y-4073585D02*
X6571689Y-4153585D01*
X6571689Y-4073585D02*
X6491689Y-4153585D01*
X6491689Y-4327585D02*
X6571689Y-4407585D01*
X6571689Y-4327585D02*
X6491689Y-4407585D01*
X6491689Y-4581585D02*
X6571689Y-4661585D01*
X6571689Y-4581585D02*
X6491689Y-4661585D01*
X6491689Y-4835585D02*
X6571689Y-4915585D01*
X6571689Y-4835585D02*
X6491689Y-4915585D01*
X6491689Y-5089585D02*
X6571689Y-5169585D01*
X6571689Y-5089585D02*
X6491689Y-5169585D01*
X6491689Y-5343585D02*
X6571689Y-5423585D01*
X6571689Y-5343585D02*
X6491689Y-5423585D01*
X6491689Y-5597585D02*
X6571689Y-5677585D01*
X6571689Y-5597585D02*
X6491689Y-5677585D01*
X6491689Y-5851585D02*
X6571689Y-5931585D01*
X6571689Y-5851585D02*
X6491689Y-5931585D01*
X6491689Y-6105585D02*
X6571689Y-6185585D01*
X6571689Y-6105585D02*
X6491689Y-6185585D01*
X6491689Y-6359585D02*
X6571689Y-6439585D01*
X6571689Y-6359585D02*
X6491689Y-6439585D01*
X6491689Y-6613585D02*
X6571689Y-6693585D01*
X6571689Y-6613585D02*
X6491689Y-6693585D01*
X6491689Y-6867585D02*
X6571689Y-6947585D01*
X6571689Y-6867585D02*
X6491689Y-6947585D01*
X6491689Y-7121585D02*
X6571689Y-7201585D01*
X6571689Y-7121585D02*
X6491689Y-7201585D01*
X6491689Y-7375585D02*
X6571689Y-7455585D01*
X6571689Y-7375585D02*
X6491689Y-7455585D01*
X7627069Y-4070005D02*
X7707069Y-4150005D01*
X7707069Y-4070005D02*
X7627069Y-4150005D01*
X7627069Y-4324005D02*
X7707069Y-4404005D01*
X7707069Y-4324005D02*
X7627069Y-4404005D01*
X7627069Y-4578005D02*
X7707069Y-4658005D01*
X7707069Y-4578005D02*
X7627069Y-4658005D01*
X7627069Y-4832005D02*
X7707069Y-4912005D01*
X7707069Y-4832005D02*
X7627069Y-4912005D01*
X7627069Y-5086005D02*
X7707069Y-5166005D01*
X7707069Y-5086005D02*
X7627069Y-5166005D01*
X7627069Y-5340005D02*
X7707069Y-5420005D01*
X7707069Y-5340005D02*
X7627069Y-5420005D01*
X7627069Y-5594005D02*
X7707069Y-5674005D01*
X7707069Y-5594005D02*
X7627069Y-5674005D01*
X7627069Y-5848005D02*
X7707069Y-5928005D01*
X7707069Y-5848005D02*
X7627069Y-5928005D01*
X7627069Y-6102005D02*
X7707069Y-6182005D01*
X7707069Y-6102005D02*
X7627069Y-6182005D01*
X7627069Y-6356005D02*
X7707069Y-6436005D01*
X7707069Y-6356005D02*
X7627069Y-6436005D01*
X7627069Y-6610005D02*
X7707069Y-6690005D01*
X7707069Y-6610005D02*
X7627069Y-6690005D01*
X7627069Y-6864005D02*
X7707069Y-6944005D01*
X7707069Y-6864005D02*
X7627069Y-6944005D01*
X7627069Y-7118005D02*
X7707069Y-7198005D01*
X7707069Y-7118005D02*
X7627069Y-7198005D01*
X7627069Y-7372005D02*
X7707069Y-7452005D01*
X7707069Y-7372005D02*
X7627069Y-7452005D01*
X8015689Y-4073585D02*
X8095689Y-4153585D01*
X8095689Y-4073585D02*
X8015689Y-4153585D01*
X8015689Y-4327585D02*
X8095689Y-4407585D01*
X8095689Y-4327585D02*
X8015689Y-4407585D01*
X8015689Y-4581585D02*
X8095689Y-4661585D01*
X8095689Y-4581585D02*
X8015689Y-4661585D01*
X8015689Y-4835585D02*
X8095689Y-4915585D01*
X8095689Y-4835585D02*
X8015689Y-4915585D01*
X8015689Y-5089585D02*
X8095689Y-5169585D01*
X8095689Y-5089585D02*
X8015689Y-5169585D01*
X8015689Y-5343585D02*
X8095689Y-5423585D01*
X8095689Y-5343585D02*
X8015689Y-5423585D01*
X8015689Y-5597585D02*
X8095689Y-5677585D01*
X8095689Y-5597585D02*
X8015689Y-5677585D01*
X8015689Y-5851585D02*
X8095689Y-5931585D01*
X8095689Y-5851585D02*
X8015689Y-5931585D01*
X8015689Y-6105585D02*
X8095689Y-6185585D01*
X8095689Y-6105585D02*
X8015689Y-6185585D01*
X8015689Y-6359585D02*
X8095689Y-6439585D01*
X8095689Y-6359585D02*
X8015689Y-6439585D01*
X8015689Y-6613585D02*
X8095689Y-6693585D01*
X8095689Y-6613585D02*
X8015689Y-6693585D01*
X8015689Y-6867585D02*
X8095689Y-6947585D01*
X8095689Y-6867585D02*
X8015689Y-6947585D01*
X8015689Y-7121585D02*
X8095689Y-7201585D01*
X8095689Y-7121585D02*
X8015689Y-7201585D01*
X8015689Y-7375585D02*
X8095689Y-7455585D01*
X8095689Y-7375585D02*
X8015689Y-7455585D01*
X8900800Y-4074675D02*
X8980800Y-4154675D01*
X8980800Y-4074675D02*
X8900800Y-4154675D01*
X8900800Y-4328675D02*
X8980800Y-4408675D01*
X8980800Y-4328675D02*
X8900800Y-4408675D01*
X8900800Y-4582675D02*
X8980800Y-4662675D01*
X8980800Y-4582675D02*
X8900800Y-4662675D01*
X8900800Y-4836675D02*
X8980800Y-4916675D01*
X8980800Y-4836675D02*
X8900800Y-4916675D01*
X8900800Y-5090675D02*
X8980800Y-5170675D01*
X8980800Y-5090675D02*
X8900800Y-5170675D01*
X8900800Y-5344675D02*
X8980800Y-5424675D01*
X8980800Y-5344675D02*
X8900800Y-5424675D01*
X8900800Y-5598675D02*
X8980800Y-5678675D01*
X8980800Y-5598675D02*
X8900800Y-5678675D01*
X8900800Y-5852675D02*
X8980800Y-5932675D01*
X8980800Y-5852675D02*
X8900800Y-5932675D01*
X8900800Y-6106675D02*
X8980800Y-6186675D01*
X8980800Y-6106675D02*
X8900800Y-6186675D01*
X8900800Y-6360675D02*
X8980800Y-6440675D01*
X8980800Y-6360675D02*
X8900800Y-6440675D01*
X8900800Y-6614675D02*
X8980800Y-6694675D01*
X8980800Y-6614675D02*
X8900800Y-6694675D01*
X8900800Y-6868675D02*
X8980800Y-6948675D01*
X8980800Y-6868675D02*
X8900800Y-6948675D01*
X8900800Y-7122675D02*
X8980800Y-7202675D01*
X8980800Y-7122675D02*
X8900800Y-7202675D01*
X8900800Y-7376675D02*
X8980800Y-7456675D01*
X8980800Y-7376675D02*
X8900800Y-7456675D01*
X9304660Y-4074800D02*
X9384660Y-4154800D01*
X9384660Y-4074800D02*
X9304660Y-4154800D01*
X9304660Y-4328800D02*
X9384660Y-4408800D01*
X9384660Y-4328800D02*
X9304660Y-4408800D01*
X9304660Y-4582800D02*
X9384660Y-4662800D01*
X9384660Y-4582800D02*
X9304660Y-4662800D01*
X9304660Y-4836800D02*
X9384660Y-4916800D01*
X9384660Y-4836800D02*
X9304660Y-4916800D01*
X9304660Y-5090800D02*
X9384660Y-5170800D01*
X9384660Y-5090800D02*
X9304660Y-5170800D01*
X9304660Y-5344800D02*
X9384660Y-5424800D01*
X9384660Y-5344800D02*
X9304660Y-5424800D01*
X9304660Y-5598800D02*
X9384660Y-5678800D01*
X9384660Y-5598800D02*
X9304660Y-5678800D01*
X9304660Y-5852800D02*
X9384660Y-5932800D01*
X9384660Y-5852800D02*
X9304660Y-5932800D01*
X9304660Y-6106800D02*
X9384660Y-6186800D01*
X9384660Y-6106800D02*
X9304660Y-6186800D01*
X9304660Y-6360800D02*
X9384660Y-6440800D01*
X9384660Y-6360800D02*
X9304660Y-6440800D01*
X9304660Y-6614800D02*
X9384660Y-6694800D01*
X9384660Y-6614800D02*
X9304660Y-6694800D01*
X9304660Y-6868800D02*
X9384660Y-6948800D01*
X9384660Y-6868800D02*
X9304660Y-6948800D01*
X9304660Y-7122800D02*
X9384660Y-7202800D01*
X9384660Y-7122800D02*
X9304660Y-7202800D01*
X9304660Y-7376800D02*
X9384660Y-7456800D01*
X9384660Y-7376800D02*
X9304660Y-7456800D01*
X10424800Y-4074675D02*
X10504800Y-4154675D01*
X10504800Y-4074675D02*
X10424800Y-4154675D01*
X10424800Y-4328675D02*
X10504800Y-4408675D01*
X10504800Y-4328675D02*
X10424800Y-4408675D01*
X10424800Y-4582675D02*
X10504800Y-4662675D01*
X10504800Y-4582675D02*
X10424800Y-4662675D01*
X10424800Y-4836675D02*
X10504800Y-4916675D01*
X10504800Y-4836675D02*
X10424800Y-4916675D01*
X10424800Y-5090675D02*
X10504800Y-5170675D01*
X10504800Y-5090675D02*
X10424800Y-5170675D01*
X10424800Y-5344675D02*
X10504800Y-5424675D01*
X10504800Y-5344675D02*
X10424800Y-5424675D01*
X10424800Y-5598675D02*
X10504800Y-5678675D01*
X10504800Y-5598675D02*
X10424800Y-5678675D01*
X10424800Y-5852675D02*
X10504800Y-5932675D01*
X10504800Y-5852675D02*
X10424800Y-5932675D01*
X10424800Y-6106675D02*
X10504800Y-6186675D01*
X10504800Y-6106675D02*
X10424800Y-6186675D01*
X10424800Y-6360675D02*
X10504800Y-6440675D01*
X10504800Y-6360675D02*
X10424800Y-6440675D01*
X10424800Y-6614675D02*
X10504800Y-6694675D01*
X10504800Y-6614675D02*
X10424800Y-6694675D01*
X10424800Y-6868675D02*
X10504800Y-6948675D01*
X10504800Y-6868675D02*
X10424800Y-6948675D01*
X10424800Y-7122675D02*
X10504800Y-7202675D01*
X10504800Y-7122675D02*
X10424800Y-7202675D01*
X10424800Y-7376675D02*
X10504800Y-7456675D01*
X10504800Y-7376675D02*
X10424800Y-7456675D01*
X10828660Y-4074800D02*
X10908660Y-4154800D01*
X10908660Y-4074800D02*
X10828660Y-4154800D01*
X10828660Y-4328800D02*
X10908660Y-4408800D01*
X10908660Y-4328800D02*
X10828660Y-4408800D01*
X10828660Y-4582800D02*
X10908660Y-4662800D01*
X10908660Y-4582800D02*
X10828660Y-4662800D01*
X10828660Y-4836800D02*
X10908660Y-4916800D01*
X10908660Y-4836800D02*
X10828660Y-4916800D01*
X10828660Y-5090800D02*
X10908660Y-5170800D01*
X10908660Y-5090800D02*
X10828660Y-5170800D01*
X10828660Y-5344800D02*
X10908660Y-5424800D01*
X10908660Y-5344800D02*
X10828660Y-5424800D01*
X10828660Y-5598800D02*
X10908660Y-5678800D01*
X10908660Y-5598800D02*
X10828660Y-5678800D01*
X10828660Y-5852800D02*
X10908660Y-5932800D01*
X10908660Y-5852800D02*
X10828660Y-5932800D01*
X10828660Y-6106800D02*
X10908660Y-6186800D01*
X10908660Y-6106800D02*
X10828660Y-6186800D01*
X10828660Y-6360800D02*
X10908660Y-6440800D01*
X10908660Y-6360800D02*
X10828660Y-6440800D01*
X10828660Y-6614800D02*
X10908660Y-6694800D01*
X10908660Y-6614800D02*
X10828660Y-6694800D01*
X10828660Y-6868800D02*
X10908660Y-6948800D01*
X10908660Y-6868800D02*
X10828660Y-6948800D01*
X10828660Y-7122800D02*
X10908660Y-7202800D01*
X10908660Y-7122800D02*
X10828660Y-7202800D01*
X10828660Y-7376800D02*
X10908660Y-7456800D01*
X10908660Y-7376800D02*
X10828660Y-7456800D01*
D11*
X6097319Y-8127524D02*
X6097319Y-7927524D01*
X6097319Y-7927524D02*
X6144938Y-7927524D01*
X6144938Y-7927524D02*
X6173509Y-7937048D01*
X6173509Y-7937048D02*
X6192557Y-7956095D01*
X6192557Y-7956095D02*
X6202081Y-7975143D01*
X6202081Y-7975143D02*
X6211605Y-8013238D01*
X6211605Y-8013238D02*
X6211605Y-8041809D01*
X6211605Y-8041809D02*
X6202081Y-8079905D01*
X6202081Y-8079905D02*
X6192557Y-8098952D01*
X6192557Y-8098952D02*
X6173509Y-8118000D01*
X6173509Y-8118000D02*
X6144938Y-8127524D01*
X6144938Y-8127524D02*
X6097319Y-8127524D01*
X6297319Y-8127524D02*
X6297319Y-7994190D01*
X6297319Y-8032286D02*
X6306843Y-8013238D01*
X6306843Y-8013238D02*
X6316367Y-8003714D01*
X6316367Y-8003714D02*
X6335414Y-7994190D01*
X6335414Y-7994190D02*
X6354462Y-7994190D01*
X6421128Y-8127524D02*
X6421128Y-7994190D01*
X6421128Y-7927524D02*
X6411605Y-7937048D01*
X6411605Y-7937048D02*
X6421128Y-7946571D01*
X6421128Y-7946571D02*
X6430652Y-7937048D01*
X6430652Y-7937048D02*
X6421128Y-7927524D01*
X6421128Y-7927524D02*
X6421128Y-7946571D01*
X6544938Y-8127524D02*
X6525890Y-8118000D01*
X6525890Y-8118000D02*
X6516367Y-8098952D01*
X6516367Y-8098952D02*
X6516367Y-7927524D01*
X6649700Y-8127524D02*
X6630652Y-8118000D01*
X6630652Y-8118000D02*
X6621128Y-8098952D01*
X6621128Y-8098952D02*
X6621128Y-7927524D01*
X6878271Y-8127524D02*
X6878271Y-7927524D01*
X6878271Y-7927524D02*
X6944938Y-8070381D01*
X6944938Y-8070381D02*
X7011605Y-7927524D01*
X7011605Y-7927524D02*
X7011605Y-8127524D01*
X7192557Y-8127524D02*
X7192557Y-8022762D01*
X7192557Y-8022762D02*
X7183033Y-8003714D01*
X7183033Y-8003714D02*
X7163986Y-7994190D01*
X7163986Y-7994190D02*
X7125890Y-7994190D01*
X7125890Y-7994190D02*
X7106843Y-8003714D01*
X7192557Y-8118000D02*
X7173509Y-8127524D01*
X7173509Y-8127524D02*
X7125890Y-8127524D01*
X7125890Y-8127524D02*
X7106843Y-8118000D01*
X7106843Y-8118000D02*
X7097319Y-8098952D01*
X7097319Y-8098952D02*
X7097319Y-8079905D01*
X7097319Y-8079905D02*
X7106843Y-8060857D01*
X7106843Y-8060857D02*
X7125890Y-8051333D01*
X7125890Y-8051333D02*
X7173509Y-8051333D01*
X7173509Y-8051333D02*
X7192557Y-8041809D01*
X7287795Y-7994190D02*
X7287795Y-8194190D01*
X7287795Y-8003714D02*
X7306843Y-7994190D01*
X7306843Y-7994190D02*
X7344938Y-7994190D01*
X7344938Y-7994190D02*
X7363986Y-8003714D01*
X7363986Y-8003714D02*
X7373509Y-8013238D01*
X7373509Y-8013238D02*
X7383033Y-8032286D01*
X7383033Y-8032286D02*
X7383033Y-8089428D01*
X7383033Y-8089428D02*
X7373509Y-8108476D01*
X7373509Y-8108476D02*
X7363986Y-8118000D01*
X7363986Y-8118000D02*
X7344938Y-8127524D01*
X7344938Y-8127524D02*
X7306843Y-8127524D01*
X7306843Y-8127524D02*
X7287795Y-8118000D01*
X7468748Y-8108476D02*
X7478271Y-8118000D01*
X7478271Y-8118000D02*
X7468748Y-8127524D01*
X7468748Y-8127524D02*
X7459224Y-8118000D01*
X7459224Y-8118000D02*
X7468748Y-8108476D01*
X7468748Y-8108476D02*
X7468748Y-8127524D01*
X7468748Y-8003714D02*
X7478271Y-8013238D01*
X7478271Y-8013238D02*
X7468748Y-8022762D01*
X7468748Y-8022762D02*
X7459224Y-8013238D01*
X7459224Y-8013238D02*
X7468748Y-8003714D01*
X7468748Y-8003714D02*
X7468748Y-8022762D01*
D12*
X5769700Y-8415000D02*
X5849700Y-8495000D01*
X5849700Y-8415000D02*
X5769700Y-8495000D01*
D11*
X6135414Y-8347524D02*
X6154462Y-8347524D01*
X6154462Y-8347524D02*
X6173509Y-8357048D01*
X6173509Y-8357048D02*
X6183033Y-8366571D01*
X6183033Y-8366571D02*
X6192557Y-8385619D01*
X6192557Y-8385619D02*
X6202081Y-8423714D01*
X6202081Y-8423714D02*
X6202081Y-8471333D01*
X6202081Y-8471333D02*
X6192557Y-8509429D01*
X6192557Y-8509429D02*
X6183033Y-8528476D01*
X6183033Y-8528476D02*
X6173509Y-8538000D01*
X6173509Y-8538000D02*
X6154462Y-8547524D01*
X6154462Y-8547524D02*
X6135414Y-8547524D01*
X6135414Y-8547524D02*
X6116367Y-8538000D01*
X6116367Y-8538000D02*
X6106843Y-8528476D01*
X6106843Y-8528476D02*
X6097319Y-8509429D01*
X6097319Y-8509429D02*
X6087795Y-8471333D01*
X6087795Y-8471333D02*
X6087795Y-8423714D01*
X6087795Y-8423714D02*
X6097319Y-8385619D01*
X6097319Y-8385619D02*
X6106843Y-8366571D01*
X6106843Y-8366571D02*
X6116367Y-8357048D01*
X6116367Y-8357048D02*
X6135414Y-8347524D01*
X6287795Y-8528476D02*
X6297319Y-8538000D01*
X6297319Y-8538000D02*
X6287795Y-8547524D01*
X6287795Y-8547524D02*
X6278271Y-8538000D01*
X6278271Y-8538000D02*
X6287795Y-8528476D01*
X6287795Y-8528476D02*
X6287795Y-8547524D01*
X6411605Y-8433238D02*
X6392557Y-8423714D01*
X6392557Y-8423714D02*
X6383033Y-8414190D01*
X6383033Y-8414190D02*
X6373509Y-8395143D01*
X6373509Y-8395143D02*
X6373509Y-8385619D01*
X6373509Y-8385619D02*
X6383033Y-8366571D01*
X6383033Y-8366571D02*
X6392557Y-8357048D01*
X6392557Y-8357048D02*
X6411605Y-8347524D01*
X6411605Y-8347524D02*
X6449700Y-8347524D01*
X6449700Y-8347524D02*
X6468748Y-8357048D01*
X6468748Y-8357048D02*
X6478271Y-8366571D01*
X6478271Y-8366571D02*
X6487795Y-8385619D01*
X6487795Y-8385619D02*
X6487795Y-8395143D01*
X6487795Y-8395143D02*
X6478271Y-8414190D01*
X6478271Y-8414190D02*
X6468748Y-8423714D01*
X6468748Y-8423714D02*
X6449700Y-8433238D01*
X6449700Y-8433238D02*
X6411605Y-8433238D01*
X6411605Y-8433238D02*
X6392557Y-8442762D01*
X6392557Y-8442762D02*
X6383033Y-8452286D01*
X6383033Y-8452286D02*
X6373509Y-8471333D01*
X6373509Y-8471333D02*
X6373509Y-8509429D01*
X6373509Y-8509429D02*
X6383033Y-8528476D01*
X6383033Y-8528476D02*
X6392557Y-8538000D01*
X6392557Y-8538000D02*
X6411605Y-8547524D01*
X6411605Y-8547524D02*
X6449700Y-8547524D01*
X6449700Y-8547524D02*
X6468748Y-8538000D01*
X6468748Y-8538000D02*
X6478271Y-8528476D01*
X6478271Y-8528476D02*
X6487795Y-8509429D01*
X6487795Y-8509429D02*
X6487795Y-8471333D01*
X6487795Y-8471333D02*
X6478271Y-8452286D01*
X6478271Y-8452286D02*
X6468748Y-8442762D01*
X6468748Y-8442762D02*
X6449700Y-8433238D01*
X6611605Y-8347524D02*
X6630652Y-8347524D01*
X6630652Y-8347524D02*
X6649700Y-8357048D01*
X6649700Y-8357048D02*
X6659224Y-8366571D01*
X6659224Y-8366571D02*
X6668748Y-8385619D01*
X6668748Y-8385619D02*
X6678271Y-8423714D01*
X6678271Y-8423714D02*
X6678271Y-8471333D01*
X6678271Y-8471333D02*
X6668748Y-8509429D01*
X6668748Y-8509429D02*
X6659224Y-8528476D01*
X6659224Y-8528476D02*
X6649700Y-8538000D01*
X6649700Y-8538000D02*
X6630652Y-8547524D01*
X6630652Y-8547524D02*
X6611605Y-8547524D01*
X6611605Y-8547524D02*
X6592557Y-8538000D01*
X6592557Y-8538000D02*
X6583033Y-8528476D01*
X6583033Y-8528476D02*
X6573509Y-8509429D01*
X6573509Y-8509429D02*
X6563986Y-8471333D01*
X6563986Y-8471333D02*
X6563986Y-8423714D01*
X6563986Y-8423714D02*
X6573509Y-8385619D01*
X6573509Y-8385619D02*
X6583033Y-8366571D01*
X6583033Y-8366571D02*
X6592557Y-8357048D01*
X6592557Y-8357048D02*
X6611605Y-8347524D01*
X6802081Y-8347524D02*
X6821129Y-8347524D01*
X6821129Y-8347524D02*
X6840176Y-8357048D01*
X6840176Y-8357048D02*
X6849700Y-8366571D01*
X6849700Y-8366571D02*
X6859224Y-8385619D01*
X6859224Y-8385619D02*
X6868748Y-8423714D01*
X6868748Y-8423714D02*
X6868748Y-8471333D01*
X6868748Y-8471333D02*
X6859224Y-8509429D01*
X6859224Y-8509429D02*
X6849700Y-8528476D01*
X6849700Y-8528476D02*
X6840176Y-8538000D01*
X6840176Y-8538000D02*
X6821129Y-8547524D01*
X6821129Y-8547524D02*
X6802081Y-8547524D01*
X6802081Y-8547524D02*
X6783033Y-8538000D01*
X6783033Y-8538000D02*
X6773509Y-8528476D01*
X6773509Y-8528476D02*
X6763986Y-8509429D01*
X6763986Y-8509429D02*
X6754462Y-8471333D01*
X6754462Y-8471333D02*
X6754462Y-8423714D01*
X6754462Y-8423714D02*
X6763986Y-8385619D01*
X6763986Y-8385619D02*
X6773509Y-8366571D01*
X6773509Y-8366571D02*
X6783033Y-8357048D01*
X6783033Y-8357048D02*
X6802081Y-8347524D01*
X6954462Y-8547524D02*
X6954462Y-8414190D01*
X6954462Y-8433238D02*
X6963986Y-8423714D01*
X6963986Y-8423714D02*
X6983033Y-8414190D01*
X6983033Y-8414190D02*
X7011605Y-8414190D01*
X7011605Y-8414190D02*
X7030652Y-8423714D01*
X7030652Y-8423714D02*
X7040176Y-8442762D01*
X7040176Y-8442762D02*
X7040176Y-8547524D01*
X7040176Y-8442762D02*
X7049700Y-8423714D01*
X7049700Y-8423714D02*
X7068748Y-8414190D01*
X7068748Y-8414190D02*
X7097319Y-8414190D01*
X7097319Y-8414190D02*
X7116367Y-8423714D01*
X7116367Y-8423714D02*
X7125890Y-8442762D01*
X7125890Y-8442762D02*
X7125890Y-8547524D01*
X7221129Y-8547524D02*
X7221129Y-8414190D01*
X7221129Y-8433238D02*
X7230652Y-8423714D01*
X7230652Y-8423714D02*
X7249700Y-8414190D01*
X7249700Y-8414190D02*
X7278271Y-8414190D01*
X7278271Y-8414190D02*
X7297319Y-8423714D01*
X7297319Y-8423714D02*
X7306843Y-8442762D01*
X7306843Y-8442762D02*
X7306843Y-8547524D01*
X7306843Y-8442762D02*
X7316367Y-8423714D01*
X7316367Y-8423714D02*
X7335414Y-8414190D01*
X7335414Y-8414190D02*
X7363986Y-8414190D01*
X7363986Y-8414190D02*
X7383033Y-8423714D01*
X7383033Y-8423714D02*
X7392557Y-8442762D01*
X7392557Y-8442762D02*
X7392557Y-8547524D01*
X7783033Y-8338000D02*
X7611605Y-8595143D01*
X8040176Y-8347524D02*
X8059224Y-8347524D01*
X8059224Y-8347524D02*
X8078272Y-8357048D01*
X8078272Y-8357048D02*
X8087795Y-8366571D01*
X8087795Y-8366571D02*
X8097319Y-8385619D01*
X8097319Y-8385619D02*
X8106843Y-8423714D01*
X8106843Y-8423714D02*
X8106843Y-8471333D01*
X8106843Y-8471333D02*
X8097319Y-8509429D01*
X8097319Y-8509429D02*
X8087795Y-8528476D01*
X8087795Y-8528476D02*
X8078272Y-8538000D01*
X8078272Y-8538000D02*
X8059224Y-8547524D01*
X8059224Y-8547524D02*
X8040176Y-8547524D01*
X8040176Y-8547524D02*
X8021129Y-8538000D01*
X8021129Y-8538000D02*
X8011605Y-8528476D01*
X8011605Y-8528476D02*
X8002081Y-8509429D01*
X8002081Y-8509429D02*
X7992557Y-8471333D01*
X7992557Y-8471333D02*
X7992557Y-8423714D01*
X7992557Y-8423714D02*
X8002081Y-8385619D01*
X8002081Y-8385619D02*
X8011605Y-8366571D01*
X8011605Y-8366571D02*
X8021129Y-8357048D01*
X8021129Y-8357048D02*
X8040176Y-8347524D01*
X8192557Y-8528476D02*
X8202081Y-8538000D01*
X8202081Y-8538000D02*
X8192557Y-8547524D01*
X8192557Y-8547524D02*
X8183033Y-8538000D01*
X8183033Y-8538000D02*
X8192557Y-8528476D01*
X8192557Y-8528476D02*
X8192557Y-8547524D01*
X8325891Y-8347524D02*
X8344938Y-8347524D01*
X8344938Y-8347524D02*
X8363986Y-8357048D01*
X8363986Y-8357048D02*
X8373510Y-8366571D01*
X8373510Y-8366571D02*
X8383033Y-8385619D01*
X8383033Y-8385619D02*
X8392557Y-8423714D01*
X8392557Y-8423714D02*
X8392557Y-8471333D01*
X8392557Y-8471333D02*
X8383033Y-8509429D01*
X8383033Y-8509429D02*
X8373510Y-8528476D01*
X8373510Y-8528476D02*
X8363986Y-8538000D01*
X8363986Y-8538000D02*
X8344938Y-8547524D01*
X8344938Y-8547524D02*
X8325891Y-8547524D01*
X8325891Y-8547524D02*
X8306843Y-8538000D01*
X8306843Y-8538000D02*
X8297319Y-8528476D01*
X8297319Y-8528476D02*
X8287795Y-8509429D01*
X8287795Y-8509429D02*
X8278272Y-8471333D01*
X8278272Y-8471333D02*
X8278272Y-8423714D01*
X8278272Y-8423714D02*
X8287795Y-8385619D01*
X8287795Y-8385619D02*
X8297319Y-8366571D01*
X8297319Y-8366571D02*
X8306843Y-8357048D01*
X8306843Y-8357048D02*
X8325891Y-8347524D01*
X8459224Y-8347524D02*
X8583034Y-8347524D01*
X8583034Y-8347524D02*
X8516367Y-8423714D01*
X8516367Y-8423714D02*
X8544938Y-8423714D01*
X8544938Y-8423714D02*
X8563986Y-8433238D01*
X8563986Y-8433238D02*
X8573510Y-8442762D01*
X8573510Y-8442762D02*
X8583034Y-8461810D01*
X8583034Y-8461810D02*
X8583034Y-8509429D01*
X8583034Y-8509429D02*
X8573510Y-8528476D01*
X8573510Y-8528476D02*
X8563986Y-8538000D01*
X8563986Y-8538000D02*
X8544938Y-8547524D01*
X8544938Y-8547524D02*
X8487795Y-8547524D01*
X8487795Y-8547524D02*
X8468748Y-8538000D01*
X8468748Y-8538000D02*
X8459224Y-8528476D01*
X8773510Y-8547524D02*
X8659224Y-8547524D01*
X8716367Y-8547524D02*
X8716367Y-8347524D01*
X8716367Y-8347524D02*
X8697319Y-8376095D01*
X8697319Y-8376095D02*
X8678272Y-8395143D01*
X8678272Y-8395143D02*
X8659224Y-8404667D01*
X8954462Y-8347524D02*
X8859224Y-8347524D01*
X8859224Y-8347524D02*
X8849700Y-8442762D01*
X8849700Y-8442762D02*
X8859224Y-8433238D01*
X8859224Y-8433238D02*
X8878272Y-8423714D01*
X8878272Y-8423714D02*
X8925891Y-8423714D01*
X8925891Y-8423714D02*
X8944938Y-8433238D01*
X8944938Y-8433238D02*
X8954462Y-8442762D01*
X8954462Y-8442762D02*
X8963986Y-8461810D01*
X8963986Y-8461810D02*
X8963986Y-8509429D01*
X8963986Y-8509429D02*
X8954462Y-8528476D01*
X8954462Y-8528476D02*
X8944938Y-8538000D01*
X8944938Y-8538000D02*
X8925891Y-8547524D01*
X8925891Y-8547524D02*
X8878272Y-8547524D01*
X8878272Y-8547524D02*
X8859224Y-8538000D01*
X8859224Y-8538000D02*
X8849700Y-8528476D01*
X9040176Y-8347524D02*
X9040176Y-8385619D01*
X9116367Y-8347524D02*
X9116367Y-8385619D01*
X9411605Y-8623714D02*
X9402081Y-8614190D01*
X9402081Y-8614190D02*
X9383034Y-8585619D01*
X9383034Y-8585619D02*
X9373510Y-8566571D01*
X9373510Y-8566571D02*
X9363986Y-8538000D01*
X9363986Y-8538000D02*
X9354462Y-8490381D01*
X9354462Y-8490381D02*
X9354462Y-8452286D01*
X9354462Y-8452286D02*
X9363986Y-8404667D01*
X9363986Y-8404667D02*
X9373510Y-8376095D01*
X9373510Y-8376095D02*
X9383034Y-8357048D01*
X9383034Y-8357048D02*
X9402081Y-8328476D01*
X9402081Y-8328476D02*
X9411605Y-8318952D01*
X9592557Y-8547524D02*
X9478272Y-8547524D01*
X9535415Y-8547524D02*
X9535415Y-8347524D01*
X9535415Y-8347524D02*
X9516367Y-8376095D01*
X9516367Y-8376095D02*
X9497319Y-8395143D01*
X9497319Y-8395143D02*
X9478272Y-8404667D01*
X9783034Y-8547524D02*
X9668748Y-8547524D01*
X9725891Y-8547524D02*
X9725891Y-8347524D01*
X9725891Y-8347524D02*
X9706843Y-8376095D01*
X9706843Y-8376095D02*
X9687796Y-8395143D01*
X9687796Y-8395143D02*
X9668748Y-8404667D01*
X9859224Y-8366571D02*
X9868748Y-8357048D01*
X9868748Y-8357048D02*
X9887796Y-8347524D01*
X9887796Y-8347524D02*
X9935415Y-8347524D01*
X9935415Y-8347524D02*
X9954462Y-8357048D01*
X9954462Y-8357048D02*
X9963986Y-8366571D01*
X9963986Y-8366571D02*
X9973510Y-8385619D01*
X9973510Y-8385619D02*
X9973510Y-8404667D01*
X9973510Y-8404667D02*
X9963986Y-8433238D01*
X9963986Y-8433238D02*
X9849700Y-8547524D01*
X9849700Y-8547524D02*
X9973510Y-8547524D01*
X10211605Y-8547524D02*
X10211605Y-8347524D01*
X10297319Y-8547524D02*
X10297319Y-8442762D01*
X10297319Y-8442762D02*
X10287796Y-8423714D01*
X10287796Y-8423714D02*
X10268748Y-8414190D01*
X10268748Y-8414190D02*
X10240177Y-8414190D01*
X10240177Y-8414190D02*
X10221129Y-8423714D01*
X10221129Y-8423714D02*
X10211605Y-8433238D01*
X10421129Y-8547524D02*
X10402081Y-8538000D01*
X10402081Y-8538000D02*
X10392558Y-8528476D01*
X10392558Y-8528476D02*
X10383034Y-8509429D01*
X10383034Y-8509429D02*
X10383034Y-8452286D01*
X10383034Y-8452286D02*
X10392558Y-8433238D01*
X10392558Y-8433238D02*
X10402081Y-8423714D01*
X10402081Y-8423714D02*
X10421129Y-8414190D01*
X10421129Y-8414190D02*
X10449700Y-8414190D01*
X10449700Y-8414190D02*
X10468748Y-8423714D01*
X10468748Y-8423714D02*
X10478272Y-8433238D01*
X10478272Y-8433238D02*
X10487796Y-8452286D01*
X10487796Y-8452286D02*
X10487796Y-8509429D01*
X10487796Y-8509429D02*
X10478272Y-8528476D01*
X10478272Y-8528476D02*
X10468748Y-8538000D01*
X10468748Y-8538000D02*
X10449700Y-8547524D01*
X10449700Y-8547524D02*
X10421129Y-8547524D01*
X10602081Y-8547524D02*
X10583034Y-8538000D01*
X10583034Y-8538000D02*
X10573510Y-8518952D01*
X10573510Y-8518952D02*
X10573510Y-8347524D01*
X10754462Y-8538000D02*
X10735415Y-8547524D01*
X10735415Y-8547524D02*
X10697319Y-8547524D01*
X10697319Y-8547524D02*
X10678272Y-8538000D01*
X10678272Y-8538000D02*
X10668748Y-8518952D01*
X10668748Y-8518952D02*
X10668748Y-8442762D01*
X10668748Y-8442762D02*
X10678272Y-8423714D01*
X10678272Y-8423714D02*
X10697319Y-8414190D01*
X10697319Y-8414190D02*
X10735415Y-8414190D01*
X10735415Y-8414190D02*
X10754462Y-8423714D01*
X10754462Y-8423714D02*
X10763986Y-8442762D01*
X10763986Y-8442762D02*
X10763986Y-8461810D01*
X10763986Y-8461810D02*
X10668748Y-8480857D01*
X10840177Y-8538000D02*
X10859224Y-8547524D01*
X10859224Y-8547524D02*
X10897319Y-8547524D01*
X10897319Y-8547524D02*
X10916367Y-8538000D01*
X10916367Y-8538000D02*
X10925891Y-8518952D01*
X10925891Y-8518952D02*
X10925891Y-8509429D01*
X10925891Y-8509429D02*
X10916367Y-8490381D01*
X10916367Y-8490381D02*
X10897319Y-8480857D01*
X10897319Y-8480857D02*
X10868748Y-8480857D01*
X10868748Y-8480857D02*
X10849700Y-8471333D01*
X10849700Y-8471333D02*
X10840177Y-8452286D01*
X10840177Y-8452286D02*
X10840177Y-8442762D01*
X10840177Y-8442762D02*
X10849700Y-8423714D01*
X10849700Y-8423714D02*
X10868748Y-8414190D01*
X10868748Y-8414190D02*
X10897319Y-8414190D01*
X10897319Y-8414190D02*
X10916367Y-8423714D01*
X10992558Y-8623714D02*
X11002081Y-8614190D01*
X11002081Y-8614190D02*
X11021129Y-8585619D01*
X11021129Y-8585619D02*
X11030653Y-8566571D01*
X11030653Y-8566571D02*
X11040177Y-8538000D01*
X11040177Y-8538000D02*
X11049700Y-8490381D01*
X11049700Y-8490381D02*
X11049700Y-8452286D01*
X11049700Y-8452286D02*
X11040177Y-8404667D01*
X11040177Y-8404667D02*
X11030653Y-8376095D01*
X11030653Y-8376095D02*
X11021129Y-8357048D01*
X11021129Y-8357048D02*
X11002081Y-8328476D01*
X11002081Y-8328476D02*
X10992558Y-8318952D01*
M02*
