M48
; DRILL file {KiCad 7.0.1} date Sat Jul 22 01:47:02 2023
; FORMAT={-:-/ absolute / inch / decimal}
; #@! TF.CreationDate,2023-07-22T01:47:02+03:00
; #@! TF.GenerationSoftware,Kicad,Pcbnew,7.0.1
; #@! TF.FileFunction,Plated,1,2,PTH
FMAT,2
INCH
; #@! TA.AperFunction,Plated,PTH,ComponentDrill
T1C0.0315
%
G90
G05
T1
X2.4185Y-1.6181
X2.4185Y-1.7181
X2.4185Y-1.8181
X2.4185Y-1.9181
X2.4185Y-2.0181
X2.4185Y-2.1181
X2.4185Y-2.2181
X2.4185Y-2.3181
X2.4185Y-2.4181
X2.4185Y-2.5181
X2.4185Y-2.6181
X2.4185Y-2.7181
X2.4185Y-2.8181
X2.4185Y-2.9181
X2.5715Y-1.6195
X2.5715Y-1.7195
X2.5715Y-1.8195
X2.5715Y-1.9195
X2.5715Y-2.0195
X2.5715Y-2.1195
X2.5715Y-2.2195
X2.5715Y-2.3195
X2.5715Y-2.4195
X2.5715Y-2.5195
X2.5715Y-2.6195
X2.5715Y-2.7195
X2.5715Y-2.8195
X2.5715Y-2.9195
X3.0185Y-1.6181
X3.0185Y-1.7181
X3.0185Y-1.8181
X3.0185Y-1.9181
X3.0185Y-2.0181
X3.0185Y-2.1181
X3.0185Y-2.2181
X3.0185Y-2.3181
X3.0185Y-2.4181
X3.0185Y-2.5181
X3.0185Y-2.6181
X3.0185Y-2.7181
X3.0185Y-2.8181
X3.0185Y-2.9181
X3.1715Y-1.6195
X3.1715Y-1.7195
X3.1715Y-1.8195
X3.1715Y-1.9195
X3.1715Y-2.0195
X3.1715Y-2.1195
X3.1715Y-2.2195
X3.1715Y-2.3195
X3.1715Y-2.4195
X3.1715Y-2.5195
X3.1715Y-2.6195
X3.1715Y-2.7195
X3.1715Y-2.8195
X3.1715Y-2.9195
X3.52Y-1.62
X3.52Y-1.72
X3.52Y-1.82
X3.52Y-1.92
X3.52Y-2.02
X3.52Y-2.12
X3.52Y-2.22
X3.52Y-2.32
X3.52Y-2.42
X3.52Y-2.52
X3.52Y-2.62
X3.52Y-2.72
X3.52Y-2.82
X3.52Y-2.92
X3.679Y-1.62
X3.679Y-1.72
X3.679Y-1.82
X3.679Y-1.92
X3.679Y-2.02
X3.679Y-2.12
X3.679Y-2.22
X3.679Y-2.32
X3.679Y-2.42
X3.679Y-2.52
X3.679Y-2.62
X3.679Y-2.72
X3.679Y-2.82
X3.679Y-2.92
X4.12Y-1.62
X4.12Y-1.72
X4.12Y-1.82
X4.12Y-1.92
X4.12Y-2.02
X4.12Y-2.12
X4.12Y-2.22
X4.12Y-2.32
X4.12Y-2.42
X4.12Y-2.52
X4.12Y-2.62
X4.12Y-2.72
X4.12Y-2.82
X4.12Y-2.92
X4.279Y-1.62
X4.279Y-1.72
X4.279Y-1.82
X4.279Y-1.92
X4.279Y-2.02
X4.279Y-2.12
X4.279Y-2.22
X4.279Y-2.32
X4.279Y-2.42
X4.279Y-2.52
X4.279Y-2.62
X4.279Y-2.72
X4.279Y-2.82
X4.279Y-2.92
T0
M30
