%TF.GenerationSoftware,KiCad,Pcbnew,7.0.1*%
%TF.CreationDate,2023-07-22T01:46:55+03:00*%
%TF.ProjectId,kr556rt2,6b723535-3672-4743-922e-6b696361645f,rev?*%
%TF.SameCoordinates,Original*%
%TF.FileFunction,Soldermask,Top*%
%TF.FilePolarity,Negative*%
%FSLAX46Y46*%
G04 Gerber Fmt 4.6, Leading zero omitted, Abs format (unit mm)*
G04 Created by KiCad (PCBNEW 7.0.1) date 2023-07-22 01:46:55*
%MOMM*%
%LPD*%
G01*
G04 APERTURE LIST*
%ADD10C,0.500000*%
%ADD11R,1.600000X1.600000*%
%ADD12O,1.600000X1.600000*%
G04 APERTURE END LIST*
D10*
%TO.C,mouse-bite-2.54mm-slot_13*%
X83887446Y-72545800D03*
X86087446Y-72545800D03*
X83887446Y-71745800D03*
X86087446Y-71745800D03*
X83887446Y-70945800D03*
X86087446Y-70945800D03*
%TD*%
%TO.C,mouse-bite-2.54mm-slot_13*%
X83887446Y-70192800D03*
X86087446Y-70192800D03*
X83887446Y-69392800D03*
X86087446Y-69392800D03*
X83887446Y-68592800D03*
X86087446Y-68592800D03*
%TD*%
D11*
%TO.C,U1*%
X61430693Y-41100050D03*
D12*
X61430693Y-43640050D03*
X61430693Y-46180050D03*
X61430693Y-48720050D03*
X61430693Y-51260050D03*
X61430693Y-53800050D03*
X61430693Y-56340050D03*
X61430693Y-58880050D03*
X61430693Y-61420050D03*
X61430693Y-63960050D03*
X61430693Y-66500050D03*
X61430693Y-69040050D03*
X61430693Y-71580050D03*
X61430693Y-74120050D03*
X76670693Y-74120050D03*
X76670693Y-71580050D03*
X76670693Y-69040050D03*
X76670693Y-66500050D03*
X76670693Y-63960050D03*
X76670693Y-61420050D03*
X76670693Y-58880050D03*
X76670693Y-56340050D03*
X76670693Y-53800050D03*
X76670693Y-51260050D03*
X76670693Y-48720050D03*
X76670693Y-46180050D03*
X76670693Y-43640050D03*
X76670693Y-41100050D03*
%TD*%
D11*
%TO.C,U2*%
X65316893Y-41135850D03*
D12*
X65316893Y-43675850D03*
X65316893Y-46215850D03*
X65316893Y-48755850D03*
X65316893Y-51295850D03*
X65316893Y-53835850D03*
X65316893Y-56375850D03*
X65316893Y-58915850D03*
X65316893Y-61455850D03*
X65316893Y-63995850D03*
X65316893Y-66535850D03*
X65316893Y-69075850D03*
X65316893Y-71615850D03*
X65316893Y-74155850D03*
X80556893Y-74155850D03*
X80556893Y-71615850D03*
X80556893Y-69075850D03*
X80556893Y-66535850D03*
X80556893Y-63995850D03*
X80556893Y-61455850D03*
X80556893Y-58915850D03*
X80556893Y-56375850D03*
X80556893Y-53835850D03*
X80556893Y-51295850D03*
X80556893Y-48755850D03*
X80556893Y-46215850D03*
X80556893Y-43675850D03*
X80556893Y-41135850D03*
%TD*%
D11*
%TO.C,U4*%
X93446600Y-41148000D03*
D12*
X93446600Y-43688000D03*
X93446600Y-46228000D03*
X93446600Y-48768000D03*
X93446600Y-51308000D03*
X93446600Y-53848000D03*
X93446600Y-56388000D03*
X93446600Y-58928000D03*
X93446600Y-61468000D03*
X93446600Y-64008000D03*
X93446600Y-66548000D03*
X93446600Y-69088000D03*
X93446600Y-71628000D03*
X93446600Y-74168000D03*
X108686600Y-74168000D03*
X108686600Y-71628000D03*
X108686600Y-69088000D03*
X108686600Y-66548000D03*
X108686600Y-64008000D03*
X108686600Y-61468000D03*
X108686600Y-58928000D03*
X108686600Y-56388000D03*
X108686600Y-53848000D03*
X108686600Y-51308000D03*
X108686600Y-48768000D03*
X108686600Y-46228000D03*
X108686600Y-43688000D03*
X108686600Y-41148000D03*
%TD*%
D10*
%TO.C,mouse-bite-2.54mm-slot_13*%
X83887446Y-60040900D03*
X86087446Y-60040900D03*
X83887446Y-59240900D03*
X86087446Y-59240900D03*
X83887446Y-58440900D03*
X86087446Y-58440900D03*
%TD*%
D11*
%TO.C,U3*%
X89408000Y-41146750D03*
D12*
X89408000Y-43686750D03*
X89408000Y-46226750D03*
X89408000Y-48766750D03*
X89408000Y-51306750D03*
X89408000Y-53846750D03*
X89408000Y-56386750D03*
X89408000Y-58926750D03*
X89408000Y-61466750D03*
X89408000Y-64006750D03*
X89408000Y-66546750D03*
X89408000Y-69086750D03*
X89408000Y-71626750D03*
X89408000Y-74166750D03*
X104648000Y-74166750D03*
X104648000Y-71626750D03*
X104648000Y-69086750D03*
X104648000Y-66546750D03*
X104648000Y-64006750D03*
X104648000Y-61466750D03*
X104648000Y-58926750D03*
X104648000Y-56386750D03*
X104648000Y-53846750D03*
X104648000Y-51306750D03*
X104648000Y-48766750D03*
X104648000Y-46226750D03*
X104648000Y-43686750D03*
X104648000Y-41146750D03*
%TD*%
D10*
%TO.C,mouse-bite-2.54mm-slot_13*%
X83887446Y-47536000D03*
X86087446Y-47536000D03*
X83887446Y-46736000D03*
X86087446Y-46736000D03*
X83887446Y-45936000D03*
X86087446Y-45936000D03*
%TD*%
%TO.C,mouse-bite-2.54mm-slot_13*%
X83887446Y-57687900D03*
X86087446Y-57687900D03*
X83887446Y-56887900D03*
X86087446Y-56887900D03*
X83887446Y-56087900D03*
X86087446Y-56087900D03*
%TD*%
%TO.C,mouse-bite-2.54mm-slot_13*%
X83887446Y-45183000D03*
X86087446Y-45183000D03*
X83887446Y-44383000D03*
X86087446Y-44383000D03*
X83887446Y-43583000D03*
X86087446Y-43583000D03*
%TD*%
M02*
